<svg xmlns="http://www.w3.org/2000/svg" width="764" height="763" fill="none"><g stroke="#00F0B5" opacity=".4"><path d="M681.135 349.663c28.991 35.228 43.047 67.145 42.307 95.766-.739 28.595-16.252 54.023-46.683 76.282q-91.52 66.942-173.054 109.988c-54.254 28.644-119.487 35.006-195.738 19.03-76.164-15.957-135.203-63.961-177.117-144.091-20.958-40.069-31.26-77.451-30.941-112.155.318-34.698 11.253-66.749 32.819-96.165q64.865-88.476 116.692-148.441c34.474-39.888 81.997-64.752 142.61-74.568 30.26-4.9 57.557-.953 81.914 11.822 24.362 12.778 45.819 34.407 64.358 64.93q55.74 91.771 142.833 197.602Z"/><path d="M624.675 355.722c23.537 28.61 34.941 54.512 34.35 77.722-.59 23.183-13.151 43.803-37.829 61.858q-74.259 54.33-140.417 89.255c-44.004 23.231-96.927 28.377-158.808 15.382-61.794-12.977-109.71-51.957-143.746-117.023-17.02-32.536-25.388-62.881-25.141-91.045.247-28.156 9.106-54.161 26.59-78.027q52.62-71.826 94.664-120.502c27.953-32.362 66.496-52.528 115.673-60.477 24.543-3.967 46.68-.755 66.434 9.617 19.76 10.375 37.172 27.932 52.223 52.715q45.278 74.55 116.007 160.525Z"/></g></svg>