<svg width="1145" height="967" viewBox="0 0 1145 967" fill="none" xmlns="http://www.w3.org/2000/svg">
<g opacity="0.4">
<path d="M744.604 824.046C752.216 817.045 760.176 809.976 768.26 802.797C794.37 779.609 821.769 755.277 842.873 728.42C870.493 693.27 887.253 653.884 876.176 607.216C865.422 561.906 830.158 538.688 788.443 519.395C778.018 514.573 767.199 510.001 756.265 505.39L755.494 505.064C744.815 500.561 734.035 496.015 723.427 491.162C701.7 481.225 680.671 469.994 662.662 455.184C642.92 438.949 626.034 417.738 610.336 395.111C602.485 383.796 594.928 372.12 587.459 360.531C586.967 359.768 586.476 359.005 585.985 358.243C579.015 347.427 572.111 336.711 565.098 326.449C535.042 282.47 503.132 247.058 456.047 247.929C405.809 248.858 359.886 277.511 325.052 319.119C290.221 360.725 266.528 415.23 260.736 467.738C255.738 513.042 278.704 550.557 308.987 587.149C318.127 598.193 327.912 609.13 337.787 620.167C344.28 627.424 350.811 634.723 357.223 642.126C373.373 660.768 388.731 680.023 400.668 700.734C412.114 720.593 420.603 742.98 428.176 765.824C431.177 774.877 434.032 783.995 436.869 793.057C441.199 806.885 445.488 820.584 450.195 833.729C465.773 877.235 485.807 914.302 526.479 928.865C568.81 944.023 607.576 932.333 643.669 909.57C673.091 891.015 700.674 865.144 726.909 840.537C732.875 834.941 738.771 829.41 744.604 824.046Z" stroke="#00F0B5"/>
<path d="M707.841 768.321C713.837 762.806 720.107 757.238 726.473 751.585C747.029 733.33 768.591 714.181 785.201 693.043C806.936 665.382 820.114 634.403 811.403 597.703C802.948 562.08 775.225 543.818 742.387 528.63C734.18 524.835 725.663 521.235 717.055 517.604L716.444 517.347C708.038 513.802 699.549 510.222 691.196 506.401C674.087 498.576 657.52 489.728 643.33 478.059C627.775 465.267 614.473 448.557 602.111 430.739C595.929 421.829 589.978 412.635 584.097 403.51C583.71 402.91 583.324 402.309 582.937 401.71C577.45 393.193 572.014 384.757 566.493 376.678C542.827 342.049 517.733 314.219 480.724 314.903C441.211 315.634 405.08 338.171 377.666 370.917C350.255 403.659 331.609 446.554 327.051 487.875C323.121 523.499 341.178 553.007 365.017 581.814C372.213 590.508 379.914 599.116 387.688 607.804C392.8 613.517 397.943 619.266 402.994 625.097C415.711 639.777 427.809 654.943 437.212 671.259C446.229 686.904 452.916 704.538 458.879 722.526C461.243 729.658 463.491 736.838 465.725 743.973C469.134 754.858 472.51 765.64 476.215 775.988C488.479 810.239 504.239 839.379 536.211 850.828C569.496 862.747 599.983 853.559 628.386 835.646C651.542 821.043 673.249 800.682 693.905 781.308C698.604 776.902 703.247 772.546 707.841 768.321Z" stroke="#00F0B5"/>
<path d="M681.284 728.058C686.113 723.617 691.161 719.134 696.286 714.583C712.829 699.891 730.174 684.488 743.536 667.482C761.02 645.232 771.609 620.328 764.607 590.829C757.813 562.205 735.54 547.524 709.114 535.302C702.511 532.249 695.658 529.352 688.729 526.43L688.241 526.224C681.474 523.37 674.64 520.488 667.914 517.412C654.141 511.112 640.798 503.987 629.368 494.587C616.838 484.283 606.125 470.825 596.174 456.482C591.197 449.309 586.407 441.908 581.673 434.564C581.362 434.081 581.051 433.598 580.74 433.116C576.323 426.26 571.949 419.471 567.506 412.97C548.457 385.097 528.288 362.744 498.559 363.294C466.795 363.882 437.739 381.999 415.686 408.341C393.636 434.68 378.637 469.187 374.97 502.424C371.812 531.055 386.321 554.777 405.506 577.959C411.296 584.955 417.492 591.88 423.747 598.871C427.862 603.47 432.002 608.097 436.07 612.793C446.306 624.61 456.048 636.822 463.621 649.962C470.883 662.563 476.268 676.763 481.067 691.242C482.971 696.986 484.781 702.766 486.579 708.509C489.322 717.268 492.038 725.941 495.019 734.269C504.89 761.833 517.561 785.246 543.248 794.444C569.997 804.023 594.502 796.643 617.348 782.235C635.977 770.487 653.44 754.107 670.064 738.515C673.846 734.967 677.585 731.461 681.284 728.058Z" stroke="#00F0B5"/>
</g>
</svg>
