<svg xmlns="http://www.w3.org/2000/svg" width="891" height="889" fill="none"><g stroke="#00F0B5" opacity=".4"><path d="M242.3 250.434c-5.309 7.252-10.902 14.622-16.582 22.105-18.342 24.165-37.586 49.518-51.04 75.962-17.607 34.608-25.242 70.981-7.942 108.864 16.794 36.774 50.738 50.61 89.542 60.017 9.698 2.351 19.689 4.423 29.785 6.509l.72.149c9.859 2.037 19.812 4.093 29.671 6.439 20.195 4.806 40.019 10.834 57.874 20.423 19.572 10.512 37.547 25.747 54.744 42.386 8.6 8.321 17.011 16.998 25.332 25.616l1.64 1.698c7.765 8.045 15.457 16.014 23.165 23.578 33.036 32.416 66.181 57.189 106.127 48.513 42.637-9.259 76.932-41.408 99.597-82.736 22.664-41.324 33.662-91.763 29.744-137.479-3.378-39.428-29.261-67.515-61.24-93.593-9.652-7.871-19.834-15.54-30.111-23.281-6.758-5.09-13.556-10.21-20.272-15.439-16.909-13.167-33.251-26.991-46.922-42.634-13.109-15.001-24.123-32.654-34.43-50.848-4.086-7.212-8.057-14.503-12.004-21.748-6.022-11.054-11.987-22.004-18.215-32.413-20.614-34.451-43.927-62.64-81.016-68.188-38.606-5.775-69.656 10.712-96.572 36.193-21.941 20.772-41.083 47.467-59.293 72.865-4.142 5.776-8.235 11.485-12.302 17.042Z"/><path d="M283.031 291.729c-4.182 5.714-8.587 11.518-13.06 17.411-14.441 19.025-29.584 38.976-40.172 59.787-13.856 27.233-19.854 55.836-6.252 85.623 13.201 28.906 39.882 39.789 70.428 47.194 7.634 1.851 15.498 3.482 23.448 5.124l.565.117c7.762 1.604 15.601 3.223 23.366 5.071 15.904 3.785 31.523 8.533 45.592 16.09 15.423 8.283 29.584 20.287 43.127 33.39 6.773 6.552 13.396 13.385 19.948 20.171l1.29 1.336c6.114 6.335 12.17 12.608 18.238 18.562 26.012 25.525 52.069 44.986 83.459 38.168 33.529-7.281 60.509-32.566 78.346-65.089 17.835-32.519 26.489-72.211 23.406-108.184-2.656-30.998-23.003-53.087-48.178-73.617-7.598-6.196-15.612-12.232-23.702-18.325-5.32-4.007-10.674-8.04-15.965-12.159-13.315-10.368-26.188-21.257-36.958-33.582-10.329-11.819-19.005-25.725-27.121-40.052-3.219-5.682-6.347-11.423-9.454-17.128-4.74-8.701-9.435-17.318-14.338-25.513-16.228-27.122-34.561-49.276-63.71-53.636-30.351-4.541-54.766 8.418-75.945 28.468-17.268 16.347-32.331 37.355-46.669 57.351-3.261 4.549-6.485 9.045-9.689 13.422Z"/><path d="M312.459 321.563c-3.368 4.601-6.915 9.275-10.516 14.019-11.622 15.311-23.802 31.359-32.32 48.1-11.144 21.904-15.961 44.893-5.029 68.83 10.604 23.221 32.036 31.971 56.617 37.93 6.142 1.489 12.47 2.801 18.868 4.123l.454.094c6.248 1.291 12.559 2.595 18.81 4.082 12.804 3.047 25.384 6.871 36.719 12.959 12.425 6.674 23.831 16.342 34.733 26.89 5.452 5.275 10.784 10.776 16.057 16.237l1.04 1.077c4.92 5.098 9.793 10.146 14.675 14.937 20.938 20.545 41.875 36.168 67.081 30.693 26.949-5.853 48.645-26.178 62.992-52.339 14.346-26.156 21.307-58.084 18.827-87.017-2.134-24.907-18.482-42.664-38.74-59.184-6.115-4.986-12.561-9.842-19.071-14.744-4.282-3.226-8.592-6.472-12.853-9.79-10.719-8.346-21.085-17.114-29.76-27.041-8.32-9.52-15.306-20.72-21.84-32.252-2.592-4.576-5.11-9.198-7.611-13.79-3.815-7.001-7.591-13.933-11.536-20.527-13.06-21.827-27.795-39.621-51.207-43.123-24.386-3.648-44.008 6.761-61.042 22.887-13.89 13.15-26.007 30.049-37.547 46.142a1355 1355 0 0 1-7.801 10.807Z"/></g></svg>