<svg width="468" height="469" viewBox="0 0 468 469" fill="none" xmlns="http://www.w3.org/2000/svg">
<g opacity="0.4">
<path d="M83.5082 337.458C57.8868 327.045 41.2207 314.102 33.3799 298.681C25.5515 283.283 26.4668 265.304 36.2551 244.676C55.9112 203.253 76.0913 167.043 96.7941 136.043C117.433 105.14 150.352 82.9273 195.612 69.4365C240.787 55.9714 286.088 64.5102 331.551 95.1257C354.286 110.435 370.552 127.38 380.387 145.95C390.218 164.514 393.635 184.729 390.632 206.612C384.599 250.565 378.14 288.19 371.255 319.49C364.396 350.674 346.255 377.626 316.785 400.346C302.087 411.677 286.425 417.438 269.789 417.657C253.146 417.876 235.487 412.549 216.803 401.633C179.299 379.721 134.867 358.33 83.5082 337.458Z" stroke="#00F0B5"/>
<path d="M111.88 317.918C91.0802 309.461 77.5663 298.961 71.2087 286.469C64.8635 274.002 65.5929 259.44 73.5261 242.717C89.4721 209.103 105.845 179.722 122.643 154.571C139.376 129.516 166.079 111.507 202.813 100.577C239.461 89.6717 276.221 96.6096 313.131 121.464C331.589 133.892 344.792 147.642 352.775 162.702C360.755 177.755 363.534 194.145 361.105 211.888C356.221 247.562 350.989 278.098 345.41 303.5C339.856 328.784 325.149 350.637 301.24 369.058C289.323 378.24 276.626 382.902 263.139 383.074C249.646 383.246 235.321 378.923 220.156 370.062C189.689 352.26 153.596 334.879 111.88 317.918Z" stroke="#00F0B5"/>
<path d="M129.328 305.947C111.5 298.699 99.9317 289.705 94.4918 279.016C89.0643 268.352 89.6839 255.891 96.4796 241.565C110.151 212.746 124.187 187.557 138.588 165.996C152.924 144.53 175.804 129.098 207.289 119.729C238.688 110.386 270.185 116.328 301.818 137.629C317.637 148.28 328.948 160.061 335.786 172.961C342.621 185.855 345.001 199.892 342.92 215.092C338.733 245.678 334.248 271.858 329.464 293.635C324.707 315.296 312.107 334.019 291.618 349.805C281.411 357.669 270.539 361.661 258.992 361.808C247.439 361.955 235.17 358.254 222.175 350.661C196.048 335.395 165.098 320.491 129.328 305.947Z" stroke="#00F0B5"/>
</g>
</svg>
