<svg xmlns="http://www.w3.org/2000/svg" width="417" height="484" fill="none"><g fill="#00F0B5" opacity=".3"><path d="M373.045 483.385c-11.093 0-22.186-4.16-30.612-12.586L25.438 153.804c-16.852-16.852-16.852-44.264 0-61.116 8.213-8.213 19.092-12.693 30.612-12.693s22.398 4.48 30.611 12.693l316.995 316.995c8.213 8.213 12.693 18.985 12.693 30.611 0 11.52-4.48 22.399-12.693 30.612-8.533 8.319-19.519 12.479-30.611 12.479M56.05 82.128c-10.986 0-21.332 4.267-29.012 12.053-16 15.999-16 42.131 0 58.13l316.995 316.995c15.999 15.999 42.131 15.999 58.13 0 7.786-7.786 12.053-18.132 12.053-29.012 0-10.986-4.267-21.332-12.053-29.011L85.061 94.181c-7.68-7.786-18.025-12.053-29.011-12.053"/><path d="M360.246 403.39c-11.093 0-22.185-4.16-30.612-12.586L12.639 73.809c-16.852-16.852-16.852-44.264 0-61.116C20.852 4.48 31.732 0 43.251 0 54.77 0 65.65 4.48 73.862 12.693l316.996 316.995c8.212 8.213 12.692 18.985 12.692 30.611 0 11.52-4.48 22.399-12.692 30.612-8.533 8.319-19.519 12.479-30.612 12.479M43.251 2.133c-10.986 0-21.332 4.267-29.012 12.053-15.999 15.999-15.999 42.13 0 58.13L331.234 389.31c15.999 15.999 42.131 15.999 58.13 0 7.786-7.786 12.053-18.132 12.053-29.012 0-10.986-4.267-21.332-12.053-29.011L72.263 14.186C64.582 6.4 54.236 2.133 43.25 2.133"/></g></svg>