<svg xmlns="http://www.w3.org/2000/svg" width="595" height="620" fill="none"><path fill="url(#a)" d="M282.89 490.069c-9.862 9.856-25.935 9.856-35.797 0L56.77 299.878c-9.862-9.855-9.862-25.918 0-35.773s25.935-9.855 35.797 0L282.89 454.297c9.862 9.919 9.862 25.917 0 35.772" opacity=".1"/><path fill="url(#b)" d="M439.081 556.686c-17.611 17.599-46.172 17.599-63.718 0L36.405 217.964c-17.61-17.598-17.61-46.14 0-63.674 17.61-17.599 46.172-17.599 63.719 0l338.957 338.722c17.611 17.534 17.611 46.076 0 63.674" opacity=".1"/><g opacity=".4"><path fill="#00F0B5" d="M418.398 553.744c-11.719 0-23.438-4.48-32.339-13.375L47.165 201.647c-8.645-8.639-13.384-20.094-13.384-32.317s4.74-23.678 13.384-32.317c8.646-8.64 20.109-13.375 32.34-13.375s23.694 4.735 32.34 13.375l338.957 338.722c17.803 17.79 17.803 46.78 0 64.634a45.9 45.9 0 0 1-32.404 13.375M79.505 124.918c-11.847 0-23.054 4.607-31.443 12.99-8.39 8.384-13 19.519-13 31.422 0 11.839 4.61 23.038 13 31.421l338.957 338.722c8.389 8.384 19.532 12.991 31.443 12.991s23.054-4.607 31.443-12.991c17.355-17.342 17.355-45.5 0-62.778L110.884 137.972c-8.389-8.447-19.532-13.054-31.38-13.054" opacity=".36"/></g><path fill="url(#c)" d="M543.274 578.51c-17.611 17.598-46.172 17.598-63.718 0L140.534 239.787c-17.61-17.598-17.61-46.14 0-63.674 17.611-17.599 46.172-17.599 63.719 0l339.021 338.722c17.611 17.535 17.611 46.076 0 63.675" opacity=".1"/><path fill="url(#d)" d="M570.105 472.215c-17.611 17.598-46.172 17.598-63.719 0L167.429 133.492c-17.611-17.598-17.611-46.14 0-63.674 17.61-17.598 46.172-17.598 63.718 0L570.105 408.54c17.61 17.535 17.61 46.076 0 63.675" opacity=".1"/><path fill="url(#e)" d="M584 537.106c-14.665 14.655-38.423 14.655-53.088 0L248.565 254.955c-14.665-14.655-14.665-38.397 0-53.052s38.423-14.655 53.088 0L584 484.054c14.665 14.655 14.665 38.397 0 53.052" opacity=".1"/><path fill="url(#f)" d="M473.279 327.779c-9.862 9.856-25.936 9.856-35.798 0L247.158 137.588c-9.862-9.855-9.862-25.918 0-35.773s25.936-9.855 35.798 0l190.323 190.192c9.862 9.919 9.862 25.917 0 35.772" opacity=".1"/><g opacity=".4"><path fill="#00F0B5" d="M487.303 322.404c-6.66 0-13.32-2.496-18.379-7.552L278.665 124.661c-10.118-10.111-10.118-26.558 0-36.669 4.931-4.927 11.399-7.615 18.379-7.615s13.448 2.688 18.379 7.615l190.323 190.192c4.931 4.927 7.621 11.391 7.621 18.366 0 6.911-2.69 13.439-7.621 18.366-5.123 4.928-11.783 7.488-18.443 7.488M296.98 81.657c-6.596 0-12.808 2.56-17.419 7.231-9.606 9.6-9.606 25.278 0 34.877l190.324 190.191c9.605 9.6 25.295 9.6 34.901 0 4.675-4.671 7.236-10.879 7.236-17.406 0-6.591-2.561-12.799-7.236-17.406L314.462 88.952c-4.674-4.735-10.886-7.295-17.482-7.295" opacity=".36"/></g><g opacity=".4"><path fill="#00F0B5" d="M216.291 492.5c-6.916 0-13.448-2.687-18.379-7.615L7.589 294.758c-10.119-10.111-10.119-26.558 0-36.669 4.93-4.928 11.399-7.615 18.379-7.615 6.916 0 13.448 2.687 18.379 7.615L234.606 448.28c10.118 10.111 10.118 26.558 0 36.669-4.867 4.864-11.399 7.551-18.315 7.551M25.968 251.754c-6.596 0-12.808 2.559-17.419 7.231-9.606 9.599-9.606 25.278 0 34.877l190.323 190.191c4.675 4.672 10.887 7.232 17.419 7.232 6.596 0 12.808-2.56 17.419-7.232 9.605-9.599 9.605-25.278 0-34.877L43.386 258.985c-4.61-4.672-10.822-7.231-17.418-7.231" opacity=".36"/></g><g opacity=".4"><path fill="#00F0B5" d="M538.277 619.21c-12.232 0-23.695-4.736-32.34-13.375L166.98 267.113c-8.645-8.64-13.384-20.095-13.384-32.317s4.739-23.678 13.384-32.318 20.108-13.374 32.339-13.374c12.232 0 23.695 4.735 32.34 13.374l338.957 338.723C579.261 549.84 584 561.295 584 573.518s-4.739 23.678-13.384 32.317l-.448-.448.448.448c-8.645 8.639-20.172 13.375-32.339 13.375M199.319 190.383c-11.847 0-23.054 4.608-31.443 12.991-8.389 8.384-13 19.519-13 31.422 0 11.838 4.611 23.037 13 31.421l338.958 338.722c17.354 17.343 45.531 17.343 62.822 0 8.389-8.383 13-19.518 13-31.421 0-11.839-4.611-23.038-13-31.421L230.762 203.438c-8.389-8.383-19.595-13.055-31.443-13.055" opacity=".36"/></g><g opacity=".4"><path fill="#00F0B5" d="M522.587 430.042c-11.719 0-23.438-4.479-32.339-13.375L151.29 78.009c-8.645-8.64-13.384-20.094-13.384-32.317s4.739-23.678 13.384-32.317C159.936 4.735 171.399 0 183.63 0s23.694 4.736 32.34 13.375l338.957 338.722c17.803 17.791 17.803 46.78 0 64.635-8.902 8.831-20.621 13.31-32.34 13.31M183.63 1.28c-11.847 0-23.054 4.607-31.443 12.99-8.389 8.384-13 19.519-13 31.422 0 11.839 4.611 23.038 13 31.421l338.957 338.723c17.355 17.342 45.532 17.342 62.822 0l.448.448-.448-.448c17.355-17.343 17.355-45.5 0-62.779L215.073 14.271C206.684 5.887 195.477 1.28 183.63 1.28" opacity=".36"/></g><defs><linearGradient id="a" x1="279.891" x2="169.496" y1="226.636" y2="451.534" gradientUnits="userSpaceOnUse"><stop stop-color="#F4F5F7" stop-opacity="0"/><stop offset="1" stop-color="#F4F5F7"/></linearGradient><linearGradient id="b" x1="433.772" x2="237.148" y1="87.52" y2="488.084" gradientUnits="userSpaceOnUse"><stop stop-color="#F4F5F7" stop-opacity="0"/><stop offset="1" stop-color="#F4F5F7"/></linearGradient><linearGradient id="c" x1="537.962" x2="341.356" y1="109.343" y2="509.931" gradientUnits="userSpaceOnUse"><stop stop-color="#F4F5F7" stop-opacity="0"/><stop offset="1" stop-color="#F4F5F7"/></linearGradient><linearGradient id="d" x1="564.796" x2="368.171" y1="3.048" y2="403.613" gradientUnits="userSpaceOnUse"><stop stop-color="#F4F5F7" stop-opacity="0"/><stop offset="1" stop-color="#F4F5F7"/></linearGradient><linearGradient id="e" x1="579.574" x2="415.787" y1="146.287" y2="479.957" gradientUnits="userSpaceOnUse"><stop stop-color="#F4F5F7" stop-opacity="0"/><stop offset="1" stop-color="#F4F5F7"/></linearGradient><linearGradient id="f" x1="470.279" x2="359.884" y1="64.346" y2="289.243" gradientUnits="userSpaceOnUse"><stop stop-color="#F4F5F7" stop-opacity="0"/><stop offset="1" stop-color="#F4F5F7"/></linearGradient></defs></svg>