<svg xmlns="http://www.w3.org/2000/svg" width="40" height="40" fill="none"><path fill="#7772F1" fill-rule="evenodd" d="M36.538 17.612a12.9 12.9 0 0 1-1.633 4.645q.093.534.094 1.077c0 1.255-.363 2.455-1.037 3.546-.336.545-.422 1.183-.456 1.605-.038.483-.025 1.011.01 1.52.038.57.108 1.167.189 1.732-.651-.19-1.356-.38-2.029-.532a15 15 0 0 0-1.651-.288c-.453-.047-1.106-.083-1.691.106a13.6 13.6 0 0 1-4.168.644c-1.763 0-3.383-.313-4.802-.857q-.512.024-1.032.024c-2.007 0-3.94-.264-5.747-.752 2.628 3.04 6.96 4.918 11.58 4.918 1.806 0 3.538-.277 5.135-.786h.015c.041 0 .155-.003.367.019.335.034.765.111 1.26.223.988.223 2.097.552 2.962.826 1.833.582 3.61-1.018 3.282-2.879-.14-.8-.287-1.778-.345-2.624a7.4 7.4 0 0 1-.012-1.032c.009-.106.02-.173.026-.209.938-1.553 1.478-3.321 1.478-5.204 0-2.123-.66-4.061-1.795-5.722" clip-rule="evenodd"/><path fill="#7772F1" fill-rule="evenodd" d="M9.328 9.497c-2.247 1.718-3.495 3.973-3.495 6.336 0 1.178.306 2.313.882 3.369.22.402.281.816.304 1.097.024.306.012.62-.015.915-.053.589-.18 1.256-.333 1.913a39 39 0 0 1-.639 2.359c.88-.32 1.843-.648 2.755-.914a18 18 0 0 1 2.145-.507c.57-.09 1.4-.179 2.112.068 1.6.554 3.391.867 5.289.867 3.578 0 6.757-1.111 9.005-2.83 2.246-1.719 3.495-3.974 3.495-6.337s-1.249-4.618-3.495-6.336c-2.248-1.72-5.427-2.83-9.005-2.83s-6.757 1.11-9.005 2.83M7.303 6.849c2.88-2.202 6.784-3.516 11.03-3.516s8.15 1.314 11.03 3.516 4.803 5.364 4.803 8.984-1.923 6.781-4.804 8.984c-2.879 2.202-6.784 3.516-11.03 3.516-2.238 0-4.376-.365-6.317-1.029-.002.006-.16-.01-.562.054-.465.073-1.058.217-1.732.414-1.343.392-2.85.946-3.998 1.393-1.99.774-4.016-1.137-3.346-3.172.355-1.079.774-2.442 1.047-3.619.138-.593.227-1.091.26-1.46a3 3 0 0 0 .014-.285A10.3 10.3 0 0 1 2.5 15.833c0-3.62 1.923-6.781 4.804-8.984" clip-rule="evenodd"/></svg>