<svg xmlns="http://www.w3.org/2000/svg" width="48" height="48" fill="none"><g fill="#7772F1" clip-path="url(#a)"><path d="M28.553 12.378h-.386a5.56 5.56 0 0 0 1.413-3.706V5.58A5.59 5.59 0 0 0 24 0a5.59 5.59 0 0 0-5.582 5.581v3.091c0 1.42.535 2.72 1.413 3.706h-.386a6.945 6.945 0 0 0-6.937 6.937V24c0 .518.42.938.937.938h21.108c.518 0 .938-.42.938-.938v-4.685a6.945 6.945 0 0 0-6.938-6.937M24 1.875a3.71 3.71 0 0 1 3.667 3.163l-1.654-.972a.94.94 0 0 0-1.194.206 4.15 4.15 0 0 1-3.192 1.49h-1.333v-.18A3.71 3.71 0 0 1 24 1.874m-3.706 5.762h1.333a6.02 6.02 0 0 0 4.073-1.58l2.006 1.179v1.436A3.71 3.71 0 0 1 24 12.378a3.71 3.71 0 0 1-3.706-3.706zm13.323 15.426H14.383v-3.748a5.07 5.07 0 0 1 5.062-5.062h3.617v1.872a.938.938 0 0 0 1.875 0v-1.872h3.616a5.07 5.07 0 0 1 5.063 5.062zM14.438 37.393h-1.294a4.34 4.34 0 0 0 .783-2.49v-.856a4.37 4.37 0 0 0-4.364-4.364 4.37 4.37 0 0 0-4.365 4.364v.857c0 .924.29 1.782.783 2.489H4.688A4.693 4.693 0 0 0 0 42.08v4.982c0 .518.42.938.938.938h17.25c.517 0 .937-.42.937-.938V42.08a4.693 4.693 0 0 0-4.687-4.687m-7.365-3.346a2.49 2.49 0 0 1 2.49-2.49 2.49 2.49 0 0 1 2.489 2.49v.857a2.49 2.49 0 0 1-2.49 2.489 2.49 2.49 0 0 1-2.489-2.49zM17.25 46.125H1.875V42.08a2.816 2.816 0 0 1 2.813-2.812h3.937v1.888a.938.938 0 0 0 1.875 0v-1.888h3.938a2.816 2.816 0 0 1 2.812 2.812zM43.313 37.393h-1.294a4.34 4.34 0 0 0 .783-2.49v-.856a4.37 4.37 0 0 0-4.364-4.364 4.37 4.37 0 0 0-4.365 4.364v.857c0 .924.29 1.782.783 2.489h-1.294a4.693 4.693 0 0 0-4.687 4.687v4.982c0 .518.42.938.938.938h17.25c.517 0 .937-.42.937-.938V42.08a4.693 4.693 0 0 0-4.687-4.687m-7.365-3.346a2.49 2.49 0 0 1 2.49-2.49 2.49 2.49 0 0 1 2.489 2.49v.857a2.49 2.49 0 0 1-2.49 2.489 2.49 2.49 0 0 1-2.489-2.49zm10.177 12.078H30.75V42.08a2.816 2.816 0 0 1 2.813-2.812H37.5v1.888a.938.938 0 0 0 1.875 0v-1.888h3.938a2.816 2.816 0 0 1 2.812 2.812zM29.848 36.556l-4.91-4.91v-3.943a.938.938 0 0 0-1.875 0v3.943l-4.91 4.91a.938.938 0 0 0 1.326 1.326l4.522-4.522 4.521 4.522a.934.934 0 0 0 1.326 0 .94.94 0 0 0 0-1.326"/><path d="M24.663 19.072a.94.94 0 0 0-.663-.275c-.247 0-.488.1-.663.275a.94.94 0 0 0-.274.662c0 .247.1.489.274.663a.95.95 0 0 0 .663.275c.247 0 .488-.1.663-.275a.95.95 0 0 0 .274-.663c0-.246-.1-.488-.274-.662"/></g><defs><clipPath id="a"><path fill="#fff" d="M0 0h48v48H0z"/></clipPath></defs></svg>