<svg xmlns="http://www.w3.org/2000/svg" width="48" height="48" fill="none"><g fill="#7772F1" clip-path="url(#a)"><path d="M24 11.25c-1.84 0-3.615.383-5.277 1.14a.937.937 0 1 0 .777 1.707 10.8 10.8 0 0 1 4.5-.972c5.996 0 10.875 4.878 10.875 10.875S29.996 34.875 24 34.875 13.125 29.997 13.125 24c0-1.75.403-3.422 1.198-4.967a.938.938 0 1 0-1.667-.858A12.8 12.8 0 0 0 11.25 24c0 7.03 5.72 12.75 12.75 12.75S36.75 31.03 36.75 24 31.03 11.25 24 11.25"/><path d="M47.352 22.75a37 37 0 0 0-1.379-1.769 49 49 0 0 0-5.041-5.25c-2.478-2.213-5.013-3.98-7.534-5.25-3.18-1.605-6.343-2.418-9.398-2.418-6.906 0-13.019 4.15-16.93 7.631a48 48 0 0 0-5.044 5.248A34 34 0 0 0 .644 22.73C.076 23.523 0 23.703 0 24c0 .31.085.474.648 1.25.271.373.731.984 1.379 1.769a49 49 0 0 0 5.041 5.25c2.478 2.213 5.013 3.98 7.534 5.25 3.18 1.605 6.343 2.419 9.398 2.419 4.78 0 9.72-1.94 14.682-5.766a.937.937 0 1 0-1.145-1.485c-4.626 3.567-9.18 5.376-13.537 5.376-6.168 0-11.756-3.755-15.357-6.904-3.416-2.988-5.796-6.048-6.594-7.17.77-1.102 3.134-4.172 6.622-7.206C12.26 13.66 17.833 9.937 24 9.937c6.168 0 11.756 3.755 15.357 6.904 3.417 2.99 5.798 6.05 6.595 7.171-.529.759-1.793 2.411-3.617 4.327a.938.938 0 1 0 1.357 1.293 46 46 0 0 0 3.046-3.532C48 24.465 48 24.26 48 24c0-.31-.085-.474-.648-1.25"/><path d="M30.947 20.706a.937.937 0 0 0-1.755.167 1.687 1.687 0 0 1-3.32-.426c0-.77.52-1.442 1.264-1.634a.938.938 0 0 0 .17-1.754A7.6 7.6 0 0 0 24 16.312c-4.239 0-7.687 3.45-7.687 7.688 0 4.239 3.448 7.688 7.687 7.688s7.688-3.45 7.688-7.688c0-1.15-.25-2.26-.741-3.294M24 29.813A5.82 5.82 0 0 1 18.188 24a5.82 5.82 0 0 1 6.576-5.763 3.56 3.56 0 0 0-.767 2.21 3.567 3.567 0 0 0 3.562 3.563c.823 0 1.593-.282 2.205-.764q.05.373.049.754A5.82 5.82 0 0 1 24 29.813M24 0a.94.94 0 0 0-.937.938V6a.938.938 0 0 0 1.875 0V.938A.94.94 0 0 0 24 0M40.064 2.759a.94.94 0 0 0-1.326 0L34.296 7.2a.938.938 0 0 0 1.326 1.326l4.442-4.442a.94.94 0 0 0 0-1.326M13.707 7.201 9.264 2.759A.938.938 0 0 0 7.94 4.085l4.442 4.442a.935.935 0 0 0 1.326 0 .94.94 0 0 0 0-1.326M24 41.063a.94.94 0 0 0-.937.937v5.063a.938.938 0 0 0 1.875 0V42a.94.94 0 0 0-.938-.937M13.707 39.473a.94.94 0 0 0-1.326 0l-4.442 4.442a.938.938 0 0 0 1.325 1.326l4.443-4.442a.94.94 0 0 0 0-1.326M40.064 43.915l-4.442-4.442a.938.938 0 0 0-1.326 1.326l4.442 4.442a.935.935 0 0 0 1.326 0 .94.94 0 0 0 0-1.326M16.534 14.767a.94.94 0 0 0-.663-.275c-.247 0-.488.1-.663.275a.94.94 0 0 0-.274.663c0 .246.1.488.274.662a.94.94 0 0 0 .663.275c.247 0 .489-.1.663-.275a.94.94 0 0 0 .275-.662c0-.247-.1-.489-.275-.663M41.329 30.62a.94.94 0 0 0-.663-.274c-.246 0-.488.1-.663.273a.95.95 0 0 0-.275.664c0 .247.1.488.275.663a.94.94 0 0 0 .663.275c.247 0 .489-.1.663-.275a.95.95 0 0 0 .274-.663c0-.247-.1-.49-.274-.664"/></g><defs><clipPath id="a"><path fill="#fff" d="M0 0h48v48H0z"/></clipPath></defs></svg>