<svg xmlns="http://www.w3.org/2000/svg" width="705" height="453" fill="none"><rect width="705" height="453" fill="#fff" rx="4"/><rect width="705" height="453" stroke="#E5E8ED" rx="4"/><g stroke="#B3B7BC" stroke-linecap="square" clip-path="url(#a)"><g stroke-dasharray="2 2 2 2" stroke-width=".5" clip-path="url(#b)" opacity=".5"><path d="M60 145.241h620.786M60 193.746h620.786M60 242.253h620.786M60 290.76h620.786M60 339.267h620.786" opacity=".756"/></g><path d="M58 109v278M58 387.5h622.536"/></g><g fill-rule="evenodd" clip-path="url(#c)" clip-rule="evenodd"><path fill="#7772F1" d="M117 235h40v152h-40z"/><path fill="#00F0B5" d="M159 210h40v177h-40z"/></g><g fill-rule="evenodd" clip-path="url(#d)" clip-rule="evenodd"><path fill="#7772F1" d="M543 240h40v147h-40z"/><path fill="#00F0B5" d="M585 201h40v186h-40z"/></g><g fill-rule="evenodd" clip-path="url(#e)" clip-rule="evenodd"><path fill="#7772F1" d="M401 294h40v93h-40z"/><path fill="#00F0B5" d="M443 170h40v217h-40z"/></g><g fill-rule="evenodd" clip-path="url(#f)" clip-rule="evenodd"><path fill="#7772F1" d="M259 267h40v120h-40z"/><path fill="#00F0B5" d="M301 349h40v38h-40z"/></g><path fill="#424551" d="M120.968 407.045V411h-1.883v-10.122h3.087q1.036 0 1.771.217.742.21 1.211.595.475.385.693.924.224.533.224 1.176 0 .512-.154.966a2.7 2.7 0 0 1-.434.826q-.28.37-.7.651a3.6 3.6 0 0 1-.945.448q.357.203.616.581l2.534 3.738h-1.694a.85.85 0 0 1-.42-.098.86.86 0 0 1-.287-.28l-2.128-3.241a.73.73 0 0 0-.266-.259q-.14-.077-.42-.077zm0-1.351h1.176q.532 0 .924-.133.399-.133.651-.364.26-.238.385-.56.126-.322.126-.707 0-.77-.511-1.183-.504-.413-1.547-.413h-1.204zm10.098-1.988q.678 0 1.246.217.573.217.987.637.413.413.644 1.022a3.8 3.8 0 0 1 .21 1.708.5.5 0 0 1-.063.203.26.26 0 0 1-.119.105.6.6 0 0 1-.196.028h-4.438q.076 1.106.595 1.624.517.518 1.372.518.42 0 .721-.098.307-.098.532-.217.231-.119.399-.217a.7.7 0 0 1 .336-.098q.105 0 .182.042a.4.4 0 0 1 .133.119l.504.63a3 3 0 0 1-.644.567 4 4 0 0 1-.749.364 4 4 0 0 1-.791.189 6 6 0 0 1-.777.056q-.75 0-1.393-.245a3.2 3.2 0 0 1-1.12-.735 3.5 3.5 0 0 1-.749-1.204q-.273-.721-.273-1.666 0-.735.238-1.379.238-.651.679-1.127a3.2 3.2 0 0 1 1.085-.763q.643-.28 1.449-.28m.035 1.239q-.756 0-1.183.427t-.546 1.211h3.248q0-.336-.091-.63a1.5 1.5 0 0 0-.28-.525 1.3 1.3 0 0 0-.476-.35 1.6 1.6 0 0 0-.672-.133m7.841 6.055h-1.568l-2.856-7.182h1.435q.189 0 .315.091a.46.46 0 0 1 .182.231l1.386 3.836q.119.336.196.658.084.322.147.644.063-.322.14-.644.084-.322.21-.658l1.421-3.836a.48.48 0 0 1 .175-.231.5.5 0 0 1 .301-.091h1.365zm6.602-7.294q.68 0 1.246.217.575.217.987.637.413.413.644 1.022a3.8 3.8 0 0 1 .21 1.708.5.5 0 0 1-.063.203.25.25 0 0 1-.119.105.6.6 0 0 1-.196.028h-4.438q.078 1.106.595 1.624.519.518 1.372.518.42 0 .721-.098.309-.098.532-.217.231-.119.399-.217a.7.7 0 0 1 .336-.098q.105 0 .182.042a.4.4 0 0 1 .133.119l.504.63a3 3 0 0 1-.644.567 3.8 3.8 0 0 1-1.54.553 6 6 0 0 1-.777.056q-.748 0-1.393-.245a3.2 3.2 0 0 1-1.12-.735 3.5 3.5 0 0 1-.749-1.204q-.273-.721-.273-1.666 0-.735.238-1.379a3.3 3.3 0 0 1 .679-1.127 3.25 3.25 0 0 1 1.085-.763q.645-.28 1.449-.28m.035 1.239q-.756 0-1.183.427-.426.427-.546 1.211h3.248q0-.336-.091-.63a1.4 1.4 0 0 0-.28-.525 1.3 1.3 0 0 0-.476-.35 1.6 1.6 0 0 0-.672-.133m4.476 6.055v-7.182h1.057q.336 0 .441.315l.119.567q.217-.224.455-.406a3.5 3.5 0 0 1 .511-.315q.273-.133.581-.203t.672-.07q.588 0 1.043.203.455.196.756.56.308.357.462.861.16.497.161 1.099V411h-1.729v-4.571q0-.658-.308-1.015-.301-.364-.91-.364-.448 0-.84.203a3 3 0 0 0-.742.553V411zm9.539-7.182v4.564q0 .658.301 1.022.308.357.917.357.449 0 .84-.196a3 3 0 0 0 .742-.553v-5.194h1.729V411h-1.057q-.336 0-.441-.315l-.119-.574a5 5 0 0 1-.462.413 3 3 0 0 1-.511.315 2.8 2.8 0 0 1-.581.196 2.8 2.8 0 0 1-.665.077q-.588 0-1.043-.196a2.1 2.1 0 0 1-.756-.567 2.5 2.5 0 0 1-.469-.861 3.8 3.8 0 0 1-.154-1.106v-4.564zm9.343-.112q.68 0 1.246.217.575.217.987.637.413.413.644 1.022a3.8 3.8 0 0 1 .21 1.708.5.5 0 0 1-.063.203.26.26 0 0 1-.119.105.6.6 0 0 1-.196.028h-4.438q.077 1.106.595 1.624t1.372.518q.42 0 .721-.098a3 3 0 0 0 .532-.217q.231-.119.399-.217a.7.7 0 0 1 .336-.098q.105 0 .182.042a.4.4 0 0 1 .133.119l.504.63a3 3 0 0 1-.644.567 4 4 0 0 1-.749.364q-.385.134-.791.189a6 6 0 0 1-.777.056q-.749 0-1.393-.245a3.2 3.2 0 0 1-1.12-.735 3.5 3.5 0 0 1-.749-1.204q-.273-.721-.273-1.666 0-.735.238-1.379a3.3 3.3 0 0 1 .679-1.127 3.2 3.2 0 0 1 1.085-.763q.644-.28 1.449-.28m.035 1.239q-.756 0-1.183.427t-.546 1.211h3.248q0-.336-.091-.63a1.5 1.5 0 0 0-.28-.525 1.3 1.3 0 0 0-.476-.35 1.6 1.6 0 0 0-.672-.133M266.406 400.878v1.498h-4.487v2.807h3.535v1.449h-3.535v2.863h4.487V411h-6.384v-10.122zm1.53 10.122v-7.182h1.057q.336 0 .441.315l.112.532q.188-.21.392-.385a2.343 2.343 0 0 1 1.54-.574q.678 0 1.113.371.44.364.658.973a2.1 2.1 0 0 1 .42-.609 2.2 2.2 0 0 1 .553-.42q.3-.161.637-.238.342-.077.686-.077.594 0 1.057.182t.777.532.476.854q.168.504.168 1.155V411h-1.729v-4.571q0-.685-.301-1.029-.301-.35-.882-.35-.267 0-.497.091-.225.091-.399.266a1.2 1.2 0 0 0-.266.427 1.7 1.7 0 0 0-.098.595V411h-1.736v-4.571q0-.721-.294-1.05-.288-.329-.854-.329a1.4 1.4 0 0 0-.7.189 2.3 2.3 0 0 0-.602.504V411zm17.413 0h-.777a.9.9 0 0 1-.385-.07q-.14-.077-.21-.301l-.154-.511a6 6 0 0 1-.539.434 3.3 3.3 0 0 1-.539.308 2.8 2.8 0 0 1-.595.189q-.315.063-.7.063-.454 0-.84-.119a1.9 1.9 0 0 1-.665-.371 1.7 1.7 0 0 1-.427-.609 2.2 2.2 0 0 1-.154-.847q0-.406.21-.798.217-.399.714-.714.497-.322 1.323-.532t2.051-.238v-.42q0-.721-.308-1.064-.302-.35-.882-.35-.42 0-.7.098t-.49.224q-.202.119-.378.217a.8.8 0 0 1-.385.098.5.5 0 0 1-.301-.091.7.7 0 0 1-.203-.224l-.315-.553q1.239-1.134 2.989-1.134.63 0 1.12.21.497.203.84.574.343.364.518.875.182.511.182 1.12zm-3.36-1.078q.266 0 .49-.049.224-.05.42-.147.203-.098.385-.238.189-.147.378-.343v-1.211a9 9 0 0 0-1.267.133q-.504.091-.812.238-.307.147-.441.343a.78.78 0 0 0-.126.427q0 .454.266.651.273.196.707.196m6.901-6.104V411h-1.729v-7.182zm.259-2.093q0 .223-.091.42a1.1 1.1 0 0 1-.245.343 1.2 1.2 0 0 1-.35.238q-.203.084-.434.084-.224 0-.427-.084a1.2 1.2 0 0 1-.581-.581 1.123 1.123 0 0 1 0-.854q.091-.203.238-.35a1.1 1.1 0 0 1 .343-.231q.203-.091.427-.091.231 0 .434.091.203.084.35.231.154.147.245.35t.091.434m3.542-1.127V411h-1.729v-10.402zm6.223 4.62a.5.5 0 0 1-.147.161.4.4 0 0 1-.196.042.6.6 0 0 1-.273-.07 8 8 0 0 0-.329-.154 3 3 0 0 0-.434-.161 2 2 0 0 0-.567-.07q-.511 0-.805.217a.67.67 0 0 0-.294.567.56.56 0 0 0 .147.392q.153.155.399.273.252.119.567.217.315.091.644.203t.644.259q.315.14.56.364.252.217.399.525.153.308.154.742 0 .518-.189.959a2.15 2.15 0 0 1-.553.756q-.364.315-.903.497a3.9 3.9 0 0 1-1.225.175q-.372 0-.728-.07a3.912 3.912 0 0 1-1.281-.462 3 3 0 0 1-.483-.35l.399-.658a.6.6 0 0 1 .182-.182.5.5 0 0 1 .266-.063q.16 0 .301.091.147.091.336.196t.441.196q.258.091.651.091.308 0 .525-.07.223-.077.364-.196a.7.7 0 0 0 .21-.273.8.8 0 0 0 .07-.329.57.57 0 0 0-.154-.413 1.3 1.3 0 0 0-.399-.28 3.6 3.6 0 0 0-.567-.21q-.315-.097-.651-.21a7 7 0 0 1-.651-.259 2.4 2.4 0 0 1-.567-.385 1.8 1.8 0 0 1-.399-.567 2 2 0 0 1-.147-.812q0-.441.175-.84t.511-.693q.343-.301.847-.476a3.5 3.5 0 0 1 1.176-.182q.742 0 1.351.245a3.1 3.1 0 0 1 1.015.644zm6.396-1.4V411h-1.729v-7.182zm.259-2.093q0 .223-.091.42a1.1 1.1 0 0 1-.245.343 1.2 1.2 0 0 1-.35.238q-.203.084-.434.084-.224 0-.427-.084a1.2 1.2 0 0 1-.581-.581 1.123 1.123 0 0 1 0-.854q.091-.203.238-.35a1.1 1.1 0 0 1 .343-.231q.203-.091.427-.091.231 0 .434.091.203.084.35.231.154.147.245.35t.091.434M307.27 411v-7.182h1.057q.336 0 .441.315l.119.567a3.427 3.427 0 0 1 .966-.721q.272-.133.581-.203.307-.07.672-.07.587 0 1.043.203.455.196.756.56.308.357.462.861.16.497.161 1.099V411h-1.729v-4.571q0-.658-.308-1.015-.301-.364-.91-.364-.448 0-.84.203-.393.203-.742.553V411zm14.927-5.782a.5.5 0 0 1-.147.161.4.4 0 0 1-.196.042.6.6 0 0 1-.273-.07 8 8 0 0 0-.329-.154 3 3 0 0 0-.434-.161 2 2 0 0 0-.567-.07q-.511 0-.805.217a.67.67 0 0 0-.294.567.56.56 0 0 0 .147.392q.153.155.399.273.252.119.567.217.314.091.644.203.329.112.644.259.314.14.56.364.252.217.399.525.154.308.154.742 0 .518-.189.959a2.15 2.15 0 0 1-.553.756q-.365.315-.903.497a3.9 3.9 0 0 1-1.225.175q-.372 0-.728-.07a3.912 3.912 0 0 1-1.281-.462 3 3 0 0 1-.483-.35l.399-.658a.6.6 0 0 1 .182-.182.5.5 0 0 1 .266-.063q.16 0 .301.091.147.091.336.196t.441.196q.258.091.651.091.308 0 .525-.07.223-.077.364-.196a.7.7 0 0 0 .21-.273.8.8 0 0 0 .07-.329.57.57 0 0 0-.154-.413 1.3 1.3 0 0 0-.399-.28 3.6 3.6 0 0 0-.567-.21q-.315-.097-.651-.21a7 7 0 0 1-.651-.259 2.4 2.4 0 0 1-.567-.385 1.8 1.8 0 0 1-.399-.567 2 2 0 0 1-.147-.812q0-.441.175-.84.174-.399.511-.693.343-.301.847-.476a3.5 3.5 0 0 1 1.176-.182q.742 0 1.351.245a3.1 3.1 0 0 1 1.015.644zm1.848 8.127v-9.527h1.057q.168 0 .287.077a.36.36 0 0 1 .154.238l.14.665q.434-.497.994-.805.567-.308 1.323-.308.588 0 1.071.245.49.244.84.714.357.462.546 1.148.196.68.196 1.561 0 .805-.217 1.491a3.6 3.6 0 0 1-.623 1.19q-.399.504-.973.791-.567.28-1.274.28-.609 0-1.036-.182a2.6 2.6 0 0 1-.756-.518v2.94zm3.36-8.295q-.538 0-.924.231a2.6 2.6 0 0 0-.707.637v3.22q.294.364.637.511.35.14.749.14.392 0 .707-.147.322-.147.539-.448.224-.301.343-.756a4.4 4.4 0 0 0 .119-1.085q0-.63-.105-1.064a2 2 0 0 0-.287-.714 1.14 1.14 0 0 0-.462-.399 1.4 1.4 0 0 0-.609-.126m10.184 5.95h-.777a.9.9 0 0 1-.385-.07q-.14-.077-.21-.301l-.154-.511a6 6 0 0 1-.539.434 3.3 3.3 0 0 1-.539.308 2.8 2.8 0 0 1-.595.189q-.315.063-.7.063-.454 0-.84-.119a1.9 1.9 0 0 1-.665-.371 1.7 1.7 0 0 1-.427-.609 2.2 2.2 0 0 1-.154-.847q0-.406.21-.798.217-.399.714-.714.497-.322 1.323-.532t2.051-.238v-.42q0-.721-.308-1.064-.302-.35-.882-.35-.42 0-.7.098t-.49.224q-.202.119-.378.217a.8.8 0 0 1-.385.098.5.5 0 0 1-.301-.091.7.7 0 0 1-.203-.224l-.315-.553q1.239-1.134 2.989-1.134.63 0 1.12.21.496.203.84.574.343.364.518.875.182.511.182 1.12zm-3.36-1.078q.266 0 .49-.049.224-.05.42-.147.203-.098.385-.238.189-.147.378-.343v-1.211a9 9 0 0 0-1.267.133q-.504.091-.812.238t-.441.343a.78.78 0 0 0-.126.427q0 .454.266.651.273.196.707.196m5.06 1.078v-7.182h1.057q.336 0 .441.315l.112.532q.19-.21.392-.385a2.385 2.385 0 0 1 1.54-.574q.68 0 1.113.371.441.364.658.973a2.1 2.1 0 0 1 .42-.609q.252-.26.553-.42.301-.161.637-.238a3 3 0 0 1 .686-.077q.595 0 1.057.182t.777.532.476.854q.168.504.168 1.155V411h-1.729v-4.571q0-.685-.301-1.029-.3-.35-.882-.35-.266 0-.497.091a1.2 1.2 0 0 0-.399.266q-.167.168-.266.427a1.7 1.7 0 0 0-.098.595V411h-1.736v-4.571q0-.721-.294-1.05-.287-.329-.854-.329-.37 0-.7.189a2.3 2.3 0 0 0-.602.504V411zM408.98 408.613q.154 0 .266.119l.742.805a4.1 4.1 0 0 1-1.519 1.169q-.896.406-2.156.406-1.127 0-2.03-.385a4.5 4.5 0 0 1-1.533-1.071 4.7 4.7 0 0 1-.98-1.638 6.2 6.2 0 0 1-.336-2.079q0-1.141.378-2.086a4.8 4.8 0 0 1 1.064-1.638 4.8 4.8 0 0 1 1.638-1.064 5.6 5.6 0 0 1 2.114-.385q1.127 0 1.967.364a4.5 4.5 0 0 1 1.449.952l-.63.875a.5.5 0 0 1-.147.147.4.4 0 0 1-.238.063.55.55 0 0 1-.329-.126 3.467 3.467 0 0 0-1.085-.546q-.392-.126-1.001-.126-.714 0-1.316.252a2.9 2.9 0 0 0-1.029.707 3.3 3.3 0 0 0-.672 1.127 4.3 4.3 0 0 0-.238 1.484q0 .854.238 1.519.245.665.658 1.12t.973.7a3 3 0 0 0 1.204.238q.385 0 .693-.042.315-.042.574-.133a2.6 2.6 0 0 0 .966-.588.6.6 0 0 1 .147-.098.34.34 0 0 1 .168-.042m5.403-4.907q.805 0 1.456.259.657.26 1.12.735.462.476.714 1.162t.252 1.533q0 .854-.252 1.54a3.3 3.3 0 0 1-.714 1.169 3.1 3.1 0 0 1-1.12.742q-.651.26-1.456.259a4 4 0 0 1-1.463-.259 3.2 3.2 0 0 1-1.127-.742 3.4 3.4 0 0 1-.721-1.169 4.4 4.4 0 0 1-.252-1.54q0-.847.252-1.533.258-.686.721-1.162a3.2 3.2 0 0 1 1.127-.735 4 4 0 0 1 1.463-.259m0 6.069q.895 0 1.323-.602.434-.601.434-1.764 0-1.162-.434-1.771-.428-.609-1.323-.609-.91 0-1.344.616-.435.609-.434 1.764 0 1.155.434 1.764.433.602 1.344.602m4.891 1.225v-7.182h1.057q.336 0 .441.315l.119.567a3.427 3.427 0 0 1 .966-.721q.273-.133.581-.203t.672-.07q.587 0 1.043.203.454.196.756.56.307.357.462.861.16.497.161 1.099V411h-1.729v-4.571q0-.658-.308-1.015-.301-.364-.91-.364-.449 0-.84.203-.393.203-.742.553V411zm11.309 0h-1.568l-2.856-7.182h1.435q.189 0 .315.091a.47.47 0 0 1 .182.231l1.386 3.836q.118.336.196.658.084.322.147.644.063-.322.14-.644.084-.322.21-.658l1.421-3.836a.47.47 0 0 1 .175-.231.5.5 0 0 1 .301-.091h1.365zm6.602-7.294q.68 0 1.246.217.575.217.987.637.413.413.644 1.022a3.8 3.8 0 0 1 .21 1.708.5.5 0 0 1-.063.203.26.26 0 0 1-.119.105.6.6 0 0 1-.196.028h-4.438q.077 1.106.595 1.624t1.372.518q.42 0 .721-.098a3 3 0 0 0 .532-.217q.231-.119.399-.217a.7.7 0 0 1 .336-.098q.105 0 .182.042a.4.4 0 0 1 .133.119l.504.63a3 3 0 0 1-.644.567 4 4 0 0 1-.749.364q-.385.134-.791.189a6 6 0 0 1-.777.056q-.749 0-1.393-.245a3.2 3.2 0 0 1-1.12-.735 3.5 3.5 0 0 1-.749-1.204q-.273-.721-.273-1.666 0-.735.238-1.379a3.3 3.3 0 0 1 .679-1.127 3.2 3.2 0 0 1 1.085-.763q.644-.28 1.449-.28m.035 1.239q-.756 0-1.183.427t-.546 1.211h3.248q0-.336-.091-.63a1.5 1.5 0 0 0-.28-.525 1.3 1.3 0 0 0-.476-.35 1.6 1.6 0 0 0-.672-.133m4.475 6.055v-7.182h1.015q.267 0 .371.098.105.098.14.336l.105.868q.385-.664.903-1.05a1.9 1.9 0 0 1 1.162-.385q.532 0 .882.245l-.224 1.295q-.02.126-.091.182a.32.32 0 0 1-.189.049q-.105 0-.287-.049a2 2 0 0 0-.483-.049q-.538 0-.924.301-.384.294-.651.868V411zm9.978-5.782a.5.5 0 0 1-.147.161.4.4 0 0 1-.196.042.6.6 0 0 1-.273-.07 8 8 0 0 0-.329-.154 3 3 0 0 0-.434-.161 2 2 0 0 0-.567-.07q-.51 0-.805.217a.67.67 0 0 0-.294.567.56.56 0 0 0 .147.392q.154.155.399.273.252.119.567.217.315.091.644.203.33.112.644.259.315.14.56.364.252.217.399.525.154.308.154.742 0 .518-.189.959-.189.434-.553.756-.363.315-.903.497a3.9 3.9 0 0 1-1.225.175q-.37 0-.728-.07a4.002 4.002 0 0 1-1.281-.462 3 3 0 0 1-.483-.35l.399-.658a.6.6 0 0 1 .182-.182.5.5 0 0 1 .266-.063q.162 0 .301.091.147.091.336.196t.441.196q.26.091.651.091.309 0 .525-.07.225-.077.364-.196a.7.7 0 0 0 .21-.273.8.8 0 0 0 .07-.329.57.57 0 0 0-.154-.413 1.3 1.3 0 0 0-.399-.28 3.5 3.5 0 0 0-.567-.21q-.315-.097-.651-.21a7 7 0 0 1-.651-.259 2.4 2.4 0 0 1-.567-.385 1.8 1.8 0 0 1-.399-.567 2 2 0 0 1-.147-.812q0-.441.175-.84a2 2 0 0 1 .511-.693q.343-.301.847-.476a3.5 3.5 0 0 1 1.176-.182q.742 0 1.351.245a3 3 0 0 1 1.015.644zm3.69-1.4V411h-1.729v-7.182zm.259-2.093a1 1 0 0 1-.091.42 1.1 1.1 0 0 1-.245.343 1.2 1.2 0 0 1-.35.238q-.203.084-.434.084-.225 0-.427-.084a1.2 1.2 0 0 1-.581-.581 1.123 1.123 0 0 1 0-.854q.09-.203.238-.35a1.1 1.1 0 0 1 .343-.231q.202-.091.427-.091.23 0 .434.091.203.084.35.231.153.147.245.35.09.203.091.434m4.766 1.981a3.9 3.9 0 0 1 1.456.259q.658.26 1.12.735.462.476.714 1.162t.252 1.533q0 .854-.252 1.54a3.3 3.3 0 0 1-.714 1.169 3.1 3.1 0 0 1-1.12.742 3.9 3.9 0 0 1-1.456.259 4 4 0 0 1-1.463-.259 3.2 3.2 0 0 1-1.127-.742 3.4 3.4 0 0 1-.721-1.169 4.4 4.4 0 0 1-.252-1.54q0-.847.252-1.533a3.3 3.3 0 0 1 .721-1.162 3.2 3.2 0 0 1 1.127-.735 4 4 0 0 1 1.463-.259m0 6.069q.897 0 1.323-.602.435-.601.434-1.764 0-1.162-.434-1.771-.426-.609-1.323-.609-.909 0-1.344.616-.434.609-.434 1.764t.434 1.764q.435.602 1.344.602m4.891 1.225v-7.182h1.057q.336 0 .441.315l.119.567a4 4 0 0 1 .455-.406q.246-.182.511-.315.273-.133.581-.203.309-.07.672-.07.588 0 1.043.203.456.196.756.56.309.357.462.861.161.497.161 1.099V411h-1.729v-4.571q0-.658-.308-1.015-.3-.364-.91-.364-.447 0-.84.203-.391.203-.742.553V411zm12.221-5.782a.5.5 0 0 1-.147.161.4.4 0 0 1-.196.042.6.6 0 0 1-.273-.07 8 8 0 0 0-.329-.154 3 3 0 0 0-.434-.161 2 2 0 0 0-.567-.07q-.511 0-.805.217a.67.67 0 0 0-.294.567.56.56 0 0 0 .147.392q.153.155.399.273.252.119.567.217.314.091.644.203.329.112.644.259.315.14.56.364.252.217.399.525.153.308.154.742 0 .518-.189.959a2.15 2.15 0 0 1-.553.756q-.364.315-.903.497a3.9 3.9 0 0 1-1.225.175q-.371 0-.729-.07a3.912 3.912 0 0 1-1.28-.462 3 3 0 0 1-.483-.35l.399-.658a.6.6 0 0 1 .182-.182.5.5 0 0 1 .266-.063q.16 0 .301.091.147.091.336.196t.441.196q.258.091.651.091.308 0 .525-.07.223-.077.364-.196a.7.7 0 0 0 .21-.273.8.8 0 0 0 .07-.329.57.57 0 0 0-.154-.413 1.3 1.3 0 0 0-.399-.28 3.6 3.6 0 0 0-.567-.21q-.315-.097-.651-.21a7 7 0 0 1-.651-.259 2.4 2.4 0 0 1-.567-.385 1.8 1.8 0 0 1-.399-.567 2 2 0 0 1-.147-.812q0-.441.175-.84t.511-.693q.343-.301.847-.476a3.5 3.5 0 0 1 1.176-.182q.742 0 1.351.245a3.1 3.1 0 0 1 1.015.644zM545.968 407.045V411h-1.883v-10.122h3.087q1.036 0 1.771.217.742.21 1.211.595.476.385.693.924.224.533.224 1.176 0 .512-.154.966a2.7 2.7 0 0 1-.434.826q-.28.37-.7.651a3.6 3.6 0 0 1-.945.448q.357.203.616.581l2.534 3.738h-1.694a.85.85 0 0 1-.42-.098.86.86 0 0 1-.287-.28l-2.128-3.241a.73.73 0 0 0-.266-.259q-.14-.077-.42-.077zm0-1.351h1.176q.533 0 .924-.133.399-.133.651-.364.26-.238.385-.56.126-.322.126-.707 0-.77-.511-1.183-.504-.413-1.547-.413h-1.204zm16.595.245q0 1.113-.371 2.065a4.9 4.9 0 0 1-1.043 1.638 4.8 4.8 0 0 1-1.617 1.085q-.945.385-2.093.385a5.6 5.6 0 0 1-2.1-.385 4.8 4.8 0 0 1-1.624-1.085 4.9 4.9 0 0 1-1.043-1.638 5.7 5.7 0 0 1-.371-2.065q0-1.113.371-2.058a4.9 4.9 0 0 1 1.043-1.645 4.8 4.8 0 0 1 1.624-1.078 5.5 5.5 0 0 1 2.1-.392q1.148 0 2.093.392a4.8 4.8 0 0 1 1.617 1.085 4.8 4.8 0 0 1 1.043 1.638 5.6 5.6 0 0 1 .371 2.058m-1.932 0q0-.833-.224-1.491a3.1 3.1 0 0 0-.63-1.127 2.7 2.7 0 0 0-1.008-.707 3.4 3.4 0 0 0-1.33-.245q-.742 0-1.337.245a2.8 2.8 0 0 0-1.015.707 3.2 3.2 0 0 0-.637 1.127 4.6 4.6 0 0 0-.224 1.491q0 .833.224 1.498.224.658.637 1.12.42.455 1.015.7t1.337.245 1.33-.245a2.75 2.75 0 0 0 1.008-.7q.412-.462.63-1.12.224-.665.224-1.498m5.541 5.061h-1.89v-10.122h1.89z"/><g fill="#787A80" clip-path="url(#g)"><path d="M26.646 118.048h2.156v-6.839q0-.308.02-.623l-1.791 1.533a.6.6 0 0 1-.14.084.5.5 0 0 1-.133.021.4.4 0 0 1-.19-.042.4.4 0 0 1-.125-.112l-.392-.539 2.982-2.583h1.015v9.1h1.974V119h-5.376zm12.958-8.533a.61.61 0 0 1-.168.441q-.168.168-.567.168h-3.15l-.462 2.632a7 7 0 0 1 1.449-.168q.783 0 1.379.231.602.23 1.008.637.405.406.609.959.21.553.21 1.204 0 .798-.28 1.442a3.3 3.3 0 0 1-.77 1.106 3.35 3.35 0 0 1-1.141.7 4 4 0 0 1-1.421.245q-.44 0-.847-.091a4 4 0 0 1-.756-.231 4.5 4.5 0 0 1-.651-.336 4 4 0 0 1-.532-.399l.378-.532a.39.39 0 0 1 .336-.182q.132 0 .308.112.182.105.434.238t.588.245q.343.105.812.105.525 0 .945-.168t.714-.476q.3-.315.462-.749.16-.434.16-.973 0-.47-.14-.847a1.6 1.6 0 0 0-.412-.644 1.9 1.9 0 0 0-.686-.413 2.9 2.9 0 0 0-.966-.147q-.379 0-.784.063t-.84.203l-.784-.231.812-4.69h4.753zm8.975 4.473q0 1.316-.287 2.282-.28.959-.77 1.589t-1.162.938q-.665.308-1.428.308-.77 0-1.435-.308a3.1 3.1 0 0 1-1.148-.938q-.49-.63-.77-1.589-.28-.966-.28-2.282t.28-2.282.77-1.596a3.1 3.1 0 0 1 1.148-.945 3.4 3.4 0 0 1 1.435-.308q.764 0 1.428.308.672.307 1.162.945.49.63.77 1.596.287.966.287 2.282m-1.295 0q0-1.148-.196-1.925-.19-.784-.518-1.26-.322-.476-.75-.679a1.99 1.99 0 0 0-1.777 0q-.427.203-.75.679-.32.475-.517 1.26-.19.777-.19 1.925t.19 1.925q.195.777.518 1.253.322.476.749.686a2.05 2.05 0 0 0 1.778 0q.427-.21.749-.686.33-.476.518-1.253.196-.777.196-1.925M26.646 163.048h2.156v-6.839q0-.308.02-.623l-1.791 1.533a.6.6 0 0 1-.14.084.5.5 0 0 1-.133.021.4.4 0 0 1-.19-.042.4.4 0 0 1-.125-.112l-.392-.539 2.982-2.583h1.015v9.1h1.974V164h-5.376zm10.319-9.191q.636 0 1.19.189t.952.553q.406.357.637.875.23.517.23 1.176 0 .56-.167 1.036a4.3 4.3 0 0 1-.455.917 7 7 0 0 1-.665.847q-.37.406-.791.833l-2.64 2.702q.282-.077.568-.119.287-.05.553-.049h3.36q.202 0 .322.119t.119.308V164h-6.692v-.427a.8.8 0 0 1 .049-.273.8.8 0 0 1 .175-.259l3.213-3.227q.398-.406.728-.777.33-.378.56-.756.238-.378.364-.763.126-.392.126-.833t-.14-.77a1.5 1.5 0 0 0-.385-.553 1.6 1.6 0 0 0-.574-.322 2.2 2.2 0 0 0-.707-.112q-.379 0-.7.112a1.92 1.92 0 0 0-.994.784 1.9 1.9 0 0 0-.238.602.56.56 0 0 1-.168.294.45.45 0 0 1-.294.091h-.077q-.035-.007-.084-.014l-.651-.112q.097-.686.378-1.211.28-.532.707-.889.434-.357.987-.539a3.7 3.7 0 0 1 1.204-.189m10.76.658a.61.61 0 0 1-.168.441q-.168.168-.567.168h-3.15l-.462 2.632a7 7 0 0 1 1.449-.168q.784 0 1.379.231.602.23 1.008.637.406.406.609.959.21.553.21 1.204 0 .798-.28 1.442a3.3 3.3 0 0 1-.77 1.106 3.35 3.35 0 0 1-1.141.7 4 4 0 0 1-1.421.245q-.44 0-.847-.091a4 4 0 0 1-.756-.231 4.5 4.5 0 0 1-.651-.336 4 4 0 0 1-.532-.399l.378-.532a.39.39 0 0 1 .336-.182q.133 0 .308.112.182.105.434.238t.588.245q.344.105.812.105.525 0 .945-.168t.714-.476q.3-.315.462-.749.16-.434.16-.973 0-.47-.14-.847a1.6 1.6 0 0 0-.412-.644 1.9 1.9 0 0 0-.686-.413 2.9 2.9 0 0 0-.966-.147q-.378 0-.784.063-.405.063-.84.203l-.784-.231.812-4.69h4.753zM26.646 208.048h2.156v-6.839q0-.308.02-.623l-1.791 1.533a.6.6 0 0 1-.14.084.5.5 0 0 1-.133.021.4.4 0 0 1-.19-.042.4.4 0 0 1-.125-.112l-.392-.539 2.982-2.583h1.015v9.1h1.974V209h-5.376zm13.812-4.06q0 1.316-.287 2.282-.28.959-.77 1.589t-1.162.938q-.666.308-1.428.308-.77 0-1.435-.308a3.1 3.1 0 0 1-1.148-.938q-.49-.63-.77-1.589-.28-.966-.28-2.282t.28-2.282.77-1.596a3.1 3.1 0 0 1 1.148-.945 3.4 3.4 0 0 1 1.435-.308q.762 0 1.428.308.672.308 1.162.945.49.63.77 1.596.287.966.287 2.282m-1.295 0q0-1.148-.196-1.925-.19-.785-.518-1.26-.323-.476-.75-.679a1.99 1.99 0 0 0-1.777 0q-.427.203-.75.679-.32.476-.517 1.26-.19.777-.19 1.925t.19 1.925q.195.777.518 1.253.322.476.749.686a2.05 2.05 0 0 0 1.778 0q.426-.21.749-.686.33-.476.518-1.253.195-.777.196-1.925m9.416 0q0 1.316-.287 2.282-.28.959-.77 1.589t-1.162.938q-.665.308-1.428.308-.77 0-1.435-.308a3.1 3.1 0 0 1-1.148-.938q-.49-.63-.77-1.589-.28-.966-.28-2.282t.28-2.282.77-1.596a3.1 3.1 0 0 1 1.148-.945 3.4 3.4 0 0 1 1.435-.308q.764 0 1.428.308.672.308 1.162.945.49.63.77 1.596.287.966.287 2.282m-1.295 0q0-1.148-.196-1.925-.19-.785-.518-1.26-.322-.476-.75-.679a1.99 1.99 0 0 0-1.777 0q-.427.203-.75.679-.32.476-.517 1.26-.19.777-.19 1.925t.19 1.925q.195.777.518 1.253.322.476.749.686a2.05 2.05 0 0 0 1.778 0q.427-.21.749-.686.33-.476.518-1.253.196-.777.196-1.925M36.346 243.969v.56q0 .238-.056.392a1.6 1.6 0 0 1-.105.259l-4.151 8.379a1 1 0 0 1-.252.315.7.7 0 0 1-.434.126h-.89l4.215-8.274q.09-.175.182-.322.098-.147.217-.28h-5.236a.31.31 0 0 1-.308-.308v-.847zm7.379.546a.61.61 0 0 1-.168.441q-.168.168-.567.168h-3.15l-.462 2.632a7 7 0 0 1 1.449-.168q.784 0 1.379.231.602.23 1.008.637.406.406.609.959.21.553.21 1.204 0 .798-.28 1.442a3.3 3.3 0 0 1-.77 1.106 3.35 3.35 0 0 1-1.141.7 4 4 0 0 1-1.421.245q-.44 0-.847-.091a4 4 0 0 1-.756-.231 4.5 4.5 0 0 1-.651-.336 4 4 0 0 1-.532-.399l.378-.532a.39.39 0 0 1 .336-.182q.133 0 .308.112.182.105.434.238t.588.245q.344.105.812.105.525 0 .945-.168t.714-.476q.3-.315.462-.749.16-.434.16-.973 0-.47-.14-.847a1.6 1.6 0 0 0-.412-.644 1.9 1.9 0 0 0-.686-.413 2.9 2.9 0 0 0-.966-.147q-.378 0-.784.063-.405.063-.84.203l-.784-.231.812-4.69h4.753zM35.604 289.515a.61.61 0 0 1-.168.441q-.168.168-.567.168h-3.15l-.462 2.632a7 7 0 0 1 1.449-.168q.783 0 1.379.231.602.23 1.008.637.405.406.609.959.21.553.21 1.204 0 .798-.28 1.442a3.3 3.3 0 0 1-.77 1.106 3.35 3.35 0 0 1-1.141.7 4 4 0 0 1-1.421.245q-.44 0-.847-.091a4 4 0 0 1-.756-.231 4.5 4.5 0 0 1-.651-.336 4 4 0 0 1-.532-.399l.378-.532a.39.39 0 0 1 .336-.182q.132 0 .308.112.182.105.434.238t.588.245q.344.105.812.105.525 0 .945-.168t.714-.476q.3-.315.462-.749.16-.434.16-.973 0-.47-.14-.847a1.6 1.6 0 0 0-.412-.644 1.9 1.9 0 0 0-.686-.413 2.9 2.9 0 0 0-.966-.147q-.379 0-.784.063t-.84.203l-.784-.231.812-4.69h4.753zm8.975 4.473q0 1.316-.287 2.282-.28.959-.77 1.589t-1.162.938q-.665.308-1.428.308-.77 0-1.435-.308a3.1 3.1 0 0 1-1.148-.938q-.49-.63-.77-1.589-.28-.966-.28-2.282t.28-2.282.77-1.596a3.1 3.1 0 0 1 1.148-.945 3.4 3.4 0 0 1 1.435-.308q.764 0 1.428.308.672.307 1.162.945.49.63.77 1.596.287.966.287 2.282m-1.295 0q0-1.148-.196-1.925-.19-.784-.518-1.26-.322-.476-.75-.679a1.99 1.99 0 0 0-1.777 0q-.427.203-.75.679-.32.476-.517 1.26-.19.777-.19 1.925t.19 1.925q.195.777.518 1.253.322.476.749.686a2.05 2.05 0 0 0 1.778 0q.427-.21.749-.686.33-.476.518-1.253.196-.777.196-1.925M32.965 333.857q.636 0 1.19.189t.952.553q.406.357.637.875t.23 1.176q0 .56-.167 1.036a4.3 4.3 0 0 1-.455.917 7 7 0 0 1-.665.847q-.37.406-.791.833l-2.64 2.702q.282-.077.568-.119.286-.05.553-.049h3.36q.202 0 .322.119t.119.308V344h-6.692v-.427a.8.8 0 0 1 .049-.273.8.8 0 0 1 .175-.259l3.213-3.227q.398-.406.728-.777.33-.378.56-.756.238-.378.364-.763.126-.392.126-.833t-.14-.77a1.5 1.5 0 0 0-.385-.553 1.6 1.6 0 0 0-.574-.322 2.2 2.2 0 0 0-.707-.112q-.379 0-.7.112a1.92 1.92 0 0 0-.994.784 1.9 1.9 0 0 0-.238.602.56.56 0 0 1-.168.294.45.45 0 0 1-.294.091h-.077q-.035-.007-.084-.014l-.651-.112q.098-.686.378-1.211.28-.532.707-.889.434-.357.987-.539a3.7 3.7 0 0 1 1.204-.189m10.76.658a.61.61 0 0 1-.168.441q-.168.168-.567.168h-3.15l-.462 2.632a7 7 0 0 1 1.449-.168q.784 0 1.379.231.602.23 1.008.637.406.406.609.959.21.553.21 1.204 0 .798-.28 1.442a3.3 3.3 0 0 1-.77 1.106 3.35 3.35 0 0 1-1.141.7 4 4 0 0 1-1.421.245q-.44 0-.847-.091a4 4 0 0 1-.756-.231 4.5 4.5 0 0 1-.651-.336 4 4 0 0 1-.532-.399l.378-.532a.39.39 0 0 1 .336-.182q.133 0 .308.112.182.105.434.238t.588.245q.344.105.812.105.525 0 .945-.168t.714-.476q.3-.315.462-.749.16-.434.16-.973 0-.47-.14-.847a1.6 1.6 0 0 0-.412-.644 1.9 1.9 0 0 0-.686-.413 2.9 2.9 0 0 0-.966-.147q-.378 0-.784.063-.405.063-.84.203l-.784-.231.812-4.69h4.753zM48.579 383.988q0 1.316-.287 2.282-.28.959-.77 1.589t-1.162.938q-.665.308-1.428.308-.77 0-1.435-.308a3.1 3.1 0 0 1-1.148-.938q-.49-.63-.77-1.589-.28-.966-.28-2.282t.28-2.282.77-1.596a3.1 3.1 0 0 1 1.148-.945 3.4 3.4 0 0 1 1.435-.308q.764 0 1.428.308.672.308 1.162.945.49.63.77 1.596.287.966.287 2.282m-1.295 0q0-1.148-.196-1.925-.19-.784-.518-1.26-.322-.476-.75-.679a1.99 1.99 0 0 0-1.777 0q-.427.203-.75.679-.32.476-.517 1.26-.19.777-.19 1.925t.19 1.925q.195.777.518 1.253.322.476.749.686a2.05 2.05 0 0 0 1.778 0q.427-.21.749-.686.33-.476.518-1.253.196-.777.196-1.925"/></g><g clip-path="url(#h)"><g clip-path="url(#i)"><circle cx="451" cy="47.5" r="5" fill="#7772F1"/><path fill="#787A80" d="M465.218 53V42.969h3.199q.924 0 1.589.182.672.182 1.099.518.434.337.637.826.21.483.21 1.092a2.17 2.17 0 0 1-.469 1.351q-.231.294-.588.525-.35.231-.826.378 1.1.217 1.659.791.56.575.56 1.512 0 .637-.238 1.162-.231.525-.686.903a3.2 3.2 0 0 1-1.106.588 5 5 0 0 1-1.491.203zm1.358-4.571v3.493h2.17q.581 0 .994-.133.42-.133.686-.371a1.5 1.5 0 0 0 .399-.574q.126-.336.126-.735 0-.777-.553-1.225-.546-.455-1.659-.455zm0-.966h1.792q.574 0 .994-.126t.693-.35q.28-.224.413-.539a1.8 1.8 0 0 0 .133-.7q0-.882-.532-1.295t-1.652-.413h-1.841zm10.317-1.666q.637 0 1.176.217.54.21.931.616.393.399.609.994.224.588.224 1.344 0 .294-.063.392t-.238.098h-4.718q.014.672.182 1.169t.462.833q.295.33.7.497.406.16.91.161.47 0 .805-.105a4 4 0 0 0 .994-.469.55.55 0 0 1 .287-.112q.154 0 .238.119l.35.455q-.23.28-.553.49a3.5 3.5 0 0 1-.693.336 4 4 0 0 1-.756.196q-.392.07-.777.07-.734 0-1.358-.245a3.1 3.1 0 0 1-1.071-.728 3.4 3.4 0 0 1-.7-1.19q-.252-.707-.252-1.624 0-.742.224-1.386.231-.644.658-1.113a3 3 0 0 1 1.043-.742 3.4 3.4 0 0 1 1.386-.273m.028.917q-.902 0-1.421.525-.518.518-.644 1.442h3.857q0-.434-.119-.791a1.7 1.7 0 0 0-.35-.623 1.5 1.5 0 0 0-.567-.406 1.8 1.8 0 0 0-.756-.147M481.708 53v-6.027l-.784-.091a.7.7 0 0 1-.245-.105.27.27 0 0 1-.091-.217v-.511h1.12v-.686q0-.609.168-1.078.175-.475.49-.798.323-.33.77-.497a2.9 2.9 0 0 1 1.008-.168q.477 0 .882.14l-.028.623q-.006.14-.119.168a1.4 1.4 0 0 1-.315.028h-.217q-.321 0-.588.084a1.1 1.1 0 0 0-.448.273 1.3 1.3 0 0 0-.294.497q-.098.308-.098.763v.651h2.051v.903h-2.009V53zm7.307-7.203q.777 0 1.4.259.63.26 1.064.735.441.475.672 1.155.238.672.238 1.505a4.5 4.5 0 0 1-.238 1.512 3.2 3.2 0 0 1-.672 1.148 2.9 2.9 0 0 1-1.064.735 3.7 3.7 0 0 1-1.4.252q-.777 0-1.407-.252a3 3 0 0 1-1.064-.735q-.44-.476-.679-1.148a4.5 4.5 0 0 1-.238-1.512q0-.833.238-1.505.238-.68.679-1.155a3 3 0 0 1 1.064-.735q.63-.26 1.407-.259m0 6.328q1.05 0 1.568-.7.518-.707.518-1.967 0-1.267-.518-1.974t-1.568-.707q-.532 0-.924.182a1.76 1.76 0 0 0-.658.525 2.4 2.4 0 0 0-.392.847 4.6 4.6 0 0 0-.126 1.127q0 .63.126 1.127.133.496.392.84.266.336.658.518t.924.182m4.909.875v-7.091h.714q.204 0 .28.077.078.077.105.266l.084 1.106q.365-.743.896-1.155.54-.42 1.26-.42.295 0 .532.07.238.063.441.182l-.161.931q-.049.175-.217.175-.097 0-.301-.063a1.8 1.8 0 0 0-.567-.07q-.651 0-1.092.378-.434.378-.728 1.099V53zm8.454-7.203q.636 0 1.176.217.538.21.931.616.391.399.609.994.224.588.224 1.344 0 .294-.063.392t-.238.098h-4.718q.014.672.182 1.169t.462.833q.294.33.7.497.405.16.91.161.469 0 .805-.105a4 4 0 0 0 .994-.469.55.55 0 0 1 .287-.112q.154 0 .238.119l.35.455q-.231.28-.553.49a3.6 3.6 0 0 1-.693.336 4 4 0 0 1-.756.196q-.393.07-.777.07-.735 0-1.358-.245a3.1 3.1 0 0 1-1.071-.728 3.4 3.4 0 0 1-.7-1.19q-.252-.707-.252-1.624 0-.742.224-1.386.23-.644.658-1.113a2.94 2.94 0 0 1 1.043-.742q.615-.273 1.386-.273m.028.917q-.903 0-1.421.525-.519.518-.644 1.442h3.857a2.5 2.5 0 0 0-.119-.791 1.7 1.7 0 0 0-.35-.623 1.5 1.5 0 0 0-.567-.406 1.8 1.8 0 0 0-.756-.147m14.48 4.214q.111 0 .203.091l.532.581q-.616.714-1.498 1.113-.875.399-2.114.399-1.086 0-1.967-.371a4.4 4.4 0 0 1-1.505-1.05 4.8 4.8 0 0 1-.966-1.624 6 6 0 0 1-.343-2.079q0-1.134.364-2.079a4.8 4.8 0 0 1 1.036-1.624 4.6 4.6 0 0 1 1.589-1.05 5.4 5.4 0 0 1 2.051-.378q1.106 0 1.904.343a4.8 4.8 0 0 1 1.428.931l-.441.623a.6.6 0 0 1-.112.119.33.33 0 0 1-.182.042.4.4 0 0 1-.196-.063l-.238-.168a6 6 0 0 0-.329-.21 3 3 0 0 0-.448-.21 3.5 3.5 0 0 0-.602-.161 4 4 0 0 0-.791-.07q-.805 0-1.477.28a3.3 3.3 0 0 0-1.148.784q-.483.51-.756 1.246a4.8 4.8 0 0 0-.266 1.645q0 .938.266 1.673.273.735.735 1.246.468.504 1.106.77.636.266 1.372.266.448 0 .805-.049.357-.056.658-.168.308-.112.567-.28.265-.175.532-.413.118-.105.231-.105M519.204 53v-7.091h.714q.202 0 .28.077.077.077.105.266l.084 1.106q.363-.743.896-1.155a2 2 0 0 1 1.26-.42q.294 0 .532.07.237.063.441.182l-.161.931q-.05.175-.217.175-.099 0-.301-.063a1.8 1.8 0 0 0-.567-.07q-.651 0-1.092.378-.434.378-.728 1.099V53zm8.453-7.203q.637 0 1.176.217.539.21.931.616.391.399.609.994.224.588.224 1.344 0 .294-.063.392t-.238.098h-4.718q.014.672.182 1.169t.462.833q.294.33.7.497.406.16.91.161.47 0 .805-.105a4 4 0 0 0 .994-.469.55.55 0 0 1 .287-.112q.154 0 .238.119l.35.455q-.23.28-.553.49a3.6 3.6 0 0 1-.693.336 4 4 0 0 1-.756.196q-.391.07-.777.07-.735 0-1.358-.245a3.1 3.1 0 0 1-1.071-.728 3.4 3.4 0 0 1-.7-1.19q-.252-.707-.252-1.624 0-.742.224-1.386.23-.644.658-1.113a2.95 2.95 0 0 1 1.043-.742 3.4 3.4 0 0 1 1.386-.273m.028.917q-.903 0-1.421.525-.518.518-.644 1.442h3.857a2.5 2.5 0 0 0-.119-.791 1.7 1.7 0 0 0-.35-.623 1.5 1.5 0 0 0-.567-.406 1.8 1.8 0 0 0-.756-.147M537.4 53h-.553a.7.7 0 0 1-.294-.056q-.113-.056-.147-.238l-.14-.658a9 9 0 0 1-.546.455q-.266.196-.56.336a3 3 0 0 1-.63.203q-.329.07-.735.07a2.6 2.6 0 0 1-.777-.112 1.695 1.695 0 0 1-1.05-.931 2.1 2.1 0 0 1-.154-.84q0-.42.231-.805.23-.392.742-.693.518-.3 1.351-.49.832-.195 2.037-.224v-.553q0-.825-.357-1.246-.35-.427-1.043-.427-.455 0-.77.119a2.8 2.8 0 0 0-.539.259q-.224.14-.392.259a.56.56 0 0 1-.322.112.4.4 0 0 1-.224-.063.6.6 0 0 1-.147-.168l-.224-.399q.588-.567 1.267-.847t1.505-.28q.595 0 1.057.196t.777.546.476.847.161 1.092zm-3.234-.763q.329 0 .602-.063.273-.07.511-.189a2.7 2.7 0 0 0 .462-.301q.224-.175.434-.399v-1.477a10 10 0 0 0-1.463.14q-.602.105-.98.28t-.553.413a.9.9 0 0 0-.168.532q0 .28.091.483a.95.95 0 0 0 .245.336q.154.126.364.189.21.056.455.056m7.271.875q-.84 0-1.295-.469-.448-.47-.448-1.351v-4.34h-.854a.3.3 0 0 1-.189-.063q-.078-.07-.077-.21v-.497l1.162-.147.287-2.191a.25.25 0 0 1 .091-.168.28.28 0 0 1 .196-.07h.63v2.443h2.03v.903h-2.03v4.256q0 .448.217.665a.76.76 0 0 0 .56.217q.195 0 .336-.049.147-.056.252-.119t.175-.112q.076-.056.133-.056.097 0 .175.119l.364.595q-.322.301-.777.476a2.7 2.7 0 0 1-.938.168m5.88-7.315q.638 0 1.176.217.54.21.931.616.393.399.609.994.225.588.224 1.344 0 .294-.063.392t-.238.098h-4.718q.014.672.182 1.169t.462.833q.294.33.7.497.406.16.91.161.47 0 .805-.105a4 4 0 0 0 .994-.469.55.55 0 0 1 .287-.112q.154 0 .238.119l.35.455q-.23.28-.553.49a3.5 3.5 0 0 1-.693.336 4 4 0 0 1-.756.196q-.391.07-.777.07-.735 0-1.358-.245a3.1 3.1 0 0 1-1.071-.728 3.4 3.4 0 0 1-.7-1.19q-.252-.707-.252-1.624 0-.742.224-1.386.231-.644.658-1.113a3 3 0 0 1 1.043-.742 3.4 3.4 0 0 1 1.386-.273m.028.917q-.902 0-1.421.525-.518.518-.644 1.442h3.857q0-.434-.119-.791a1.7 1.7 0 0 0-.35-.623 1.5 1.5 0 0 0-.567-.406 1.8 1.8 0 0 0-.756-.147m5.742 2.653-2.387-3.458h1.197q.155 0 .224.049.07.05.126.14l1.736 2.66a2 2 0 0 1 .182-.392l1.526-2.24a.8.8 0 0 1 .14-.154.25.25 0 0 1 .175-.063h1.148l-2.387 3.388L557.252 53h-1.197a.37.37 0 0 1-.245-.077 1 1 0 0 1-.14-.182l-1.785-2.779a1.2 1.2 0 0 1-.147.364l-1.652 2.415a1.4 1.4 0 0 1-.154.182q-.076.077-.217.077h-1.113z"/></g><g clip-path="url(#j)"><circle cx="583" cy="47.5" r="5" fill="#00F0B5"/><path fill="#787A80" d="M605.471 53h-1.05a.45.45 0 0 1-.294-.091.55.55 0 0 1-.168-.231l-.938-2.422h-4.501l-.938 2.422a.55.55 0 0 1-.168.224.45.45 0 0 1-.294.098h-1.05l4.011-10.031h1.379zm-6.573-3.724h3.745l-1.575-4.081a8 8 0 0 1-.301-.945 13 13 0 0 1-.294.952zm7.92 3.724v-6.027l-.784-.091a.7.7 0 0 1-.245-.105.27.27 0 0 1-.091-.217v-.511h1.12v-.686q0-.609.168-1.078.174-.475.49-.798a2.1 2.1 0 0 1 .77-.497 2.9 2.9 0 0 1 1.008-.168q.476 0 .882.14l-.028.623q-.008.14-.119.168a1.4 1.4 0 0 1-.315.028h-.217q-.322 0-.588.084a1.1 1.1 0 0 0-.448.273 1.3 1.3 0 0 0-.294.497q-.099.308-.098.763v.651h2.051v.903h-2.009V53zm6.585.112q-.84 0-1.295-.469-.447-.47-.448-1.351v-4.34h-.854a.3.3 0 0 1-.189-.063q-.077-.07-.077-.21v-.497l1.162-.147.287-2.191q.015-.105.091-.168a.28.28 0 0 1 .196-.07h.63v2.443h2.03v.903h-2.03v4.256q0 .448.217.665a.76.76 0 0 0 .56.217 1 1 0 0 0 .588-.168q.106-.063.175-.112.078-.056.133-.056.099 0 .175.119l.364.595q-.321.301-.777.476a2.7 2.7 0 0 1-.938.168m5.881-7.315q.637 0 1.176.217.539.21.931.616.391.399.609.994.224.588.224 1.344 0 .294-.063.392t-.238.098h-4.718q.014.672.182 1.169t.462.833q.294.33.7.497.406.16.91.161.47 0 .805-.105a4 4 0 0 0 .994-.469.55.55 0 0 1 .287-.112q.154 0 .238.119l.35.455q-.23.28-.553.49a3.6 3.6 0 0 1-.693.336 4 4 0 0 1-.756.196q-.391.07-.777.07-.735 0-1.358-.245a3.1 3.1 0 0 1-1.071-.728 3.4 3.4 0 0 1-.7-1.19q-.252-.707-.252-1.624 0-.742.224-1.386.23-.644.658-1.113a2.95 2.95 0 0 1 1.043-.742 3.4 3.4 0 0 1 1.386-.273m.028.917q-.903 0-1.421.525-.518.518-.644 1.442h3.857a2.5 2.5 0 0 0-.119-.791 1.7 1.7 0 0 0-.35-.623 1.5 1.5 0 0 0-.567-.406 1.8 1.8 0 0 0-.756-.147M623.819 53v-7.091h.714q.203 0 .28.077t.105.266l.084 1.106q.364-.743.896-1.155a2 2 0 0 1 1.26-.42q.294 0 .532.07.238.063.441.182l-.161.931q-.05.175-.217.175-.098 0-.301-.063a1.8 1.8 0 0 0-.567-.07q-.651 0-1.092.378-.434.378-.728 1.099V53zm15.619-2.072a.28.28 0 0 1 .203.091l.532.581q-.615.714-1.498 1.113-.875.399-2.114.399-1.085 0-1.967-.371a4.4 4.4 0 0 1-1.505-1.05 4.8 4.8 0 0 1-.966-1.624 6.1 6.1 0 0 1-.343-2.079q0-1.134.364-2.079a4.8 4.8 0 0 1 1.036-1.624 4.6 4.6 0 0 1 1.589-1.05 5.4 5.4 0 0 1 2.051-.378q1.106 0 1.904.343a4.8 4.8 0 0 1 1.428.931l-.441.623a.5.5 0 0 1-.112.119.33.33 0 0 1-.182.042.4.4 0 0 1-.196-.063l-.238-.168a5 5 0 0 0-.329-.21 3 3 0 0 0-.448-.21 3.5 3.5 0 0 0-.602-.161 4 4 0 0 0-.791-.07q-.805 0-1.477.28a3.3 3.3 0 0 0-1.148.784q-.483.51-.756 1.246a4.8 4.8 0 0 0-.266 1.645q0 .938.266 1.673.273.735.735 1.246.47.504 1.106.77t1.372.266q.448 0 .805-.049.358-.056.658-.168.309-.112.567-.28.267-.175.532-.413.12-.105.231-.105M641.756 53v-7.091h.714q.204 0 .28.077.078.077.105.266l.084 1.106q.365-.743.896-1.155.54-.42 1.26-.42.294 0 .532.07.238.063.441.182l-.161.931q-.049.175-.217.175-.097 0-.301-.063a1.8 1.8 0 0 0-.567-.07q-.651 0-1.092.378-.434.378-.728 1.099V53zm8.454-7.203q.638 0 1.176.217.539.21.931.616.392.399.609.994.224.588.224 1.344 0 .294-.063.392t-.238.098h-4.718q.014.672.182 1.169t.462.833q.294.33.7.497.406.16.91.161.47 0 .805-.105a4 4 0 0 0 .994-.469.55.55 0 0 1 .287-.112q.154 0 .238.119l.35.455q-.23.28-.553.49a3.6 3.6 0 0 1-.693.336 4 4 0 0 1-.756.196q-.391.07-.777.07-.735 0-1.358-.245a3.1 3.1 0 0 1-1.071-.728 3.4 3.4 0 0 1-.7-1.19q-.252-.707-.252-1.624 0-.742.224-1.386.23-.644.658-1.113a2.95 2.95 0 0 1 1.043-.742 3.4 3.4 0 0 1 1.386-.273m.028.917q-.903 0-1.421.525-.518.518-.644 1.442h3.857a2.5 2.5 0 0 0-.119-.791 1.7 1.7 0 0 0-.35-.623 1.5 1.5 0 0 0-.567-.406 1.8 1.8 0 0 0-.756-.147M659.953 53h-.553a.66.66 0 0 1-.294-.056q-.112-.056-.147-.238l-.14-.658a9 9 0 0 1-.546.455q-.267.196-.56.336a3 3 0 0 1-.63.203q-.33.07-.735.07a2.6 2.6 0 0 1-.777-.112 1.8 1.8 0 0 1-.623-.35 1.7 1.7 0 0 1-.427-.581 2.1 2.1 0 0 1-.154-.84q0-.42.231-.805.23-.392.742-.693.517-.3 1.351-.49.832-.195 2.037-.224v-.553q0-.825-.357-1.246-.35-.427-1.043-.427-.455 0-.77.119a2.7 2.7 0 0 0-.539.259q-.225.14-.392.259a.56.56 0 0 1-.322.112.4.4 0 0 1-.224-.063.6.6 0 0 1-.147-.168l-.224-.399q.588-.567 1.267-.847t1.505-.28q.594 0 1.057.196t.777.546.476.847q.16.496.161 1.092zm-3.234-.763q.329 0 .602-.063.273-.07.511-.189a2.7 2.7 0 0 0 .462-.301q.224-.175.434-.399v-1.477a10 10 0 0 0-1.463.14 4 4 0 0 0-.98.28q-.378.175-.553.413a.9.9 0 0 0-.168.532q0 .28.091.483.09.203.245.336.154.126.364.189.21.056.455.056m7.27.875q-.84 0-1.295-.469-.447-.47-.448-1.351v-4.34h-.854a.3.3 0 0 1-.189-.063q-.077-.07-.077-.21v-.497l1.162-.147.287-2.191q.015-.105.091-.168a.28.28 0 0 1 .196-.07h.63v2.443h2.03v.903h-2.03v4.256q0 .448.217.665a.76.76 0 0 0 .56.217 1 1 0 0 0 .588-.168q.106-.063.175-.112.078-.056.133-.056.099 0 .175.119l.364.595q-.321.301-.777.476a2.7 2.7 0 0 1-.938.168m5.881-7.315q.637 0 1.176.217.539.21.931.616.392.399.609.994.224.588.224 1.344 0 .294-.063.392t-.238.098h-4.718q.014.672.182 1.169t.462.833q.294.33.7.497.406.16.91.161.47 0 .805-.105a4 4 0 0 0 .994-.469.55.55 0 0 1 .287-.112q.154 0 .238.119l.35.455q-.23.28-.553.49a3.6 3.6 0 0 1-.693.336 4 4 0 0 1-.756.196q-.392.07-.777.07-.735 0-1.358-.245a3.1 3.1 0 0 1-1.071-.728 3.4 3.4 0 0 1-.7-1.19q-.252-.707-.252-1.624 0-.742.224-1.386.23-.644.658-1.113a2.95 2.95 0 0 1 1.043-.742 3.4 3.4 0 0 1 1.386-.273m.028.917q-.903 0-1.421.525-.518.518-.644 1.442h3.857a2.5 2.5 0 0 0-.119-.791 1.7 1.7 0 0 0-.35-.623 1.5 1.5 0 0 0-.567-.406 1.8 1.8 0 0 0-.756-.147m5.742 2.653-2.387-3.458h1.197q.154 0 .224.049.07.05.126.14l1.736 2.66a2 2 0 0 1 .182-.392l1.526-2.24a.8.8 0 0 1 .14-.154.25.25 0 0 1 .175-.063h1.148l-2.387 3.388L679.805 53h-1.197a.37.37 0 0 1-.245-.077.9.9 0 0 1-.14-.182l-1.785-2.779a1.3 1.3 0 0 1-.147.364l-1.652 2.415a1.5 1.5 0 0 1-.154.182.3.3 0 0 1-.217.077h-1.113z"/></g></g><path fill="#1E212C" d="M37.052 39.648v2.568H29.36v5.136h6.492v2.58H29.36V57h-3.252V39.648zm5.52 5.04V57h-2.964V44.688zm.444-3.588q0 .384-.156.72t-.42.588a2 2 0 0 1-.6.408q-.348.144-.744.144-.384 0-.732-.144a2 2 0 0 1-.588-.408 2 2 0 0 1-.408-.588 1.8 1.8 0 0 1-.144-.72q0-.396.144-.744a2 2 0 0 1 .408-.6q.252-.252.588-.396a1.8 1.8 0 0 1 .732-.156q.396 0 .744.156.348.144.6.396.264.252.42.6t.156.744M45.932 57V44.688h1.812q.576 0 .756.54l.204.972q.372-.384.78-.696.42-.312.876-.54.468-.228.996-.348t1.152-.12q1.008 0 1.788.348.78.336 1.296.96.528.612.792 1.476.276.852.276 1.884V57h-2.964v-7.836q0-1.128-.528-1.74-.516-.624-1.56-.624-.768 0-1.44.348a5.2 5.2 0 0 0-1.272.948V57zm23.288 0h-1.332q-.42 0-.66-.12-.24-.132-.36-.516l-.264-.876q-.468.42-.924.744a5.6 5.6 0 0 1-.924.528q-.48.216-1.02.324t-1.2.108q-.78 0-1.44-.204a3.2 3.2 0 0 1-1.14-.636 2.9 2.9 0 0 1-.732-1.044q-.264-.624-.264-1.452 0-.696.36-1.368.372-.684 1.224-1.224.852-.552 2.268-.912t3.516-.408v-.72q0-1.236-.528-1.824-.516-.6-1.512-.6-.72 0-1.2.168t-.84.384q-.348.204-.648.372t-.66.168a.86.86 0 0 1-.516-.156 1.2 1.2 0 0 1-.348-.384l-.54-.948q2.124-1.944 5.124-1.944 1.08 0 1.92.36a4 4 0 0 1 1.44.984q.588.624.888 1.5.312.876.312 1.92zm-5.76-1.848q.456 0 .84-.084a3 3 0 0 0 .72-.252q.348-.168.66-.408.324-.252.648-.588v-2.076q-1.296.06-2.172.228-.864.156-1.392.408t-.756.588a1.33 1.33 0 0 0-.216.732q0 .78.456 1.116.468.336 1.212.336m11.83-15.984V57h-2.963V39.168zM86.796 50.22V57h-3.228V39.648h5.292q1.776 0 3.036.372 1.272.36 2.076 1.02.816.66 1.188 1.584.384.912.384 2.016a5.1 5.1 0 0 1-.264 1.656q-.252.78-.744 1.416-.48.636-1.2 1.116a6.2 6.2 0 0 1-1.62.768q.612.348 1.056.996L97.115 57h-2.904q-.42 0-.72-.168a1.5 1.5 0 0 1-.492-.48l-3.648-5.556a1.26 1.26 0 0 0-.456-.444q-.24-.132-.72-.132zm0-2.316h2.016q.912 0 1.584-.228.684-.228 1.116-.624.444-.408.66-.96t.216-1.212q0-1.32-.876-2.028-.864-.708-2.652-.708h-2.064zm17.311-3.408a5.9 5.9 0 0 1 2.136.372q.984.372 1.692 1.092.708.708 1.104 1.752.396 1.032.396 2.364 0 .336-.036.564a.8.8 0 0 1-.108.348.45.45 0 0 1-.204.18 1 1 0 0 1-.336.048h-7.608q.132 1.896 1.02 2.784t2.352.888q.72 0 1.236-.168a5.5 5.5 0 0 0 .912-.372 15 15 0 0 0 .684-.372q.3-.168.576-.168.18 0 .312.072a.7.7 0 0 1 .228.204l.864 1.08a5 5 0 0 1-1.104.972 6.6 6.6 0 0 1-1.284.624q-.66.228-1.356.324a10 10 0 0 1-1.332.096 6.7 6.7 0 0 1-2.388-.42 5.5 5.5 0 0 1-1.92-1.26q-.816-.84-1.284-2.064-.468-1.236-.468-2.856 0-1.26.408-2.364a5.7 5.7 0 0 1 1.164-1.932 5.55 5.55 0 0 1 1.86-1.308q1.104-.48 2.484-.48m.06 2.124q-1.296 0-2.028.732t-.936 2.076h5.568q0-.576-.156-1.08a2.5 2.5 0 0 0-.48-.9 2.2 2.2 0 0 0-.816-.6q-.492-.228-1.152-.228m14.98.468a.9.9 0 0 1-.252.276.7.7 0 0 1-.336.072q-.216 0-.468-.12a14 14 0 0 0-.564-.264 4.7 4.7 0 0 0-.744-.276 3.5 3.5 0 0 0-.972-.12q-.876 0-1.38.372t-.504.972a.96.96 0 0 0 .252.672q.264.264.684.468.432.204.972.372.54.156 1.104.348t1.104.444q.54.24.96.624.432.372.684.9.264.528.264 1.272a4.1 4.1 0 0 1-.324 1.644 3.7 3.7 0 0 1-.948 1.296q-.624.54-1.548.852-.912.3-2.1.3-.636 0-1.248-.12a6.782 6.782 0 0 1-2.196-.792 5 5 0 0 1-.828-.6l.684-1.128a1 1 0 0 1 .312-.312.9.9 0 0 1 .456-.108.93.93 0 0 1 .516.156q.252.156.576.336t.756.336q.444.156 1.116.156.528 0 .9-.12.384-.132.624-.336.252-.204.36-.468.12-.276.12-.564 0-.432-.264-.708a2.2 2.2 0 0 0-.684-.48 6 6 0 0 0-.972-.36q-.54-.168-1.116-.36a12 12 0 0 1-1.116-.444 4 4 0 0 1-.972-.66 3.1 3.1 0 0 1-.684-.972q-.252-.576-.252-1.392 0-.756.3-1.44t.876-1.188q.588-.516 1.452-.816.876-.312 2.016-.312 1.272 0 2.316.42t1.74 1.104zm5.88-2.4v7.824q0 1.128.516 1.752.528.612 1.572.612.768 0 1.44-.336a5.2 5.2 0 0 0 1.272-.948v-8.904h2.964V57h-1.812q-.576 0-.756-.54l-.204-.984q-.384.384-.792.708a5 5 0 0 1-.876.54 4.7 4.7 0 0 1-.996.336 4.7 4.7 0 0 1-1.14.132q-1.008 0-1.788-.336a3.64 3.64 0 0 1-1.296-.972 4.3 4.3 0 0 1-.804-1.476 6.5 6.5 0 0 1-.264-1.896v-7.824zm14.085-5.52V57h-2.964V39.168zm7.404 18.024q-1.596 0-2.46-.9-.864-.912-.864-2.508v-6.876h-1.248q-.24 0-.42-.156-.168-.156-.168-.468v-1.176l1.98-.324.624-3.36a.6.6 0 0 1 .216-.372.73.73 0 0 1 .444-.132h1.536v3.876h3.24v2.112h-3.24v6.672q0 .576.288.9t.768.324q.276 0 .456-.06.192-.072.324-.144.144-.072.252-.132a.4.4 0 0 1 .216-.072.32.32 0 0 1 .216.072.9.9 0 0 1 .18.192l.888 1.44q-.648.54-1.488.816t-1.74.276m12.545-10.104a.9.9 0 0 1-.252.276.7.7 0 0 1-.336.072q-.216 0-.468-.12a14 14 0 0 0-.564-.264 4.7 4.7 0 0 0-.744-.276 3.5 3.5 0 0 0-.972-.12q-.876 0-1.38.372t-.504.972a.96.96 0 0 0 .252.672q.264.264.684.468.432.204.972.372.54.156 1.104.348t1.104.444q.54.24.96.624.432.372.684.9.264.528.264 1.272a4.1 4.1 0 0 1-.324 1.644 3.7 3.7 0 0 1-.948 1.296q-.624.54-1.548.852-.912.3-2.1.3-.636 0-1.248-.12a6.782 6.782 0 0 1-2.196-.792 5 5 0 0 1-.828-.6l.684-1.128a1 1 0 0 1 .312-.312.9.9 0 0 1 .456-.108.93.93 0 0 1 .516.156q.252.156.576.336t.756.336q.444.156 1.116.156.528 0 .9-.12.384-.132.624-.336.252-.204.36-.468.12-.276.12-.564 0-.432-.264-.708a2.2 2.2 0 0 0-.684-.48 6 6 0 0 0-.972-.36q-.54-.168-1.116-.36a12 12 0 0 1-1.116-.444 4 4 0 0 1-.972-.66 3.1 3.1 0 0 1-.684-.972q-.252-.576-.252-1.392 0-.756.3-1.44t.876-1.188q.588-.516 1.452-.816.876-.312 2.016-.312 1.272 0 2.316.42t1.74 1.104z"/><defs><clipPath id="a"><path fill="#fff" d="M57 108h624v280H57z"/></clipPath><clipPath id="b"><path fill="#fff" d="M60 96.48h620.786v243.04H60z"/></clipPath><clipPath id="c"><path fill="#fff" d="M117 210h82v177h-82z"/></clipPath><clipPath id="d"><path fill="#fff" d="M543 201h82v186h-82z"/></clipPath><clipPath id="e"><path fill="#fff" d="M401 170h82v217h-82z"/></clipPath><clipPath id="f"><path fill="#fff" d="M259 267h82v120h-82z"/></clipPath><clipPath id="g"><path fill="#fff" d="M24 103h25v291H24z"/></clipPath><clipPath id="h"><path fill="#fff" d="M446 37h235v21H446z"/></clipPath><clipPath id="i"><path fill="#fff" d="M446 37h112v21H446z"/></clipPath><clipPath id="j"><path fill="#fff" d="M578 37h103v21H578z"/></clipPath></defs></svg>