<svg xmlns="http://www.w3.org/2000/svg" width="373" height="506" fill="none"><path fill="#E5E8ED" d="M316.083 155.645a28.56 28.56 0 0 0 4.657 15.647 28.47 28.47 0 0 0 12.461 10.521 28.41 28.41 0 0 0 30.771-5.322 28.53 28.53 0 0 0 8.22-14.098 28.57 28.57 0 0 0-.848-16.306 28.5 28.5 0 0 0-9.636-13.166 28.4 28.4 0 0 0-15.266-5.71v28.434z"/><path fill="#00F0B5" d="M313.001 152.335h30.358V123.87a24 24 0 0 0-1.895-.067c-3.739 0-7.441.738-10.895 2.172a28.5 28.5 0 0 0-9.236 6.185 28.5 28.5 0 0 0-6.169 9.257 28.6 28.6 0 0 0-2.163 10.918"/><path fill="#9A9CA5" d="m242.058 28.565-10.467-6.617 58.498-6.473-23.61 31.791-8.554-6.09-12.761 5.179zm3.202 12.036.382-8.152-.096-.048L274.7 21.085l-29.966 9.159-1.434-.912zm-10.419-17.886 10.036 6.33 38.234-11.7zm52.476-5.37L247.84 32.64l18.4 13.139zm-40.576 15.871-.573 11.509 10.705-4.316z"/><path fill="#00F0B5" d="M216.526 69.124c2.607 0 5.024-.523 7.015-1.9 2.701-1.852 4.171-4.417 4.787-7.124 1.991.38 4.171.237 6.541-.76 6.92-2.945 10.191-10.544 10.333-10.829l-.995-.427c-.048.095-3.223 7.504-9.717 10.258-2.133.903-4.124 1.045-5.925.713.474-3.277-.284-6.554-1.612-8.834-1.469-2.422-3.507-3.372-5.356-2.422-1.99 1.045-2.512 3.42-1.232 6.127 1.138 2.422 3.65 4.939 6.968 5.936-.569 2.47-1.896 4.797-4.314 6.46-8.579 5.889-26.875-5.32-27.065-5.415l-.569.903c.474.38 11.85 7.314 21.141 7.314m6.446-20.613c1.469 0 2.607 1.662 2.939 2.28 1.232 2.042 1.896 5.034 1.469 7.979-2.939-.902-5.167-3.182-6.162-5.32-.806-1.662-.995-3.799.758-4.701.38-.19.711-.238.996-.238"/><path fill="#D7DADD" d="M222.676 493.77V351.173l-38.79-36.478-4.234 190.306h51.85z"/><path fill="#E5E8ED" d="m212.719 222.019-64.585-4.433-11.743 82.915V505h59.987l-6.343-11.389z"/><path fill="#1E212C" d="M182.589 372.994a274 274 0 0 0 40.087-9.485l-39.456-18.876z"/><path fill="#1E212C" d="M136.392 322.229v52.842c22.443 2.284 46.884-1.64 64.007-5.525l1.34-16.054z"/><path stroke="#1E212C" stroke-linecap="round" stroke-linejoin="round" stroke-width="1.5" d="m196.378 505-6.343-11.389 22.684-271.591"/><path fill="#00F0B5" d="M138.629 159.354v64.021l90.512 22.291v-71.302c0-25.282-17.226-47.298-41.728-53.332a39.32 39.32 0 0 0-33.699 7.265 39.5 39.5 0 0 0-15.085 31.057"/><path fill="#E5E8ED" d="M156.554 86.103v10.215c0 7.898 5.381 14.776 13.036 16.662l16.223 3.995V77.037l-13.489-3.323a12.71 12.71 0 0 0-10.894 2.35 12.77 12.77 0 0 0-4.876 10.039"/><path stroke="#1E212C" stroke-linecap="round" stroke-linejoin="round" stroke-width="1.5" d="M156.554 96.318c0 7.899 5.381 14.777 13.036 16.662l16.223 3.996"/><path fill="#1E212C" d="M173.083 94.29a.783.783 0 1 0-.002-1.565.783.783 0 0 0 .002 1.565M161.067 94.29a.783.783 0 1 0 0-1.566.783.783 0 0 0 0 1.566"/><path stroke="#1E212C" stroke-linecap="round" stroke-linejoin="round" stroke-width="1.5" d="M164.592 98.183V86.102h-6.04M174.555 86.103h-6.039"/><path fill="#E5E8ED" d="M183.886 92.293v4.196a4.093 4.093 0 0 0 4.072-4.47c-.229-2.545-4.072-2.28-4.072.274"/><path stroke="#1E212C" stroke-linecap="round" stroke-linejoin="round" stroke-width="1.5" d="M183.886 96.488a4.093 4.093 0 0 0 4.089-4.097M167.894 99.596a2.704 2.704 0 0 0 3.829 0M164.59 98.193l2.642.651M156.554 82.745s8.561-1.097 10.679-5.25c0 0 2.682 4.329 6.631 3.96 0 0 2.295 4.698 6.34 3.869 0 0-.314 4.41 3.682 5.343"/><path stroke="#1E212C" stroke-linecap="round" stroke-linejoin="round" stroke-width="1.5" d="M156.556 90.667s-17.168-10.133-1.172-21.002 26.66-.737 26.66-.737 10.297 2.892 10.481 8.723c0 0 4.596 5.094 3.125 9.884 0 0 5.753 15.107-9.718 19.897"/><path stroke="#00F0B5" stroke-linecap="round" stroke-linejoin="round" stroke-width="1.5" d="M185.931 109.642a12.2 12.2 0 0 0 5.673-2.21"/><path stroke="#1E212C" stroke-linecap="round" stroke-linejoin="round" stroke-width="1.5" d="M185.813 113.235v13.52c-.05 5.063 3.578 9.413 8.559 10.264 1.875.289 3.741.008 5.23-1.399 4.872-4.606 2.482-15.568-1.747-18.239a7.49 7.49 0 0 0-4.321-7.277"/><path fill="#00F0B5" d="M138.63 223.375 67.128 345.092s86.843 32.412 162.013 18.416V231.236"/><path stroke="#1E212C" stroke-linecap="round" stroke-linejoin="round" stroke-width="1.5" d="M67.128 345.094s86.843 32.412 162.013 18.416M212.719 135.166s26 22.607 29.309 51.9c0 0 4.917-76.319 6.572-79.635s4.412 12.441 4.412 12.441 20.409 6.904 9.929 21.827c0 0 28.375 88.431-33.801 97.275M156.554 126.265s-21.764 11.014-39.047 50.808c0 0-28.683-46.491-48.908-53.46-20.225-6.968-24.27-7.78-25.005-6.637-.736 1.143 10.296 9.249 10.296 9.249s-5.516 17.222 11.4 20.586c0 0 2.606 73.741 34.766 84.058s61.01-32.056 61.01-32.056"/><path fill="#D7DADD" d="M295.606 281.86a10.4 10.4 0 0 1-8.649-4.63 10.43 10.43 0 0 1-.962-9.777 10.41 10.41 0 0 1 7.58-6.233 10.37 10.37 0 0 1 5.048.249 10.4 10.4 0 0 1 4.334 2.604 10.43 10.43 0 0 1 2.253 11.354 10.4 10.4 0 0 1-3.829 4.675 10.4 10.4 0 0 1-5.775 1.758m0-17.735a7.28 7.28 0 0 0-4.626 1.657 7.314 7.314 0 0 0-1.806 9.091 7.3 7.3 0 0 0 3.641 3.305 7.275 7.275 0 0 0 8.851-2.693 7.3 7.3 0 0 0 1.191-4.776 7.3 7.3 0 0 0-2.103-4.448 7.2 7.2 0 0 0-5.148-2.136"/><path fill="#D7DADD" d="M311.555 289.484a1.52 1.52 0 0 1-1.123-.475l-9.678-10.172a1.553 1.553 0 0 1-.036-2.268 1.55 1.55 0 0 1 1.768-.263c.189.097.357.231.492.395l9.689 10.173a1.534 1.534 0 0 1-.259 2.359 1.53 1.53 0 0 1-.853.251"/><path fill="#787A80" d="M119.98 63.115 36.55 76.813a.514.514 0 0 1-.591-.425L25.818 14.374a.516.516 0 0 1 .424-.592L109.672.083a.524.524 0 0 1 .591.426l10.142 62.014a.52.52 0 0 1-.425.592M36.892 75.712l82.413-13.532-9.974-60.995-82.414 13.532z"/><path fill="#787A80" d="m43.484 63.141-.101.017c-7.324.962-10.463-5.663-10.495-5.731a.535.535 0 0 1 .673-.721.53.53 0 0 1 .298.28c.115.252 2.87 6 9.428 5.142l.03-.005c3.212-.527 4.067-9.523 4.805-17.516.733-8.275 1.538-16.112 4.714-17.428a5.03 5.03 0 0 1 4-.103c3.252 1.38 5.222 6.409 7.559 12.214a82 82 0 0 0 4.314 9.663c2.57 4.617 6.38 7.117 9.51 6.227 3.878-1.108 5.96-7.136 5.543-16.132-1.18-25.65 7.087-29.84 10.67-30.45l.132-.021c8.983-1.475 14.417 2.598 19.368 14.498a.54.54 0 0 1-.002.405.527.527 0 0 1-.976-.004C108.163 11.98 103.215 8.202 94.701 9.6l-.122.02c-6.96 1.143-10.63 12.2-9.802 29.387.45 9.638-1.844 15.9-6.29 17.164-3.577 1.037-7.88-1.675-10.687-6.714a84 84 0 0 1-4.368-9.737c-2.13-5.369-4.137-10.434-7.008-11.656a4 4 0 0 0-3.206.108c-2.618 1.089-3.39 9.318-4.072 16.57-.917 9.131-1.689 17.747-5.662 18.4"/><path fill="#D7DADD" d="m108.083 39.164-11.655 1.913a.514.514 0 0 1-.5-.81c.079-.11.2-.186.334-.208l11.654-1.913a.515.515 0 0 1 .167 1.018M108.868 43.978l-11.654 1.914a.514.514 0 0 1-.592-.426.517.517 0 0 1 .425-.592l11.654-1.914a.515.515 0 0 1 .167 1.018M103.821 49.73l-5.822.957a.514.514 0 0 1-.591-.426.516.516 0 0 1 .424-.593l5.822-.955a.515.515 0 0 1 .167 1.018M47.481 17.394l-11.654 1.914a.514.514 0 0 1-.591-.426.517.517 0 0 1 .424-.592l11.655-1.914a.514.514 0 0 1 .498.808.53.53 0 0 1-.332.21M48.278 22.261l-11.654 1.914a.514.514 0 0 1-.592-.426.516.516 0 0 1 .425-.592l11.655-1.914a.524.524 0 0 1 .59.426.516.516 0 0 1-.424.592M43.227 27.992l-5.822.956a.514.514 0 0 1-.591-.425.516.516 0 0 1 .425-.593l5.822-.956a.514.514 0 0 1 .501.81.52.52 0 0 1-.335.208"/><path fill="#00F0B5" d="M45.87 271.012-.003 254.771l11.984-33.988.833.295-11.69 33.152 45.042 15.946z"/><path fill="#00F0B5" d="m19.074 242.376-5.393-1.909-5.708 16.187 5.393 1.91zM32.566 239.214l-5.393-1.909-8.197 23.245 5.393 1.91zM46.413 238.46l-5.393-1.909-9.97 28.274 5.393 1.909z"/></svg>