<svg xmlns="http://www.w3.org/2000/svg" width="48" height="48" fill="none"><path fill="#7772F1" d="M37.5 14.25H24a.937.937 0 1 0 0 1.875h13.5a.938.938 0 0 0 0-1.875M34.221 19.025a.94.94 0 0 0-.662-.275c-.247 0-.489.1-.663.275a.94.94 0 0 0-.275.663c0 .246.1.488.275.662a.94.94 0 0 0 .663.275c.246 0 .488-.1.662-.275a.94.94 0 0 0 .275-.663c0-.246-.1-.488-.275-.662M24.66 4.306a.95.95 0 0 0-.662-.275c-.247 0-.488.1-.663.275a.95.95 0 0 0-.274.663c0 .246.1.488.274.663a.95.95 0 0 0 .663.274c.247 0 .488-.1.663-.274a.95.95 0 0 0 .274-.663c0-.247-.1-.489-.274-.663M29.614 18.75H24a.937.937 0 1 0 0 1.875h5.613a.938.938 0 0 0 0-1.875M37.5 24.375H24a.937.937 0 1 0 0 1.875h13.5a.938.938 0 0 0 0-1.875M34.221 29.15a.94.94 0 0 0-.662-.275c-.247 0-.489.1-.663.275a.94.94 0 0 0-.275.663c0 .246.1.488.275.662a.94.94 0 0 0 .663.275c.246 0 .488-.1.662-.275a.94.94 0 0 0 .275-.663c0-.246-.1-.488-.275-.662M29.614 28.875H24a.937.937 0 1 0 0 1.875h5.613a.938.938 0 0 0 0-1.875M37.5 34.5H24a.937.937 0 1 0 0 1.875h13.5a.938.938 0 0 0 0-1.875M34.221 39.275A.94.94 0 0 0 33.56 39c-.247 0-.489.1-.663.275a.94.94 0 0 0-.275.663c0 .246.1.488.275.662a.94.94 0 0 0 .663.275c.246 0 .488-.1.662-.275a.94.94 0 0 0 .275-.663c0-.246-.1-.488-.275-.662M29.614 39H24a.937.937 0 1 0 0 1.875h5.613a.938.938 0 0 0 0-1.875"/><path fill="#7772F1" d="M39.304 3.656h-7.16a5.74 5.74 0 0 0-3.974-1.594h-.822A3.76 3.76 0 0 0 24 0c-1.431 0-2.72.82-3.349 2.063h-.823c-1.54 0-2.938.607-3.973 1.593H8.696a4.576 4.576 0 0 0-4.571 4.571V43.43c0 2.52 2.05 4.571 4.571 4.571h30.608c2.52 0 4.57-2.05 4.57-4.571V8.227c0-2.52-2.05-4.57-4.57-4.57m-19.476.281h1.461a.94.94 0 0 0 .904-.687A1.88 1.88 0 0 1 24 1.875c.84 0 1.583.565 1.807 1.375a.94.94 0 0 0 .904.687h1.459c2.035 0 3.71 1.57 3.877 3.563H15.95a3.896 3.896 0 0 1 3.877-3.563M42 43.43a2.7 2.7 0 0 1-2.696 2.696H8.696A2.7 2.7 0 0 1 6 43.43V8.227a2.7 2.7 0 0 1 2.696-2.696h5.845a5.7 5.7 0 0 0-.479 2.297v.61c0 .517.42.937.938.937h17.998c.518 0 .938-.42.938-.937v-.61c0-.816-.172-1.592-.48-2.297h5.848A2.7 2.7 0 0 1 42 8.227z"/><path fill="#7772F1" d="M18.037 14.023a.94.94 0 0 0-1.325 0l-4.01 4.009-1.234-1.235a.938.938 0 0 0-1.326 1.325l1.898 1.898a.934.934 0 0 0 1.326 0l4.671-4.671a.94.94 0 0 0 0-1.326M15.75 34.5h-4.5a.937.937 0 0 0-.937.938v4.5c0 .517.42.937.937.937h4.5c.518 0 .938-.42.938-.937v-4.5a.937.937 0 0 0-.938-.938m-.937 4.5h-2.626v-2.625h2.626zM15.75 24.375h-4.5a.937.937 0 0 0-.937.938v4.5c0 .517.42.937.937.937h4.5c.518 0 .938-.42.938-.937v-4.5a.937.937 0 0 0-.938-.938m-.937 4.5h-2.626V26.25h2.626z"/></svg>