<svg xmlns="http://www.w3.org/2000/svg" width="48" height="48" fill="none"><g fill="#7772F1" clip-path="url(#a)"><path d="M16.64 31.014a.943.943 0 0 0-1.326 0 .95.95 0 0 0-.275.663.941.941 0 0 0 1.6.663.94.94 0 0 0 .275-.663c0-.246-.1-.488-.275-.663"/><path d="M48 31.866c0-1.893-1.33-3.48-3.105-3.88.42-.63.665-1.386.665-2.199a3.98 3.98 0 0 0-3.976-3.977H31.15l1.365-4.051c.55-1.635.42-3.38-.37-4.915a6.28 6.28 0 0 0-3.785-3.157l-1.645-.5a.937.937 0 0 0-1.154.578l-2.585 7.143a8.8 8.8 0 0 1-4.073 4.743l-2.582 1.406a3.05 3.05 0 0 0-2.457-1.246H.938a.94.94 0 0 0-.938.937v24.314c0 .518.42.938.938.938h12.927a3.05 3.05 0 0 0 2.632-1.514l1.324.519c1.683.66 3.454.995 5.262.995h16.381a3.98 3.98 0 0 0 3.977-3.977c0-.82-.25-1.581-.675-2.215a3.98 3.98 0 0 0 3.038-3.864c0-.835-.26-1.61-.702-2.251A3.98 3.98 0 0 0 48 31.866m-3.977 2.102h-9.642a.938.938 0 0 0 0 1.875h7.446c1.159 0 2.102.943 2.102 2.101a2.104 2.104 0 0 1-2.102 2.102H34.38a.938.938 0 0 0 0 1.875h5.084c1.16 0 2.102.943 2.102 2.102a2.104 2.104 0 0 1-2.102 2.102H23.083c-1.573 0-3.113-.291-4.578-.866l-1.592-.624v-9.198a.938.938 0 0 0-1.875 0v9.515c0 .646-.526 1.173-1.173 1.173H1.875v-22.44h11.99c.647 0 1.173.527 1.173 1.174v3.183a.938.938 0 0 0 1.875 0V24.87l2.888-1.572a10.68 10.68 0 0 0 4.94-5.752l2.282-6.306.793.241a4.42 4.42 0 0 1 2.662 2.221 4.42 4.42 0 0 1 .261 3.458l-1.781 5.288a.937.937 0 0 0 .888 1.237h11.738c1.159 0 2.101.943 2.101 2.102a2.104 2.104 0 0 1-2.101 2.102H34.38a.938.938 0 0 0 0 1.875h9.642c1.16 0 2.102.943 2.102 2.102s-.943 2.102-2.102 2.102"/><path d="M10.235 38.958a2.63 2.63 0 0 0-2.626 2.626 2.63 2.63 0 0 0 2.626 2.626 2.63 2.63 0 0 0 2.626-2.626 2.63 2.63 0 0 0-2.626-2.626m0 3.377a.752.752 0 0 1 0-1.502.752.752 0 0 1 0 1.502M28.675.275A.94.94 0 0 0 28.011 0c-.247 0-.489.1-.663.275a.95.95 0 0 0-.275.662c0 .247.1.489.275.663a.94.94 0 0 0 .663.275c.246 0 .488-.1.662-.275a.94.94 0 0 0 .275-.663c0-.246-.1-.488-.275-.662M28.012 3.5a.94.94 0 0 0-.938.938v2.28a.938.938 0 0 0 1.875 0v-2.28a.94.94 0 0 0-.937-.938M40.318 12.305h-5.78a.937.937 0 1 0 0 1.875h5.78a.938.938 0 0 0 0-1.875M21.49 12.305H15.71a.938.938 0 0 0 0 1.875h5.781a.938.938 0 0 0 0-1.875M23.375 7.277l-2.73-2.73a.938.938 0 0 0-1.325 1.327l2.73 2.73a.935.935 0 0 0 1.325 0 .94.94 0 0 0 0-1.327M36.707 4.55a.94.94 0 0 0-1.326 0l-2.73 2.73a.938.938 0 0 0 1.326 1.325l2.73-2.73a.94.94 0 0 0 0-1.325"/></g><defs><clipPath id="a"><path fill="#fff" d="M0 0h48v48H0z"/></clipPath></defs></svg>