<svg xmlns="http://www.w3.org/2000/svg" width="800" height="800" fill="none" viewBox="0 0 24 24"><g fill="#000"><path fill-rule="evenodd" d="M7.547 7.272 5.513 5.237a1 1 0 0 1 1.414-1.414l15 15a1 1 0 1 1-1.414 1.414l-2.093-2.092a23 23 0 0 1-.16.735c-.31 1.322-1.5 2.12-2.754 2.12a3 3 0 0 1-2.029-.79l-2.929-2.684A2 2 0 0 0 9.197 17H9a4 4 0 0 1-4-4v-2a4 4 0 0 1 2.547-3.728m9.144 9.143a24 24 0 0 1-.378 2.007c-.075.319-.375.578-.807.578-.25 0-.492-.094-.677-.264l-2.93-2.685A4 4 0 0 0 9.198 15H9a2 2 0 0 1-2-2v-2a2 2 0 0 1 2-2h.274z" clip-rule="evenodd"/><path d="M16.313 5.578c.293 1.243.667 3.376.686 6.196l1.958 1.958Q18.999 12.91 19 12c0-3.108-.41-5.476-.74-6.88C17.95 3.798 16.76 3 15.506 3c-.751 0-1.475.282-2.029.79L11.15 5.923l1.415 1.415 2.265-2.075c.185-.17.426-.264.677-.264.432 0 .732.26.807.578"/></g></svg>