<svg xmlns="http://www.w3.org/2000/svg" width="800" height="800" fill="none" stroke="#000" viewBox="0 0 24 24"><g fill="#000"><path fill-rule="evenodd" d="M2 13a4 4 0 0 0 4 4h.197a2 2 0 0 1 1.351.526l2.93 2.685c.553.507 1.277.789 2.028.789 1.253 0 2.443-.798 2.754-2.12.33-1.404.74-3.772.74-6.88s-.41-5.476-.74-6.88C14.95 3.798 13.76 3 12.506 3c-.751 0-1.475.282-2.029.79L7.548 6.473A2 2 0 0 1 6.197 7H6a4 4 0 0 0-4 4zm4 2a2 2 0 0 1-2-2v-2a2 2 0 0 1 2-2h.197A4 4 0 0 0 8.9 7.949l2.929-2.685c.185-.17.426-.264.677-.264.432 0 .732.26.807.578.3 1.276.687 3.49.687 6.422 0 2.933-.387 5.146-.687 6.422-.075.319-.375.578-.807.578-.25 0-.492-.094-.677-.264l-2.93-2.685A4 4 0 0 0 6.198 15z" clip-rule="evenodd"/><path d="M20.572 6.096a1 1 0 0 1 1.332.476c.74 1.566 1.094 3.512 1.096 5.417s-.347 3.859-1.096 5.44a1 1 0 0 1-1.808-.857c.592-1.248.906-2.893.904-4.581s-.32-3.327-.904-4.563a1 1 0 0 1 .476-1.332Z"/><path d="M17.553 15.894a1 1 0 0 1-.447-1.341c.859-1.719.859-3.387 0-5.106a1 1 0 1 1 1.788-.894c1.141 2.281 1.141 4.613 0 6.894a1 1 0 0 1-1.341.447Z"/></g></svg>