<svg xmlns="http://www.w3.org/2000/svg" width="591" height="526" fill="none"><path fill="#B3B7BC" d="m73.691 305.62 81.57 73.306L191.464 526l59.017-14.326-9.886-10.534s-2.27-221.18-98.044-256.695"/><rect width="92.02" height="33.109" x="28.629" y="303.758" fill="#00F0B5" rx="16.555"/><path stroke="#1E212C" stroke-linecap="round" stroke-linejoin="round" stroke-width="1.5" d="M104.148 336.866h-59.02"/><path fill="#D7DADD" d="M79.387 63.769v27.264l33.663 8.302v-46.01l-33.663-8.302z"/><path stroke="#fff" stroke-linecap="round" stroke-linejoin="round" stroke-width="1.5" d="M83.252 77.61c-.3.375-.38.88-.213 1.33.167.449.558.777 1.028.863 1.884.657 5.248-2.822 7.537-.449 0 0 .905-2.868 7-.38 6.096 2.486 4.416-1.937 4.416-1.937"/><path fill="#1E212C" d="M98.404 73.203c.497 0 .9-.405.9-.903a.9.9 0 0 0-.9-.903c-.497 0-.9.404-.9.903 0 .498.403.903.9.903M84.58 73.203c.498 0 .9-.405.9-.903a.9.9 0 0 0-.9-.903c-.496 0-.9.404-.9.903 0 .498.404.903.9.903"/><path stroke="#1E212C" stroke-linecap="round" stroke-linejoin="round" stroke-width="1.5" d="M88.633 77.687V63.77h-6.95M100.097 63.77h-6.949"/><path fill="#E5E8ED" d="M110.836 70.9v4.834c2.598 0 4.705-2.114 4.705-4.72q0-.218-.019-.43c-.264-2.931-4.686-2.626-4.686.317"/><path stroke="#1E212C" stroke-linecap="round" stroke-linejoin="round" stroke-width="1.5" d="M110.836 75.733a4.713 4.713 0 0 0 4.705-4.72M102.254 96.673l10.796 2.662M88.637 77.697l3.039.75"/><path stroke="#fff" stroke-linecap="round" stroke-linejoin="round" stroke-width="1.5" d="M79.387 74.646s-7.822 16.766 4.291 22.073c12.113 5.306 29.399-8.085 27.155-23.516M78.129 56.286s2.687 4.997 12.026 5.205v-3.083a25.1 25.1 0 0 0 13.782 3.715v-2.441s5.817 6.555 1.163 11.714"/><path stroke="#1E212C" stroke-linecap="round" stroke-linejoin="round" stroke-width="1.5" d="M92.313 83.071a3.54 3.54 0 0 0 3.535-3.548"/><path stroke="#fff" stroke-linecap="round" stroke-linejoin="round" stroke-width="1.5" d="M79.391 69.923s-13.6-23.559 1.217-26.424 24.971 3.82 24.971 3.82 22.408 4.56 7.476 21.223"/><path fill="#00F0B5" d="M51.164 148.158v73.753l104.137 25.679v-82.14c0-29.126-19.818-54.489-48.009-61.44a45.2 45.2 0 0 0-38.772 8.37c-10.956 8.618-17.356 21.81-17.356 35.778"/><path fill="#D7DADD" d="M51.169 221.91S33.074 347.69 166.345 327.636l.635 105.726h64.464l-9.887-8.629s57.116-157.906-66.251-177.143"/><path stroke="#1E212C" stroke-linecap="round" stroke-linejoin="round" stroke-width="1.5" d="M166.976 433.361h64.464M51.169 221.91S33.074 347.69 166.345 327.636l.635 105.726"/><path stroke="#fff" stroke-linecap="round" stroke-linejoin="round" stroke-width="1.5" d="M1 433.139h154.257M74.69 336.754v96.199M73.691 108.859s-43.156 24.895-37.656 84.747c5.5 59.851 100.215 22.497 126.051 3.82 0 0 13.987-10.27 10.602-27.028l8.118-5.498-2.192-4.828-96.925 15.061 3.794-23.55"/><path fill="#1E212C" d="M55.11 222.374c7.577 11.722 29.704 16.751 53.583 11.252 21.476-4.945 37.97-16.932 42.328-29.38-24.842 13.536-70.124 29.335-95.91 18.128"/><path stroke="#fff" stroke-linecap="round" stroke-linejoin="round" stroke-width="1.5" d="m121.227 109.256 64.151 29.591s14.807-58.675 32.154-61.81c17.346-3.135 17.221-1.304 17.221-1.304l-.984 4.605-8.248 2.733s3.857 19.085-6.297 19.602c0 0 31.531 115.52-65.466 100.042"/><path fill="#B3B7BC" d="m486.796 225.83-162.163-55.29 20.665-83.615 174.303 6.345z"/><path fill="#E5E8ED" d="M398.092 350.232 218.199 224.696l106.434-54.27 162.163 55.403z"/><path fill="#1E212C" d="M396.796 304.347 264.39 219.202l1.524-.566 131.56 84.578zM415.429 279.704l-131.278-72.002 1.299-.793 130.995 71.605zM433.554 257.667l-128.793-60.275 1.242-.85 128.285 60.049zM452.019 234.894l-129.415-49.625 1.356-.85 129.075 49.229z"/><path fill="#1E212C" d="m270.542 237.443-1.468-.793 79.218-45.886 1.638.566zM304.481 260.104l-1.412-.737 71.427-59.822 1.468.453zM339.651 283.897l-1.242-.793 67.135-72.342 1.412.34zM375.736 307.802l-.96-.793 67.248-82.085 1.242.453z"/><path fill="#fff" d="M527.845 88.85a1.14 1.14 0 0 0-.622-.17l-161.88-5.155h-.057l-19.988 3.4 5.59.226 14.455-2.323 159.961 5.099-5.647 3.342-.395 1.7 7.397-4.532-36.25 147.856-3.5-12.633-159.397-54.271-1.637.85 160.13 54.724 3.67 13.992-92.6 130.578 2.033-22.773-1.016 1.473-2.089 22.943-175.771-131.201-.678-16.315-1.355-.963.791 17.958 177.013 132.39 95.027-133.807 37.097-151.594c.056-.284-.057-.567-.282-.794"/><path fill="#fff" d="M369.356 156.508a22.2 22.2 0 0 1-4.407-1.72 20 20 0 0 1-3.79-2.5 20.5 20.5 0 0 1-3.041-2.968 16.7 16.7 0 0 1-2.206-3.573l11.973-7.499a11.6 11.6 0 0 0 2.373 3.916 8.76 8.76 0 0 0 4.127 2.565 4.8 4.8 0 0 0 2.159.08c.362-.062.7-.218.98-.453s.49-.54.61-.882c.165-.352.207-.747.121-1.124a2.85 2.85 0 0 0-.679-1.175c-.5-.58-1.062-1.105-1.677-1.566-.723-.614-1.655-1.339-2.8-2.206a21.7 21.7 0 0 1-2.989-2.776 11.2 11.2 0 0 1-2.149-3.317 10.8 10.8 0 0 1-.704-4.115 14.6 14.6 0 0 1 1.278-5.162 18.2 18.2 0 0 1 4.393-6.484 18.3 18.3 0 0 1 5.735-3.611 17.8 17.8 0 0 1 6.306-1.182 23 23 0 0 1 6.066.738 18.7 18.7 0 0 1 6.991 3.751 17.45 17.45 0 0 1 4.897 6.673l-11.932 6.907a7.4 7.4 0 0 0-2.017-3.657 6.76 6.76 0 0 0-3.03-1.857 5.4 5.4 0 0 0-2.468-.18 2.06 2.06 0 0 0-1.498 1.261c-.166.271-.24.588-.209.903.032.315.165.612.382.845.734.729 1.53 1.394 2.381 1.987a51 51 0 0 1 3.598 2.911 16 16 0 0 1 3.144 3.676 11.6 11.6 0 0 1 1.555 4.684 12.55 12.55 0 0 1-1.133 5.965 19.6 19.6 0 0 1-4.297 6.442 18.6 18.6 0 0 1-5.713 3.837 18.1 18.1 0 0 1-6.307 1.51c-2.03.1-4.063-.117-6.023-.644M408.679 117.427l26.299 7.331-5.092 12.274-14.245-3.955-1.565 3.769 13.335 3.713-4.676 11.503-13.5-3.73-1.695 4.113 15.122 4.198-5.092 12.274-27.209-7.573zM430.584 147.805a30.7 30.7 0 0 1 5.72-9.011 27.2 27.2 0 0 1 7.51-5.937 24.23 24.23 0 0 1 17.812-1.999 20.7 20.7 0 0 1 7.822 3.92 17 17 0 0 1 4.859 6.383 19.1 19.1 0 0 1 1.49 8.394 28.3 28.3 0 0 1-2.328 9.889 32.7 32.7 0 0 1-5.713 9.076 27.4 27.4 0 0 1-7.625 6.113 24.6 24.6 0 0 1-8.771 2.875 23.9 23.9 0 0 1-9.153-.667 20.2 20.2 0 0 1-7.792-3.957 17.2 17.2 0 0 1-4.778-6.555 20.4 20.4 0 0 1-1.374-8.569c.159-3.43.946-6.803 2.321-9.955m13.588 3.742a15 15 0 0 0-1.084 4.083 9.7 9.7 0 0 0 .346 3.513 6.2 6.2 0 0 0 1.586 2.668 6.4 6.4 0 0 0 2.729 1.536 7.5 7.5 0 0 0 3.314.098 8.8 8.8 0 0 0 3.173-1.334 12.3 12.3 0 0 0 3.044-2.635 16 16 0 0 0 2.206-3.767 13.5 13.5 0 0 0 1.057-4.015 7.9 7.9 0 0 0-.321-3.253 6.16 6.16 0 0 0-1.638-2.531 6 6 0 0 0-2.725-1.503 8 8 0 0 0-3.321-.163 9.9 9.9 0 0 0-3.186 1.204 11.2 11.2 0 0 0-2.789 2.543 14.5 14.5 0 0 0-2.26 3.543z"/><path fill="#E5E8ED" d="m338.303 49.575-66.82 17.419-12.838-49.576 1.212-.316 12.523 48.357 65.607-17.102z"/><path fill="#E5E8ED" d="m284.155 37.23-7.861 2.048 6.128 23.662 7.861-2.05zM297.105 22.427l-7.861 2.05 8.9 34.365 7.861-2.05zM313.178 10.42l-7.861 2.049 10.797 41.688 7.861-2.049z"/><path fill="#00F0B5" d="M466.06 387.064a36.83 36.83 0 0 0 5.994 20.166 36.67 36.67 0 0 0 16.039 13.561 36.5 36.5 0 0 0 20.825 2.507 36.6 36.6 0 0 0 18.782-9.366 36.78 36.78 0 0 0 10.581-18.17 36.86 36.86 0 0 0-1.091-21.015 36.74 36.74 0 0 0-12.404-16.97 36.56 36.56 0 0 0-19.65-7.359v36.646z"/><path fill="#D7DADD" d="M462.096 382.799h39.076v-36.686a31 31 0 0 0-2.44-.087c-4.813 0-9.578.952-14.024 2.8a36.6 36.6 0 0 0-11.888 7.972 36.8 36.8 0 0 0-7.94 11.93 36.85 36.85 0 0 0-2.784 14.071"/><path fill="#B3B7BC" d="m545.027 237.579 41.556-13.852-10.62-31.933-7.611-3.918-35.877 11.959z"/><path fill="#fff" d="m545.59 237.861 44.541-14.847a.26.26 0 0 0 .151-.13.27.27 0 0 0 .014-.199l-11.383-34.227a.27.27 0 0 0-.127-.149l-8.157-4.194a.27.27 0 0 0-.201-.017l-38.455 12.819a.26.26 0 0 0-.164.329l13.454 40.456a.26.26 0 0 0 .13.148.241.241 0 0 0 .197.011m44.131-15.259-44.027 14.676-13.291-39.962 38.08-12.693 7.971 4.101z"/><path fill="#fff" d="m539.242 205.956 36.719-12.24a.26.26 0 0 0 .034-.48.26.26 0 0 0-.199-.014l-36.718 12.24a.26.26 0 0 0-.164.329.26.26 0 0 0 .328.165M541.2 211.836l36.719-12.24a.26.26 0 0 0 .034-.48.26.26 0 0 0-.198-.014l-36.719 12.239a.26.26 0 0 0-.164.33.26.26 0 0 0 .328.165M543.138 217.672l36.718-12.24a.26.26 0 0 0 .151-.13.26.26 0 0 0-.315-.364l-36.719 12.239a.262.262 0 0 0-.034.481.26.26 0 0 0 .199.014M545.086 223.529l36.719-12.239a.26.26 0 0 0 .164-.33.3.3 0 0 0-.049-.09.3.3 0 0 0-.08-.063.26.26 0 0 0-.2-.012l-36.719 12.24a.26.26 0 0 0-.154.13.257.257 0 0 0 .119.351c.062.03.134.035.2.013M547.035 229.388l36.719-12.24a.258.258 0 0 0 .15-.131.26.26 0 0 0 .014-.198.255.255 0 0 0-.329-.165l-36.718 12.239a.3.3 0 0 0-.09.05.24.24 0 0 0-.064.08.3.3 0 0 0-.028.099.3.3 0 0 0 .012.102.27.27 0 0 0 .334.164M572.665 190.739l5.99-1.997a.262.262 0 0 0 .132-.321.265.265 0 0 0-.298-.178l-5.744 1.914-2.085-5.949a.277.277 0 0 0-.335-.163.26.26 0 0 0-.145.135.27.27 0 0 0-.012.198l2.168 6.196a.265.265 0 0 0 .329.165"/></svg>