<svg xmlns="http://www.w3.org/2000/svg" width="20" height="20" fill="none"><path fill="#1E212C" fill-rule="evenodd" d="M6.25 1.042c.46 0 .833.373.833.833v.417h5.833v-.417a.833.833 0 1 1 1.667 0v.417h1.041a3.333 3.333 0 0 1 3.334 3.333v10a3.333 3.333 0 0 1-3.334 3.334H4.374a3.333 3.333 0 0 1-3.333-3.334v-10a3.333 3.333 0 0 1 3.333-3.333h1.042v-.417c0-.46.373-.833.833-.833m-.834 2.917H4.374c-.92 0-1.666.746-1.666 1.666v1.042H17.29V5.625c0-.92-.746-1.666-1.667-1.666h-1.041v.416a.833.833 0 0 1-1.667 0V3.96H7.083v.416a.833.833 0 0 1-1.667 0zm11.875 4.375H2.708v7.291c0 .92.746 1.667 1.666 1.667h11.25c.92 0 1.667-.746 1.667-1.667z" clip-rule="evenodd"/></svg>