<svg xmlns="http://www.w3.org/2000/svg" width="40" height="40" fill="none"><path fill="#7772F1" d="M21.668 10.834a1.667 1.667 0 1 0-3.333 0V20c0 .442.175.866.488 1.179l5 5a1.667 1.667 0 1 0 2.357-2.357l-4.512-4.512z"/><path fill="#7772F1" fill-rule="evenodd" d="M20.001 1.667C9.876 1.667 1.668 9.875 1.668 20s8.208 18.334 18.333 18.334S38.335 30.125 38.335 20 30.127 1.667 20 1.667M5.001 20c0-8.284 6.716-15 15-15 8.285 0 15 6.716 15 15 0 8.285-6.715 15-15 15s-15-6.715-15-15" clip-rule="evenodd"/></svg>