<svg xmlns="http://www.w3.org/2000/svg" width="468" height="469" fill="none"><g stroke="#00F0B5" opacity=".4"><path d="M83.508 337.458c-25.621-10.413-42.287-23.356-50.128-38.777-7.829-15.398-6.913-33.377 2.875-54.005q29.484-62.134 60.54-108.633c20.638-30.903 53.557-53.116 98.817-66.607 45.175-13.465 90.476-4.926 135.939 25.69 22.735 15.309 39.001 32.254 48.836 50.824 9.831 18.564 13.248 38.779 10.245 60.662q-9.05 65.929-19.377 112.878c-6.859 31.184-25 58.136-54.47 80.856-14.698 11.331-30.36 17.092-46.996 17.311-16.643.219-34.302-5.108-52.986-16.024q-56.256-32.868-133.295-64.175Z"/><path d="M111.88 317.918c-20.8-8.457-34.314-18.957-40.671-31.449-6.346-12.467-5.616-27.029 2.317-43.752q23.92-50.42 49.117-88.146c16.733-25.055 43.436-43.064 80.17-53.994 36.648-10.905 73.408-3.967 110.318 20.887 18.458 12.428 31.661 26.178 39.644 41.238 7.98 15.053 10.759 31.443 8.33 49.186q-7.326 53.51-15.695 91.612c-5.554 25.284-20.261 47.137-44.17 65.558-11.917 9.182-24.614 13.844-38.101 14.016-13.493.172-27.818-4.151-42.983-13.012q-45.701-26.703-108.276-52.144Z"/><path d="M129.328 305.947c-17.828-7.248-29.396-16.242-34.836-26.931-5.428-10.664-4.808-23.125 1.988-37.451q20.506-43.228 42.108-75.569c14.336-21.466 37.216-36.898 68.701-46.267 31.399-9.343 62.896-3.401 94.529 17.9 15.819 10.651 27.13 22.432 33.968 35.332 6.835 12.894 9.215 26.931 7.134 42.131q-6.28 45.878-13.456 78.543c-4.757 21.661-17.357 40.384-37.846 56.17-10.207 7.864-21.079 11.856-32.626 12.003-11.553.147-23.822-3.554-36.817-11.147q-39.191-22.899-92.847-44.714Z"/></g></svg>