<svg xmlns="http://www.w3.org/2000/svg" width="319" height="243" fill="none"><g stroke="#fff" opacity=".4"><path d="M56.904 187.559c-17.425-7.081-28.728-15.872-34.04-26.32-5.3-10.424-4.69-22.608 1.959-36.62Q44.889 82.333 66.02 50.693c14.023-20.997 36.395-36.1 67.178-45.275 30.698-9.15 61.485-3.352 92.399 17.466 15.46 10.41 26.512 21.927 33.191 34.539 6.675 12.605 8.997 26.331 6.956 41.196q-6.16 44.873-13.187 76.823c-4.66 21.185-16.984 39.5-37.02 54.946-9.98 7.695-20.609 11.602-31.895 11.751-11.292.148-23.284-3.466-35.984-10.886q-38.307-22.38-90.754-43.694Z"/><path d="M76.216 174.259c-14.142-5.75-23.3-12.877-27.603-21.331-4.29-8.43-3.806-18.288 1.58-29.642q16.278-34.312 33.422-59.98C94.98 46.288 113.12 34.048 138.1 26.615c24.892-7.407 49.866-2.7 74.958 14.197 12.549 8.45 21.515 17.791 26.934 28.013 5.416 10.216 7.302 21.339 5.653 33.385q-4.986 36.42-10.681 62.347c-3.771 17.169-13.758 32.014-30.008 44.534-8.088 6.231-16.698 9.391-25.84 9.507-9.148.117-18.871-2.814-29.176-8.835q-31.122-18.184-73.724-35.505Z"/><path d="M88.093 166.11c-12.12-4.927-19.953-11.03-23.63-18.256-3.666-7.203-3.258-15.631 1.354-25.352q13.956-29.417 28.652-51.42c9.733-14.573 25.271-25.06 46.677-31.43 21.32-6.344 42.711-2.314 64.211 12.164 10.753 7.24 18.431 15.241 23.071 23.993 4.636 8.746 6.251 18.267 4.839 28.582q-4.276 31.225-9.157 53.452c-3.229 14.702-11.781 27.416-25.704 38.142-6.924 5.335-14.291 8.038-22.113 8.138-7.827.099-16.151-2.408-24.979-7.566q-26.69-15.594-63.221-30.447Z"/></g></svg>