<svg width="319" height="243" viewBox="0 0 319 243" fill="none" xmlns="http://www.w3.org/2000/svg">
<g opacity="0.4">
<path d="M56.9036 187.559C39.479 180.478 28.1757 171.687 22.8635 161.239C17.5638 150.815 18.1737 138.631 24.8226 124.619C38.1999 96.4278 51.9327 71.7865 66.02 50.6928C80.0429 29.6956 102.415 14.5936 133.198 5.41811C163.896 -3.73169 194.683 2.06602 225.597 22.8842C241.057 33.2949 252.109 44.8111 258.788 57.4227C265.463 70.0281 267.785 83.7544 265.744 98.6186C261.638 128.535 257.242 154.142 252.557 175.442C247.897 196.627 235.573 214.942 215.537 230.388C205.557 238.083 194.928 241.99 183.642 242.139C172.35 242.287 160.358 238.673 147.658 231.253C122.121 216.333 91.8685 201.769 56.9036 187.559Z" stroke="white"/>
<path d="M76.2162 174.259C62.0736 168.509 52.9158 161.382 48.6133 152.928C44.3232 144.498 44.8067 134.64 50.1927 123.286C61.0445 100.411 72.1856 80.418 83.6148 63.3053C94.9796 46.2891 113.121 34.0489 138.1 26.6161C162.992 19.2089 187.966 23.9169 213.058 40.8132C225.607 49.263 234.573 58.604 239.992 68.8262C245.408 79.0423 247.294 90.1649 245.645 102.211C242.321 126.492 238.761 147.273 234.964 164.558C231.193 181.727 221.206 196.572 204.956 209.092C196.868 215.323 188.258 218.483 179.116 218.599C169.968 218.716 160.245 215.785 149.94 209.764C129.193 197.641 104.617 185.807 76.2162 174.259Z" stroke="white"/>
<path d="M88.0928 166.11C75.9737 161.183 68.14 155.08 64.4622 147.854C60.7968 140.651 61.2054 132.223 65.8173 122.502C75.1207 102.89 84.6716 85.7508 94.4689 71.0815C104.202 56.5087 119.74 46.0218 141.146 39.6522C162.466 33.3082 183.857 37.3384 205.357 51.8158C216.11 59.0562 223.788 67.0573 228.428 75.809C233.064 84.5546 234.679 94.0762 233.267 104.391C230.417 125.208 227.364 143.025 224.11 157.843C220.881 172.545 212.329 185.259 198.406 195.985C191.482 201.32 184.115 204.023 176.293 204.123C168.466 204.222 160.142 201.715 151.314 196.557C133.521 186.161 112.447 176.012 88.0928 166.11Z" stroke="white"/>
</g>
</svg>
