<svg xmlns="http://www.w3.org/2000/svg" width="1145" height="967" fill="none"><g stroke="#00F0B5" opacity=".4"><path d="M744.604 824.046c7.612-7.001 15.572-14.07 23.656-21.249 26.11-23.188 53.509-47.52 74.613-74.377 27.62-35.15 44.38-74.536 33.303-121.204-10.754-45.31-46.018-68.528-87.733-87.821-10.425-4.822-21.244-9.394-32.178-14.005l-.771-.326c-10.679-4.503-21.459-9.049-32.067-13.902-21.727-9.937-42.756-21.168-60.765-35.978-19.742-16.235-36.628-37.446-52.326-60.073-7.851-11.315-15.408-22.991-22.877-34.58l-1.474-2.288c-6.97-10.816-13.874-21.532-20.887-31.794-30.056-43.979-61.966-79.391-109.051-78.52-50.238.929-96.161 29.582-130.995 71.19-34.831 41.606-58.524 96.111-64.316 148.619-4.998 45.304 17.968 82.819 48.251 119.411 9.14 11.044 18.925 21.981 28.8 33.018 6.493 7.257 13.024 14.556 19.436 21.959 16.15 18.642 31.508 37.897 43.445 58.608 11.446 19.859 19.935 42.246 27.508 65.09 3.001 9.053 5.856 18.171 8.693 27.233 4.33 13.828 8.619 27.527 13.326 40.672 15.578 43.506 35.612 80.573 76.284 95.136 42.331 15.158 81.097 3.468 117.19-19.295 29.422-18.555 57.005-44.426 83.24-69.033 5.966-5.596 11.862-11.127 17.695-16.491Z"/><path d="M707.841 768.321c5.996-5.515 12.266-11.083 18.632-16.736 20.556-18.255 42.118-37.404 58.728-58.542 21.735-27.661 34.913-58.64 26.202-95.34-8.455-35.623-36.178-53.885-69.016-69.073-8.207-3.795-16.724-7.395-25.332-11.026l-.611-.257c-8.406-3.545-16.895-7.125-25.248-10.946-17.109-7.825-33.676-16.673-47.866-28.342-15.555-12.792-28.857-29.502-41.219-47.32-6.182-8.91-12.133-18.104-18.014-27.229l-1.16-1.8c-5.487-8.517-10.923-16.953-16.444-25.032-23.666-34.629-48.76-62.459-85.769-61.775-39.513.731-75.644 23.268-103.058 56.014-27.411 32.742-46.057 75.637-50.615 116.958-3.93 35.624 14.127 65.132 37.966 93.939 7.196 8.694 14.897 17.302 22.671 25.99 5.112 5.713 10.255 11.462 15.306 17.293 12.717 14.68 24.815 29.846 34.218 46.162 9.017 15.645 15.704 33.279 21.667 51.267 2.364 7.132 4.612 14.312 6.846 21.447 3.409 10.885 6.785 21.667 10.49 32.015 12.264 34.251 28.024 63.391 59.996 74.84 33.285 11.919 63.772 2.731 92.175-15.182 23.156-14.603 44.863-34.964 65.519-54.338 4.699-4.406 9.342-8.762 13.936-12.987Z"/><path d="M681.284 728.058c4.829-4.441 9.877-8.924 15.002-13.475 16.543-14.692 33.888-30.095 47.25-47.101 17.484-22.25 28.073-47.154 21.071-76.653-6.794-28.624-29.067-43.305-55.493-55.527-6.603-3.053-13.456-5.95-20.385-8.872l-.488-.206c-6.767-2.854-13.601-5.736-20.327-8.812-13.773-6.3-27.116-13.425-38.546-22.825-12.53-10.304-23.243-23.762-33.194-38.105-4.977-7.173-9.767-14.574-14.501-21.918l-.933-1.448c-4.417-6.856-8.791-13.645-13.234-20.146-19.049-27.873-39.218-50.226-68.947-49.676-31.764.588-60.82 18.705-82.873 45.047-22.05 26.339-37.049 60.846-40.716 94.083-3.158 28.631 11.351 52.353 30.536 75.535 5.79 6.996 11.986 13.921 18.241 20.912 4.115 4.599 8.255 9.226 12.323 13.922 10.236 11.817 19.978 24.029 27.551 37.169 7.262 12.601 12.647 26.801 17.446 41.28 1.904 5.744 3.714 11.524 5.512 17.267 2.743 8.759 5.459 17.432 8.44 25.76 9.871 27.564 22.542 50.977 48.229 60.175 26.749 9.579 51.254 2.199 74.1-12.209 18.629-11.748 36.092-28.128 52.716-43.72 3.782-3.548 7.521-7.054 11.22-10.457Z"/></g></svg>