<svg xmlns="http://www.w3.org/2000/svg" width="16" height="17" fill="none"><path fill="#787A80" fill-rule="evenodd" d="M8 2.667a2.333 2.333 0 1 0 0 4.667 2.333 2.333 0 0 0 0-4.667M4.335 5.001a3.667 3.667 0 1 1 7.333 0 3.667 3.667 0 0 1-7.333 0M4.07 10.667c-.462 0-.824.225-.97.549-.203.447-.387.98-.43 1.485-.02.226.074.393.204.473.686.427 2.276 1.16 5.127 1.16s4.44-.733 5.126-1.16c.13-.08.224-.247.204-.473-.043-.505-.227-1.038-.43-1.485-.146-.324-.508-.549-.97-.549zm-2.185-.002c.406-.894 1.31-1.331 2.185-1.331h7.861c.874 0 1.78.437 2.185 1.331.232.513.482 1.203.544 1.922.056.655-.216 1.339-.83 1.72-.902.56-2.736 1.36-5.83 1.36s-4.927-.8-5.83-1.36c-.613-.381-.885-1.065-.829-1.72.062-.719.312-1.409.545-1.922" clip-rule="evenodd"/></svg>