<svg xmlns="http://www.w3.org/2000/svg" width="488" height="404" fill="none"><path fill="#E5E8ED" d="m291.271 47.259-9.906 56.768 67.372 29.544 16.717-95.799-67.372-29.544z"/><path stroke="#1E212C" stroke-linecap="round" stroke-linejoin="round" stroke-width="1.5" d="M291.277 47.259s19.293-4.498 26.388-18.289c0 0 7.622 30.198 31.232 38.545"/><path fill="#1E212C" d="M327.609 73.825a1.91 1.91 0 1 0 .658-3.759 1.91 1.91 0 0 0-.658 3.759M298.702 68.79a1.91 1.91 0 1 0 .658-3.763 1.91 1.91 0 0 0-.658 3.763"/><path stroke="#1E212C" stroke-linecap="round" stroke-linejoin="round" stroke-width="1.5" d="m305.555 79.602 5.057-28.976-14.53-2.531M334.582 54.801l-14.53-2.53"/><path fill="#EDEEEF" d="m354.433 73.559-1.756 10.062c5.433.947 10.605-2.686 11.552-8.115q.079-.452.116-.901c.514-6.2-8.843-7.174-9.912-1.047"/><path stroke="#1E212C" stroke-linecap="round" stroke-linejoin="round" stroke-width="1.5" d="M352.679 83.621c5.433.947 10.606-2.686 11.553-8.114M310.663 87.853c2.64.46 5.356-.147 7.548-1.687a10.1 10.1 0 0 0 4.144-6.526M281.367 104.026l67.371 29.545M305.551 79.627l6.082 2.667"/><path stroke="#1E212C" stroke-linecap="round" stroke-linejoin="round" stroke-width="1.5" d="M289.272 58.746S270.155-9.471 327.996 6.752c0 0 87.123 28.376 27.364 88.89"/><path fill="#D7DADD" d="M487.166 343.248H21.747a.83.83 0 0 1-.834-.833.83.83 0 0 1 .834-.833h465.419a.833.833 0 0 1 0 1.666"/><path fill="#fff" d="M120.51 189.486c66.133 0 119.744-40.978 119.744-91.527S186.643 6.432 120.51 6.432.766 47.41.766 97.959s53.611 91.527 119.744 91.527"/><path fill="#D7DADD" d="M120.562 190.319C54.085 190.319 0 148.896 0 97.959S54.035 5.615 120.562 5.615c66.526 0 120.578 41.423 120.578 92.344s-54.135 92.36-120.578 92.36m0-183.038C55.002 7.281 1.668 47.955 1.668 97.96s53.368 90.694 118.894 90.694c65.525 0 118.91-40.673 118.91-90.694S186.087 7.281 120.562 7.281"/><path fill="#fff" d="M253.581 58.585a7.7 7.7 0 0 0-1.668.234c-6.254 1.666-8.005 10.23-.984 12.53a7.15 7.15 0 0 0 7.864-3.014 7.1 7.1 0 0 0 1.059-2.785 6.2 6.2 0 0 0-.232-2.627 6.184 6.184 0 0 0-6.039-4.338"/><path fill="#B3B7BC" d="M252.781 72.482a7 7 0 0 1-2.135-.333 6.778 6.778 0 0 1-5.12-6.765 8.06 8.06 0 0 1 6.154-7.382 7.4 7.4 0 0 1 1.901-.233 7 7 0 0 1 5.339 2.315 6.98 6.98 0 0 1 1.733 5.55 7.56 7.56 0 0 1-3.536 5.515 8 8 0 0 1-4.336 1.333m.8-13.047c-.5-.005-.999.057-1.484.183a6.38 6.38 0 0 0-4.903 5.815 5.14 5.14 0 0 0 1.074 3.27 5.16 5.16 0 0 0 2.895 1.863 6.31 6.31 0 0 0 6.885-2.665 6.3 6.3 0 0 0 .937-2.434 5.32 5.32 0 0 0-1.309-4.25 5.33 5.33 0 0 0-4.078-1.782z"/><path fill="#00F0B5" d="m399.276 229.26 34.472-8.731c-1.301-2.466-22.248-65.267-41.46-77.48-16.494-13.697-49.616-14.997-87.123-16.496a115.7 115.7 0 0 0-35.69 3.482c-43.745 12.08-74.482 74.065-74.482 74.065l43.095 8.515s-6.855 64.017-12.859 142.064c0 0 68.678 15.447 175.981 9.431 0 0-2.952-123.752-1.934-134.85"/><path fill="#1E212C" d="m294.375 148.33-35.656 213.93 72.463 5.232 15.711-231.409z"/><path fill="#1E212C" d="m331.183 368.324-72.447-5.232a.872.872 0 0 1-.601-.316.9.9 0 0 1-.166-.65l35.656-213.93a.8.8 0 0 1 .617-.667l52.534-12.263a.76.76 0 0 1 .717.183.81.81 0 0 1 .301.683l-15.711 231.409a.8.8 0 0 1-.283.567.85.85 0 0 1-.617.216m-71.48-6.748 70.713 5.115 15.576-229.476-50.899 11.881zM432.097 288.612a.8.8 0 0 1-.5-.167l-24.599-18.862a.865.865 0 0 1-.167-1.183.85.85 0 0 1 1.167-.15l24.616 18.879a.832.832 0 0 1-.517 1.483"/><path fill="#fff" d="M336.885 150.813s-9.422-9.031-11.924-20.078-1.534-13.43-3.252-13.813-4.62.783-6.771 4.549c-2.151 3.765-1.568 17.012 1.935 22.344 3.502 5.332 20.012 6.998 20.012 6.998"/><path fill="#1E212C" d="M336.883 151.628h-.083c-.684-.083-16.945-1.782-20.63-7.381-3.686-5.599-4.32-19.112-1.952-23.211s5.504-5.415 7.655-4.999c1.551.333 1.668 1.666 2.118 4.482.284 2.067.701 5.199 1.785 9.998 2.418 10.664 11.591 19.578 11.674 19.662a.89.89 0 0 1 .184.95.85.85 0 0 1-.751.499m-15.81-33.941c-1.351 0-3.619 1.033-5.42 4.165s-1.501 16.296 1.918 21.478c2.301 3.516 11.674 5.549 17.094 6.349-2.869-3.166-8.606-10.348-10.507-18.779a105 105 0 0 1-1.818-10.114c-.333-2.416-.45-2.983-.817-3.066a2 2 0 0 0-.45-.017z"/><path fill="#fff" d="M197.611 205.266s-41.894 102.991-26.184 134.316c15.711 31.326 170.227 45.322 170.227 45.322s19.647 8.332 25.75 9.598 29.253 2.616 29.253 2.616-8.739 1.666-5.687 4.349 20.013 2.616 21.831-3.483c1.817-6.098-3.052-30.525-8.339-34.458s-64.609-18.328-68.962-18.745c-4.352-.417-102.132-34.308-102.132-34.308l12.658-95.643"/><path fill="#1E212C" d="M399.324 404c-3.886 0-7.471-.65-8.889-1.867a2.12 2.12 0 0 1-.884-2.199 4.222 4.222 0 0 1 2.502-2.233c-7.088-.45-20.33-1.399-24.816-2.366-5.937-1.266-23.982-8.831-25.784-9.581-7.971-.733-155.1-14.53-170.777-45.805-6.671-13.213-4.203-39.99 7.155-79.53 8.338-29.36 18.912-55.203 19.012-55.47a.838.838 0 0 1 1.551.633c-.417 1.033-41.577 102.925-26.217 133.634s168.009 44.755 169.56 44.889a.54.54 0 0 1 .233 0c.201.083 19.647 8.331 25.617 9.547s28.885 2.583 29.119 2.6a.83.83 0 0 1 .784.766.866.866 0 0 1-.667.883c-2.519.5-5.454 1.666-5.654 2.4 0 .116.15.333.35.499 1.668 1.433 9.673 2.233 15.644.45 1.901-.583 4.303-1.666 4.836-3.532 1.768-6.165-3.335-29.993-7.988-33.558s-63.258-18.063-68.545-18.579c-4.419-.45-98.397-32.975-102.333-34.358a.82.82 0 0 1-.55-.883l12.658-95.66a.843.843 0 0 1 .942-.725.84.84 0 0 1 .704.615.8.8 0 0 1 .022.327l-12.575 94.976c33.972 11.764 97.964 33.708 101.316 34.042 3.352.333 63.658 14.629 69.378 18.912s10.373 29.109 8.589 35.357c-.584 2.05-2.652 3.666-5.954 4.666a30.3 30.3 0 0 1-8.339 1.15"/><path fill="#fff" d="M374.826 235.359s-28.135-71.982-36.04-83.829-42.594-40.773-46.913-37.891c-4.32 2.883-3.052 6.099-1.251 8.331 1.801 2.233 11.857 9.148 11.857 9.148s-11.324-5.198-11.674 1.666 8.339 10.964 8.339 10.964-9.523-7.015-9.89.534a11.095 11.095 0 0 0 6.671 10.414s-10.14-8.598-9.172.366c1.667 14.73 31.287 32.326 31.287 32.326l12.574 122.419s4.503 70.999 49.849 68.85c58.188-2.766 75.049-86.645 45.964-157.578"/><path fill="#1E212C" d="M378.362 379.422c-43.762 0-48.632-68.983-48.682-69.682l-12.524-121.97c-3.569-2.166-29.753-18.495-31.321-32.742-.267-2.433.234-3.999 1.485-4.665a3.43 3.43 0 0 1 2.435-.2 10.8 10.8 0 0 1-1.418-6.032 4.2 4.2 0 0 1 2.085-3.949 4.27 4.27 0 0 1 2.351-.3 10.2 10.2 0 0 1-2.818-7.248 4.236 4.236 0 0 1 1.934-3.583 8.35 8.35 0 0 1 5.704-.45 63.6 63.6 0 0 1-7.622-6.165 5.8 5.8 0 0 1-1.793-5.127 5.815 5.815 0 0 1 3.228-4.37c3.168-2.117 15.843 7.531 23.098 13.48 9.356 7.648 20.697 18.245 25.016 24.643 7.855 11.797 35.023 81.047 36.124 83.996a.836.836 0 0 1-.484 1.067.806.806 0 0 1-1.067-.467c-.284-.716-28.202-72.015-35.974-83.663-3.619-5.431-13.509-15.196-24.632-24.293-13.459-11.014-20.013-14.064-21.114-13.331a5 5 0 0 0-2.518 3.25 5.15 5.15 0 0 0 1.434 3.782c1.417 1.666 8.922 7.065 11.674 8.998a.833.833 0 0 1 .234 1.1.815.815 0 0 1-1.068.349c-1.834-.849-7.088-2.716-9.373-1.333a2.557 2.557 0 0 0-1.134 2.233c-.2 3.866 2.836 6.832 5.187 8.548a21 21 0 0 1 2.752 1.666.835.835 0 0 1-.851 1.417 20.5 20.5 0 0 1-2.818-1.667c-1.668-.883-3.653-1.483-4.753-.966-.684.317-1.068 1.166-1.134 2.516a9.38 9.38 0 0 0 2.685 7.148 27 27 0 0 1 3.685 2.583.83.83 0 0 1 .167 1.066.83.83 0 0 1-1.034.334 12.7 12.7 0 0 1-3.702-2.55c-1.518-.85-2.952-1.366-3.703-.966s-.8 1.383-.617 3.016c1.551 14.146 30.587 31.525 30.87 31.659a.84.84 0 0 1 .417.633l12.575 122.419c0 .734 4.903 70.233 48.965 68.1 18.262-.866 33.439-9.997 43.929-26.46 19.879-31.176 20.413-83.413 1.317-129.968a.851.851 0 0 1 .451-1.083.866.866 0 0 1 1.1.45c19.28 47.038 18.696 99.875-1.467 131.501-10.774 16.912-26.434 26.327-45.246 27.226z"/><path fill="#fff" d="M373.376 232.592s22.698 61.651 28.518 81.979z"/><path fill="#1E212C" d="M401.896 315.405a.81.81 0 0 1-.801-.599c-5.754-20.079-28.268-81.314-28.502-81.93a.832.832 0 0 1 .492-1.089.839.839 0 0 1 1.076.522c.217.617 22.765 61.902 28.535 82.047a.852.852 0 0 1-.567 1.033zM249.713 173.29c0 1.75-3.502 34.308-3.502 34.308z"/><path fill="#1E212C" d="M246.209 208.415h-.084a.84.84 0 0 1-.556-.307.84.84 0 0 1-.178-.61c.968-9.031 3.486-32.808 3.486-34.208a.833.833 0 0 1 1.668 0c0 1.766-3.336 33.059-3.486 34.392a.836.836 0 0 1-.85.733M99.682 111.539c-.967-12.447 3.936-20.628 17.762-30.526 12.458-8.764 16.01-13.33 15.476-20.278-.65-8.331-8.188-12.913-19.429-12.047-13.892 1.083-21.764 10.714-21.547 26.66l-30.403.1c-1.334-30.476 18.562-51.937 50.032-54.37 27.985-2.166 49.716 13.18 51.5 36.241 1.101 14.08-5.003 24.61-20.63 35.875-12.625 9.397-15.41 13.097-14.859 20.245l.55 7.148-27.585 2.183zm0 25.461 32.555-2.533 2.451 31.659-32.638 2.499z"/><path fill="#fff" d="M270.407 79.098c4.786.966 5.303-7.215.25-6.299a3.199 3.199 0 0 0-.25 6.299"/><path fill="#B3B7BC" d="M271.177 79.98a4.6 4.6 0 0 1-.934-.1 3.82 3.82 0 0 1-3.219-3.849 4.166 4.166 0 0 1 3.486-4.082 3.64 3.64 0 0 1 3.902 1.466 4.561 4.561 0 0 1-.133 4.999 3.63 3.63 0 0 1-3.102 1.566m-.517-1.666a2.1 2.1 0 0 0 2.335-.85 2.99 2.99 0 0 0 .1-3.082 2 2 0 0 0-2.202-.734 2.55 2.55 0 0 0-2.118 2.466 2.154 2.154 0 0 0 1.885 2.2"/><path fill="#D7DADD" d="M107.086 291.594a13.48 13.48 0 0 0-1.934-8.032 64 64 0 0 1-4.07-5.099c-1.667-3.332-.517-7.114-.917-10.697a12.83 12.83 0 0 0-4.253-7.981c-2.118-1.9-4.836-3.199-6.87-5.182-3.336-3.233-4.27-7.798-6.155-11.847a30.9 30.9 0 0 0-13.342-13.83c3.62 6.448-4.62 14.646-.884 21.045 1.184 2.016 3.436 3.499 4.303 5.648 2.101 5.182-4.87 10.797-2.652 15.946 1.118 2.566 4.236 4.049 5.67 6.482 1.952 3.332.418 7.265.584 10.981.217 5.115 3.736 9.68 7.906 13.23 2.601 2.199 5.486 4.115 8.338 6.098 3.336 2.383 4.787 4.899 7.739 1.066a30.4 30.4 0 0 0 6.537-17.828M114.591 294.01c-1.084-3.966-1.852-8.248 0-11.98 2.068-4.233 7.188-7.215 7.788-11.781.4-2.999-1.318-6.032-.65-8.981.667-2.949 3.335-4.999 5.653-7.148a28.32 28.32 0 0 0 8.723-18.329 45.2 45.2 0 0 1 8.338 12.164 14.05 14.05 0 0 1-1.217 13.73 12.6 12.6 0 0 0-2.102 3.049c-1.017 2.916 1.802 5.632 3.336 8.331a8.75 8.75 0 0 1-1.017 9.914c-2.952 3.333-8.639 4.533-10.007 8.498a17.9 17.9 0 0 0-.517 4.516 13.826 13.826 0 0 1-10.74 11.364c-3.502.733-3.336-.484-4.053-3.083-1.067-3.399-2.568-6.782-3.535-10.264M103.484 265.551c-2.485-7.598-3.486-15.546-6.088-23.111a120 120 0 0 0-8.122-17.229l10.64 3.966c3.336 1.283 7.105 2.782 8.723 5.732 2.802 5.148-2.235 11.747.7 16.829a41 41 0 0 0 4.22 4.682c3.135 3.899 2.652 9.264.934 13.796-.734 1.95-3.969 12.047-6.855 9.248-1.15-1.133-1.25-5.315-1.667-6.848-.801-2.366-1.718-4.699-2.485-7.065"/><path fill="#D7DADD" d="M101.947 335.866c-1.868-13.746-3.485-25.677-3.502-25.877l-1.668.217c0 .2 1.668 11.997 3.469 25.66zM116.324 335.867c2.285-17.762 4.653-30.943 5.987-32.409l-1.234-1.116c-1.851 2.033-4.353 17.445-6.421 33.525zM114.292 335.866c-1.818-32.108-5.003-63.967-5.003-64.384l-1.668.167c0 .417 3.336 32.192 5.003 64.217z"/><path fill="#D7DADD" d="M85.405 316.788h47.164l-3.335 35.425c-.567 6.131-7.438 10.897-15.71 10.897h-9.123c-8.339 0-15.143-4.766-15.727-10.897z"/></svg>