<svg xmlns="http://www.w3.org/2000/svg" width="605" height="673" fill="none"><path fill="#fff" d="M314.809 324.001c.4-3.2 26.166-6.333 39-7.5-2-.8-.167-11.667 1-17-1.167 0-3.7-.2-4.5-1s-.334-2 0-2.5c-1.667-.167-5.5-.7-7.5-1.5-1.6-.4.333-3.833 1.5-5.5-.667-.5-2.1-1.8-2.5-3-.5-1.5 4.5-5 3.5-5-.8 0-1.667-1.667-2-2.5l-9-2c-1 0-4.5.1-10.5.5-16.4.8-46.5 8.667-59.5 12.5-3 1.5-8.8 9.5-8 29.5s20.333 65.667 30 86l47.5-29c-5.334-12-16.6-37.4-19-43 0-5-.5-5 0-9"/><path fill="#fff" d="M419.307 284.501c4.4-10-1.833-14.833-5.5-16-5.5 21-35.498 28.5-56.998 32-7 16 0 36 0 43.5.4 8.8 52.5 70 78.5 99.5l54-32c-28.334-27.833-85.4-84.9-87-90.5-2-7 11.498-24 16.998-36.5"/><path fill="#1E212C" d="m165.576 513.238-.057.058a2.6 2.6 0 0 1-1.095.633c3.744 4.147 4.607 10.482 1.843 15.549l-.115.173c-.403.691-.806 1.325-1.325 1.901-1.209 1.497-2.361 2.937-3.397 4.319.518-.058.979.057 1.439.288.922-1.21 1.958-2.477 2.995-3.801a15 15 0 0 0 1.382-1.958l.115-.173c3.11-5.413 2.246-12.439-1.785-16.989M236.928 486.518c-5.586-2.706-11.345-5.01-17.738-6.738a3.2 3.2 0 0 1-.979.519c-.23.057-.46.057-.691.057a1.25 1.25 0 0 1-.461.288c-.057 0-.115.058-.172.058 6.968 1.785 13.648 4.089 19.523 6.968 1.266.633 2.533 1.267 3.743 1.958.173-.403.518-.749.864-1.037-1.382-.691-2.707-1.382-4.089-2.073M208.596 494.925c-.115-1.613-.691-2.764-1.67-3.455-1.613-1.21-3.916-.692-3.974-.692l-.288-1.267c.115 0 2.88-.633 5.01.922 1.267.921 2.016 2.419 2.189 4.377zM257.949 611.259c-4.377-.058-16.413-1.21-26.894-10.251-10.827-9.387-17.047-24.245-18.371-44.286l1.324-.116c1.325 19.638 7.372 34.266 17.91 43.365 11.403 9.906 24.649 10.021 27.24 9.963 5.586-19.465 2.131-35.82-10.136-48.663-9.214-9.675-20.271-13.533-20.386-13.591l.403-1.267c.115.058 11.46 4.031 20.905 13.937 8.753 9.156 17.622 25.281 10.308 50.39l-.115.461-.461.058z"/><path fill="#1E212C" d="m258.292 602.968-1.325-.173c2.534-18.601-5.701-31.444-13.073-38.988-8.005-8.178-16.758-11.978-16.816-12.036l.518-1.209c.116.057 9.042 3.916 17.22 12.266 7.601 7.775 16.067 21.02 13.476 40.14"/><path fill="#1E212C" d="m253.685 606.248-1.267-.288c3.858-16.24-3.686-30.58-3.801-30.695l1.152-.633c.115.115 7.889 14.858 3.916 31.616M242.572 600.2c-16.989-5.701-23.209-31.213-23.439-32.308l1.267-.288c.057.231 6.335 25.916 22.575 31.387zM190.57 555.801l44.171-28.161-6.392 13.015-.173.115-20.329 12.9h-.173zm40.946-24.591-35.302 22.518 11.23-1.383 19.926-12.612zM378.19 564.211a.8.8 0 0 1-.23.173c-.23.115-.403.23-.634.403-.115.057-.23.115-.345.115 3.916 4.204 4.722 10.712 1.843 15.837l-.115.173c-.404.633-.864 1.324-1.383 1.9a71 71 0 0 0-3.455 4.262q.777 0 1.382.345c.979-1.209 1.958-2.476 3.052-3.743q.778-.95 1.383-1.9l.115-.173c3.398-5.586 2.534-12.727-1.613-17.392M450.234 538.986c-5.586-2.822-11.345-5.241-17.795-7.084-.519.403-1.037.749-1.498 1.21 6.681 1.843 13.073 4.204 18.717 7.083a78 78 0 0 1 3.743 2.016q.346-.605.864-1.037c-1.325-.806-2.707-1.497-4.031-2.188M421.73 546.876c-.116-1.613-.634-2.765-1.613-3.456-1.612-1.209-3.916-.806-3.974-.748l-.288-1.267c.116 0 2.938-.576 5.011 1.036 1.267.979 1.958 2.419 2.131 4.435zM470.684 664.005c-4.377-.172-16.356-1.439-26.722-10.711-10.654-9.56-16.586-24.533-17.622-44.574l1.324-.058c1.037 19.696 6.796 34.381 17.22 43.653 11.23 10.078 24.475 10.423 27.067 10.423 5.874-19.35 2.764-35.763-9.33-48.835-9.099-9.79-20.041-13.879-20.156-13.937l.461-1.267c.115.058 11.402 4.204 20.674 14.282 8.581 9.272 17.219 25.57 9.445 50.564l-.115.46h-.461c-.058 0-.691.058-1.785 0"/><path fill="#1E212C" d="m471.2 655.71-1.325-.173c2.822-18.544-5.183-31.559-12.439-39.161-7.889-8.293-16.528-12.266-16.643-12.324l.518-1.209c.115.057 8.984 4.089 16.989 12.554 7.544 7.89 15.779 21.251 12.9 40.313"/><path fill="#1E212C" d="m466.534 658.88-1.267-.345c4.146-16.183-3.167-30.638-3.283-30.753l1.152-.634c.058.231 7.659 15.089 3.398 31.732M455.534 652.661c-16.874-5.99-22.69-31.617-22.921-32.711l1.267-.288c.058.288 5.874 26.03 22.057 31.732zM402.73 607.396l44.632-27.47-6.565 12.957-.173.116-20.502 12.554h-.172zm41.35-23.842-35.648 21.941 11.287-1.209 20.099-12.266zM444.195 524.644c-1.209-1.036-119.555-103.833-120.419-126.984-.346-8.926 5.24-17.046 11.172-25.627 9.502-13.764 19.35-27.988 4.953-46.993l-1.037.806c13.822 18.256 4.262 32.078-4.953 45.438-6.046 8.754-11.748 17.047-11.402 26.434.864 23.093 109.477 118.058 120.189 127.33l-73.542 44.286c-6.911-7.66-107.922-120.189-112.644-142.015-7.257-33.402-.116-57.82-.058-58.108l-1.267-.403c-.058.173-2.707 9.214-3.167 23.727-5.759.633-43.999 4.78-52.061 9.444-2.304 1.325-2.246 5.817.173 14.167 1.842 6.278 5.01 14.628 9.387 24.821 6.738 15.607 14.455 30.926 16.009 33.978l-65.651 40.37c-8.754-16.413-21.423-45.668-30.407-74.636-7.372-23.957-14.858-56.149-8.581-73.887 1.958-5.528 5.24-9.272 9.675-11.114 32.71-13.534 96.807-18.602 97.441-18.659l-.115-1.325c-.634.058-64.961 5.126-97.845 18.717-4.837 2.015-8.35 5.989-10.423 11.921-6.45 18.025 1.094 50.563 8.523 74.693 9.099 29.428 22.057 59.086 30.81 75.442l.346.633 67.379-41.406.519-.346-.288-.518c-.116-.173-8.754-17.104-16.241-34.439-13.475-31.213-11.575-36.511-10.135-37.317 7.659-4.435 45.265-8.581 51.369-9.215-.23 9.387.461 20.848 3.225 33.69 4.953 22.805 108.902 138.099 113.336 142.994l.346.403 76.017-45.783zM159.014 285.59c-18.947-6.738-32.25-22.345-40.024-34.208-9.272-14.225-14.858-29.428-16.24-38.24-1.498-9.502-.231-10.596.057-10.769.518-.23 1.613.749 2.246 1.498l.576.748c3.859 13.361 13.476 27.298 13.534 27.47l.979-.748c-.116-.115-9.848-14.34-13.534-27.643-.806-2.937-1.267-5.241-1.44-7.026-.172-4.204.749-5.586 1.44-5.989a2 2 0 0 1 1.037-.288h.057c.461 0 .864.115 1.267.23 1.267.403 2.534 1.325 3.225 1.901a12 12 0 0 0 .231 3.109c1.151 6.738 6.334 17.565 16.067 33.863l1.037-.691c-7.66-12.785-17.22-29.947-16.01-37.145.518-1.728 1.324-2.707 2.303-2.937h.173c1.555-.058 3.283 1.209 4.319 2.13.288.231.519.461.749.749l.058.058c.921.921 1.67 1.785 2.13 2.418 2.189 9.733 14.283 31.041 14.801 31.962l1.036-.691c-.115-.23-11.46-20.156-14.339-30.234l-.346-1.44c-.115-.576-.23-1.094-.288-1.555-.115-1.267 0-2.418.576-2.821.461-.288 1.958-.519 6.22 3.512 3.225 2.995 6.68 9.33 10.711 16.644 6.162 11.23 13.879 25.166 24.764 35.187 7.198 6.565 15.952 8.465 25.282 4.78.518-.576.345-.864.287-1.152 0-.115-.057-.23-.057-.346-8.926 3.571-17.91 2.016-24.764-4.261-10.769-9.848-18.371-23.727-24.533-34.842-4.088-7.429-7.601-13.821-10.999-16.989a29 29 0 0 0-2.822-2.361c-.346-.288-3.283-2.764-5.068-1.555q-1.296.864-1.036 3.801a14 14 0 0 1-.864-.921c-.058-.058-.576-.634-1.382-1.267-1.555-1.267-3.398-2.304-5.068-2.016-.922.115-1.728.576-2.304 1.44-.461.576-.749 1.325-.921 2.131a11 11 0 0 0-1.728-1.094c-.058-.058-.691-.404-1.555-.634-.058 0-.115 0-.115-.057-.058 0-.115-.058-.23-.058-.116 0-.231-.058-.288-.058h-.058c-.115 0-.23 0-.346-.057h-.403c-.748 0-1.555.173-2.188.748-1.382 1.152-1.843 3.456-1.497 7.026.057 1.382.23 2.995.576 4.78v.058c-.692-.518-1.498-.864-2.304-.461-1.094.518-2.304 2.304-.749 12.151 0 .116.058.231.058.346 1.382 8.35 6.507 23.266 16.47 38.412 7.89 12.036 21.366 27.873 40.658 34.726 9.388 3.341 18.487 4.838 27.01 4.435a48.5 48.5 0 0 0 8.869-1.152c-.058-.518.115-1.037.403-1.497-10.539 2.476-22.748 1.439-35.706-3.11"/><path fill="#00F0B5" d="M310.472 283.461c-.691-3.513-1.785-6.91-3.455-10.02 0 0-.173-5.989-4.895-13.188-2.304.749-4.607 1.555-6.911 2.304.576 2.303 1.267 4.607 1.44 6.91 0 .346 0 .634-.115.922.403 1.267.518 2.534.575 3.916.058 1.209.346 2.418.519 3.685.288.346.46.692.576 1.152.057.288.057.576.115.806 0 .231 0 .461-.058.692.173.863.288 1.727.403 2.706.173 1.901.576 3.686.864 5.586.288.461.461.979.518 1.67.058 3.11 1.037 6.163 1.383 9.272v.519c0 .057.057.115.057.23.346 1.497.634 2.937.864 4.434a6.1 6.1 0 0 1 1.44-.518 54 54 0 0 0 1.67-2.131c1.382-1.958 2.131-4.549 3.34-6.622.173-.576.346-1.21.461-1.843.691-2.995.864-5.702.748-8.754a4.8 4.8 0 0 1 .461-1.728"/><path fill="#00F0B5" d="M353.028 276.779c-23.324-64.155-90.761-60.527-90.761-60.527-4.953 13.131-13.131 2.016-13.131 2.016-42.961 6.738-68.991 31.386-68.991 31.386l12.554 41.637 20.444-6.277 8.581 51.254 17.622 3.283s-.115-2.188 5.586-5.644 29.371-12.094 29.371-12.094 26.433-12.151 30.465-19.119c1.382-2.419.748-11.288-.864-22.114l5.701 1.036z"/><path fill="#1E212C" d="m349.687 277.126-1.325.173c2.995 13.879.288 29.37-7.89 45.035-9.79 18.716-27.354 29.831-40.37 35.878-15.549 7.256-31.501 10.423-40.37 10.308-9.617-.057-10.481-1.612-10.596-1.958-.173-.576.979-1.555 1.843-2.073l.864-.518c13.821-1.67 29.14-9.272 29.313-9.33l-.576-1.152c-.173.058-15.78 7.775-29.486 9.272-3.052.346-5.413.403-7.199.231-4.146-.519-5.356-1.728-5.701-2.592-.115-.345-.173-.749-.115-1.152v-.057c.115-.461.288-.922.46-1.267.634-1.21 1.728-2.419 2.419-3.052q1.383.345 3.11.345c6.796 0 18.371-3.513 36.108-10.884l-.518-1.21c-13.879 5.759-32.365 12.728-39.276 10.251-1.612-.864-2.476-1.843-2.534-2.937v-.23c.173-1.613 1.786-3.225 2.822-4.147.288-.23.576-.46.806-.691.058-.057.116-.057.116-.057 1.036-.807 2.073-1.44 2.764-1.786 9.963-.575 32.999-9.502 33.978-9.905l-.461-1.209c-.23.115-21.769 8.465-32.193 9.675l-1.497.115c-.633.057-1.152.057-1.612 0-1.267-.115-2.419-.461-2.649-1.094-.231-.519-.173-2.131 4.492-5.932 3.512-2.822 10.308-5.356 18.198-8.293 12.094-4.492 27.124-10.078 38.815-19.753 7.717-6.392 10.999-15.261 8.926-25.685l-2.879-12.209-1.267.288 2.822 12.094c1.727 9.675-1.267 18.544-8.408 24.418-11.518 9.56-26.434 15.088-38.412 19.523-8.005 2.994-14.916 5.528-18.602 8.523-1.094.921-2.015 1.728-2.764 2.534-.346.288-3.225 2.994-2.419 5.01.403 1.037 1.613 1.613 3.571 1.785-.346.231-.691.461-1.037.749-.057.058-.691.518-1.497 1.209-1.555 1.382-2.88 3.168-2.822 4.953-.058.979.288 1.9 1.037 2.707a5.5 5.5 0 0 0 1.958 1.382 14 14 0 0 0-1.383 1.612c-.057.058-.518.691-.921 1.555 0 .058-.058.115-.058.115-.057.058-.057.116-.115.231-.057.115-.057.23-.115.288v.057c-.057.115-.057.231-.115.346 0 .057 0 .115-.058.173 0 .057-.057.172-.057.23-.115.806-.058 1.612.345 2.419.922 1.67 3.11 2.591 6.681 2.822a31 31 0 0 0 4.837.23h.058c-.576.633-1.094 1.44-.864 2.304.288 1.209 1.9 2.821 11.863 2.937h.346c8.465 0 24.015-2.707 40.658-10.482 13.188-6.162 31.041-17.449 41.003-36.511 4.838-9.272 7.833-18.544 8.869-27.528.576-6.22.346-12.209-.921-18.083"/><path fill="#00F0B5" d="m173.672 587.563-.664.552 56.337 67.679.664-.553zM204.305 599.529l-.664.553 56.337 67.678.664-.552zM243.648 460.836l-.664.553 56.337 67.678.664-.553zM369.945 405.016l-.664.552 56.337 67.679.664-.553zM368.516 307.423l-.664.553 56.337 67.678.664-.553zM380.258 341.082l-.664.553 56.337 67.678.664-.553zM325.176 209.766l-.664.552 56.337 67.679.664-.553zM476.707 527.582l-.664.553 56.337 67.678.664-.553zM287.984 593.541l-.664.553 56.337 67.678.664-.553zM93.59 215.213c-2.362-3.282-3.226-6.277-2.535-8.868.806-3.11 3.57-4.435 3.686-4.435l.576 1.21s-2.361 1.094-2.995 3.628c-.576 2.188.23 4.78 2.304 7.717z"/><path fill="#00F0B5" d="M88.29 215.158c-2.304-4.204-2.88-8.062-1.786-11.345 1.44-4.434 5.356-6.277 5.529-6.334l.576 1.209c-.058 0-3.57 1.728-4.838 5.586-.979 2.937-.403 6.45 1.728 10.309zM134.362 185.961s-.288-2.591-2.419-4.031c-1.843-1.267-4.549-1.382-8.062-.345l-.346-1.267q5.874-1.728 9.157.518c2.649 1.785 2.994 4.837 2.994 4.953zl.633-.057z"/><path fill="#00F0B5" d="M139.482 184.865c0-.057-.46-3.916-3.685-6.392-2.477-1.901-5.932-2.477-10.309-1.786l-.23-1.324c4.722-.806 8.523-.115 11.345 2.015 3.686 2.822 4.146 7.142 4.204 7.314zM260.77 507.369l-109.823 70.547s-11.575-20.675 14.052-46.648l71.929-44.747c9.733 2.938 19.753 9.272 23.842 20.848M473.731 560.174l-110.974 68.762s-11.23-20.847 14.8-46.417l72.62-43.538c9.791 3.053 19.696 9.56 23.554 21.193"/><path fill="#E5E8ED" d="m230.692 178.515-5.675 32.476 38.597 16.902 9.577-54.805-38.597-16.902z"/><path stroke="#1E212C" stroke-linecap="round" stroke-linejoin="round" stroke-width="1.5" d="M230.694 178.514s11.053-2.574 15.117-10.463c0 0 4.367 17.276 17.893 22.051"/><path fill="#1E212C" d="M251.507 193.716a1.093 1.093 0 1 0 .378-2.15 1.093 1.093 0 0 0-.378 2.15M234.948 190.835a1.093 1.093 0 1 0-.89-1.263 1.09 1.09 0 0 0 .89 1.263"/><path stroke="#1E212C" stroke-linecap="round" stroke-linejoin="round" stroke-width="1.5" d="m238.876 197.02 2.897-16.577-8.324-1.448M255.5 182.831l-8.324-1.448"/><path fill="#EDEEEF" d="m266.87 193.564-1.006 5.757c3.113.542 6.076-1.537 6.619-4.642q.045-.26.066-.516c.295-3.547-5.066-4.104-5.679-.599"/><path stroke="#1E212C" stroke-linecap="round" stroke-linejoin="round" stroke-width="1.5" d="M265.869 199.318c3.112.541 6.076-1.537 6.618-4.642M241.795 201.744a5.8 5.8 0 0 0 4.324-.966 5.78 5.78 0 0 0 2.374-3.733M225.016 210.994l38.596 16.903M238.871 197.033l3.485 1.526"/><path stroke="#1E212C" stroke-linecap="round" stroke-linejoin="round" stroke-width="1.5" d="M229.545 185.084s-10.952-39.026 22.185-29.745c0 0 49.911 16.234 15.676 50.853"/><path fill="#fff" d="m542.169 405.274 60.663-5.647 1.47 15.744-60.664 5.647z"/><path fill="#B3B7BC" d="m543.671 421.482 60.673-5.648a.473.473 0 0 0 .423-.509l-1.47-15.744a.467.467 0 0 0-.51-.422l-60.673 5.647a.47.47 0 0 0-.423.51l1.47 15.744a.467.467 0 0 0 .51.422m60.119-6.536-59.739 5.561-1.386-14.849 59.739-5.561z"/><path fill="#B3B7BC" d="m508.685 408.39 49.444-4.603 1.47 15.744-49.444 4.602z"/><path fill="#B3B7BC" d="m510.189 424.6 49.471-4.606a.467.467 0 0 0 .423-.509l-1.469-15.744a.47.47 0 0 0-.51-.422l-49.472 4.605a.467.467 0 0 0-.423.509l1.469 15.744a.48.48 0 0 0 .511.423m48.899-5.492-48.538 4.518-1.386-14.849 48.538-4.518z"/><path fill="#fff" d="m547.354 388.913 48.603-4.524 1.47 15.743-48.604 4.525z"/><path fill="#B3B7BC" d="m548.866 405.087 48.603-4.524a.468.468 0 0 0 .423-.51l-1.466-15.706a.46.46 0 0 0-.167-.317.47.47 0 0 0-.343-.106l-48.603 4.525a.467.467 0 0 0-.424.509l1.47 15.744a.474.474 0 0 0 .507.385m48.05-5.413-47.671 4.438-1.379-14.775 47.67-4.437z"/><path fill="#B3B7BC" d="m514.859 391.937 32.493-3.025 1.469 15.744-32.492 3.024z"/><path fill="#B3B7BC" d="m516.371 408.107 32.493-3.025a.468.468 0 0 0 .423-.509l-1.466-15.707a.47.47 0 0 0-.51-.422l-32.493 3.024a.47.47 0 0 0-.423.51l1.469 15.744a.47.47 0 0 0 .507.385m31.939-3.913-31.587 2.94-1.379-14.774 31.587-2.941z"/><path fill="#fff" d="M538.674 401.133a3.457 3.457 0 0 1-3.765-3.119 3.46 3.46 0 0 1 6.889-.641 3.456 3.456 0 0 1-3.124 3.76M547.695 380.878l42.77-3.982.739 7.924-42.769 3.981z"/><path fill="#B3B7BC" d="m548.478 389.274 42.769-3.981a.47.47 0 0 0 .424-.51l-.741-7.932a.467.467 0 0 0-.51-.423l-42.77 3.981a.47.47 0 0 0-.423.51l.741 7.932a.46.46 0 0 0 .167.317.47.47 0 0 0 .343.106m42.216-4.87-41.836 3.894-.654-7 41.836-3.894z"/><path fill="#B3B7BC" d="m521.679 383.303 40.688-3.787.74 7.923-40.688 3.787z"/><path fill="#B3B7BC" d="m522.466 391.699 40.688-3.787a.47.47 0 0 0 .423-.51l-.741-7.932a.46.46 0 0 0-.167-.317.47.47 0 0 0-.343-.106l-40.688 3.788a.477.477 0 0 0-.423.509l.74 7.933a.48.48 0 0 0 .511.422m40.134-4.676-39.755 3.701-.653-7 39.755-3.701z"/><path fill="#fff" d="M551.514 415.811a3.455 3.455 0 1 1-.642-6.879 3.455 3.455 0 1 1 .642 6.879M516.369 408.106l29.646-2.759a.48.48 0 0 0 .423-.51.468.468 0 0 0-.51-.422l-29.646 2.759a.47.47 0 0 0-.423.51.467.467 0 0 0 .51.422M522.466 391.697l24.932-2.321a.47.47 0 0 0 .317-.167.468.468 0 0 0-.404-.765l-24.932 2.321a.46.46 0 0 0-.317.167.46.46 0 0 0 .063.656.48.48 0 0 0 .341.109M455.223 41.352l65.557 29.863-21.81 47.879-65.557-29.862z"/><path fill="#00F0B5" d="m386.457 98.783-.111-.05c-7.849-3.805-6.632-12.367-6.62-12.454a.627.627 0 0 1 .722-.525.625.625 0 0 1 .524.72c-.052.323-1.076 7.771 5.95 11.183l.034.015c3.51 1.565 10.209-6.739 16.14-14.132 6.11-7.673 12.005-14.868 15.994-14.103a5.94 5.94 0 0 1 4.012 2.495c2.309 3.468.978 9.7-.496 16.933a97 97 0 0 0-2.035 12.316c-.47 6.215 1.66 11.15 5.327 12.305 4.545 1.426 10.523-3.161 15.967-12.29 15.533-26.026 26.414-24.787 30.345-23.062l.144.064c9.819 4.378 12.527 11.916 9.664 26.848a.64.64 0 0 1-.265.398.63.63 0 0 1-.867-.17.62.62 0 0 1-.093-.468c2.758-14.432.337-21.362-8.97-25.512l-.134-.06c-7.608-3.39-18.425 5.117-28.796 22.58-5.83 9.784-12.169 14.462-17.377 12.821-4.202-1.3-6.682-6.764-6.17-13.547a99 99 0 0 1 2.031-12.424c1.394-6.67 2.711-12.96.676-16.027a4.7 4.7 0 0 0-3.233-1.975c-3.291-.627-9.409 6.976-14.802 13.676-6.848 8.397-13.218 16.381-17.561 14.445"/><path fill="#B3B7BC" d="m461.924 148.404-91.201-40.655a.61.61 0 0 1-.306-.803l30.365-67.652a.61.61 0 0 1 .805-.308l91.201 40.655a.62.62 0 0 1 .306.803l-30.365 67.652a.61.61 0 0 1-.805.308m-90.147-41.518 90.09 40.159 29.867-66.541-90.091-40.16z"/><path fill="#787A80" d="m465.781 117.093-12.74-5.679a.61.61 0 0 1-.306-.803.61.61 0 0 1 .805-.308l12.74 5.679a.605.605 0 0 1 .306.803.607.607 0 0 1-.805.308M463.418 122.349l-12.74-5.679a.61.61 0 0 1-.306-.803.61.61 0 0 1 .804-.308l12.74 5.679a.603.603 0 0 1 .306.803.61.61 0 0 1-.804.308M454.691 124.736l-6.365-2.837a.607.607 0 1 1 .499-1.11l6.364 2.837a.6.6 0 0 1 .306.803.61.61 0 0 1-.804.307M420.184 56.326l-12.74-5.68a.605.605 0 0 1 .032-1.123.6.6 0 0 1 .466.013l12.74 5.679a.61.61 0 0 1 .306.803.62.62 0 0 1-.804.307M417.797 61.634l-12.74-5.68a.61.61 0 0 1-.306-.802.61.61 0 0 1 .804-.308l12.74 5.68a.62.62 0 0 1 .306.802.61.61 0 0 1-.804.308M409.085 64.005l-6.364-2.837a.61.61 0 0 1-.306-.803.61.61 0 0 1 .804-.308l6.365 2.837a.61.61 0 0 1 .306.803.61.61 0 0 1-.805.308"/><ellipse cx="13.968" cy="13.939" fill="#fff" rx="13.968" ry="13.939" transform="scale(-1 1)rotate(-6.807 2395.088 489.744)"/><path fill="#787A80" d="m28.989 318.606 6.903-2.746 3.497 8.762-6.903 2.746z"/><path fill="#787A80" d="M44.456 358.752c.31.03.624-.017.914-.135l6.198-2.46a1.987 1.987 0 0 0 1.108-2.563L41.43 325.427a1.993 1.993 0 0 0-2.567-1.107l-6.192 2.461a1.99 1.99 0 0 0-1.107 2.563l11.232 28.166a1.99 1.99 0 0 0 1.66 1.242m-4.746-33.919c.137.011.272.047.397.104a1.335 1.335 0 0 1 .706.732L52.06 353.83a1.326 1.326 0 0 1-.741 1.711l-6.192 2.46a1.33 1.33 0 0 1-1.714-.733L32.165 329.12a1.325 1.325 0 0 1 .741-1.711l6.192-2.46c.191-.089.401-.129.612-.116M24.176 319.176a19.5 19.5 0 0 0 13.673-3.883 19.45 19.45 0 0 0 4.578-26.04 19.5 19.5 0 0 0-11.53-8.31 19.5 19.5 0 0 0-14.112 1.715 19.47 19.47 0 0 0-9.19 10.828 19.45 19.45 0 0 0 .617 14.184 19.5 19.5 0 0 0 10.096 9.997 19.3 19.3 0 0 0 5.868 1.509m3.513-37.993c1.96.186 3.877.676 5.686 1.453a18.68 18.68 0 0 1 9.673 9.574 18.64 18.64 0 0 1 .6 13.586 18.66 18.66 0 0 1-8.792 10.382 18.7 18.7 0 0 1-13.515 1.663 18.7 18.7 0 0 1-11.059-7.939 18.644 18.644 0 0 1 4.322-24.957 18.7 18.7 0 0 1 13.085-3.762m-3.052 33.13a14.5 14.5 0 0 0 6.713-.965 14.55 14.55 0 0 0 7.633-6.981 14.53 14.53 0 0 0 1.06-10.283 14.55 14.55 0 0 0-6.05-8.39 14.58 14.58 0 0 0-19.153 2.754 14.526 14.526 0 0 0 .5 19.318 14.58 14.58 0 0 0 9.297 4.547m6.457-1.583a13.9 13.9 0 0 1-8.023.675 13.9 13.9 0 0 1-7.051-3.885 13.87 13.87 0 0 1-3.708-7.14 13.85 13.85 0 0 1 .883-7.992 13.86 13.86 0 0 1 5.196-6.15 13.895 13.895 0 0 1 15.423.209 13.87 13.87 0 0 1 5.032 6.288 13.86 13.86 0 0 1-.153 10.598 13.88 13.88 0 0 1-7.599 7.397"/><path fill="#D7DADD" d="M28.848 46.66h12.907V33.79H28.848z"/><path fill="#D7DADD" d="m25.308 34.762 9.993-9.962 9.992 9.962z"/><path fill="#B3B7BC" d="M50.168 46.929h17.794v-17.74H50.168z"/><path fill="#B3B7BC" d="m45.29 30.53 13.775-13.734L72.84 30.529z"/><path fill="#00F0B5" d="M79.125 46.79h22.905V23.955H79.125z"/><path fill="#00F0B5" d="M72.843 25.679 90.576 8l17.733 17.679z"/><path fill="#D7DADD" d="m79.343 672.476-66.754-17.671 13.184-49.485 1.212.321-12.86 48.269 65.542 17.349z"/><path fill="#D7DADD" d="m38.252 635.11-7.854-2.079-6.292 23.618 7.853 2.079zM56.806 628.585l-7.853-2.079-9.139 34.302 7.853 2.079zM76.705 626.026l-7.853-2.079-11.087 41.613 7.853 2.079z"/></svg>