<svg xmlns="http://www.w3.org/2000/svg" width="40" height="40" fill="none"><path fill="#7772F1" fill-rule="evenodd" d="M19.999 12.916a3.333 3.333 0 1 0 0 6.667 3.333 3.333 0 0 0 0-6.667m-6.667 3.334a6.667 6.667 0 1 1 13.333 0 6.667 6.667 0 0 1-13.333 0" clip-rule="evenodd"/><path fill="#7772F1" fill-rule="evenodd" d="M19.999 5.416c-6.033 0-10.834 4.727-10.834 10.45 0 4.664 2.804 9.375 5.868 13.08A46.5 46.5 0 0 0 20 34.067a46.516 46.516 0 0 0 4.966-5.12c3.064-3.705 5.867-8.416 5.867-13.08 0-5.723-4.8-10.45-10.833-10.45m0 30.834a270 270 0 0 1-1.032 1.308l-.005-.003-.01-.008-.031-.025-.116-.094a44.16 44.16 0 0 1-1.893-1.66 50 50 0 0 1-4.448-4.697c-3.185-3.852-6.632-9.333-6.632-15.206 0-7.66 6.392-13.782 14.167-13.782s14.166 6.122 14.166 13.782c0 5.873-3.446 11.354-6.632 15.206a50 50 0 0 1-5.92 6.006 29 29 0 0 1-.536.445l-.033.026-.009.007-.003.002s-.002.002-1.033-1.307m0 0 1.031 1.309a1.67 1.67 0 0 1-2.064 0z" clip-rule="evenodd"/></svg>