<svg xmlns="http://www.w3.org/2000/svg" width="48" height="48" fill="none"><g fill="#7772F1" clip-path="url(#a)"><path d="M33.356 37.775a.94.94 0 0 0-1.6.663.94.94 0 0 0 .936.937c.248 0 .489-.1.664-.275a.94.94 0 0 0 .275-.663c0-.246-.1-.488-.275-.662"/><path d="M47.813 19.126a.94.94 0 0 0-.75-.376h-3.824V.938A.94.94 0 0 0 42.302 0h-17.25a.94.94 0 0 0-.938.938v7.218h-9.668a.94.94 0 0 0-.938.938v9.656h-3.477a.938.938 0 0 0-.899 1.203l5.53 18.75a.94.94 0 0 0 .9.672h12.985a.938.938 0 0 0 0-1.875H16.262l-4.977-16.875H45.81L40.832 37.5h-3.426a.938.938 0 0 0 0 1.875h4.127a.94.94 0 0 0 .899-.672l5.53-18.75a.94.94 0 0 0-.149-.827m-17.43-.376h-15v-8.719h14.999zm10.981 0h-9.106V9.094a.94.94 0 0 0-.938-.938h-5.331V1.875h15.375z"/><path d="M42.572 41.062H13.645L5.876 14.72a.94.94 0 0 0-.899-.672H.937a.938.938 0 0 0 0 1.875h3.34l7.769 26.342a.94.94 0 0 0 .899.672h4.651a3.45 3.45 0 0 0-.39 1.594A3.473 3.473 0 0 0 20.677 48a3.473 3.473 0 0 0 3.468-3.469c0-.574-.14-1.116-.39-1.594h7.675a3.45 3.45 0 0 0-.39 1.594A3.473 3.473 0 0 0 34.51 48a3.473 3.473 0 0 0 3.468-3.469c0-.574-.141-1.116-.39-1.594h4.985a.938.938 0 0 0 0-1.875m-21.897 5.063a1.595 1.595 0 0 1-1.593-1.594c0-.879.715-1.594 1.593-1.594.88 0 1.594.715 1.594 1.594s-.715 1.594-1.593 1.594m13.833 0a1.595 1.595 0 0 1-1.594-1.594c0-.879.715-1.594 1.594-1.594s1.594.715 1.594 1.594-.715 1.594-1.594 1.594M23.546 23.618a.95.95 0 0 0-.664-.274c-.247 0-.489.1-.663.274a.943.943 0 0 0 0 1.326.95.95 0 0 0 .663.275c.247 0 .488-.1.664-.275a.943.943 0 0 0 0-1.326"/><path d="M18.94 23.344h-6.807a.938.938 0 0 0 0 1.875h6.807a.938.938 0 0 0 0-1.875"/></g><defs><clipPath id="a"><path fill="#fff" d="M0 0h48v48H0z"/></clipPath></defs></svg>