<svg xmlns="http://www.w3.org/2000/svg" width="48" height="48" fill="none"><g fill="#7772F1" clip-path="url(#a)"><path d="M47.244 1.61a.94.94 0 0 0-.267-.568l-.01-.01a.94.94 0 0 0-.574-.273 30.5 30.5 0 0 0-15.125.416 30.5 30.5 0 0 0-13.15 7.74l-.624.625h-8.55a.94.94 0 0 0-.663.274L.275 17.82a.94.94 0 0 0 0 1.326l3.806 3.807-.85.85a.94.94 0 0 0 0 1.326l3.249 3.249-2.55 4.514a.94.94 0 0 0 .153 1.124l1.185 1.186a18.7 18.7 0 0 0-4.197 7.717l-1.04 3.898a.938.938 0 0 0 1.148 1.147l3.897-1.04a18.7 18.7 0 0 0 7.718-4.196l1.183 1.183a.94.94 0 0 0 1.124.153l4.515-2.55 3.258 3.258a.935.935 0 0 0 1.326 0l.85-.85 3.792 3.792a.94.94 0 0 0 1.326 0l8.006-8.007a.94.94 0 0 0 .275-.663v-8.521l.638-.638a30.5 30.5 0 0 0 7.74-13.15 30.5 30.5 0 0 0 .417-15.126M2.264 18.482l7.068-7.068h6.287L7.122 19.91v.001l-1.715 1.715zm2.33 26.63-2.333.622.622-2.332a16.85 16.85 0 0 1 3.712-6.874l4.872 4.871a16.84 16.84 0 0 1-6.874 3.713m10.205-3.032-1.25-1.25a1 1 0 0 0-.147-.147l-6.09-6.09a1 1 0 0 0-.148-.148l-1.252-1.252 1.944-3.44L18.24 40.137zm21.775-3.425-7.069 7.07-3.129-3.13 10.198-10.198zm1.188-10.097L24.388 41.932v.001l-.002.001-.849.85-3.099-3.1L8.31 27.555h-.001l-3.09-3.09 2.566-2.564 12.512 12.512a.935.935 0 0 0 1.326 0 .94.94 0 0 0 0-1.326L9.111 20.574l10.333-10.333C26.323 3.362 36.03.487 45.517 2.486c2 9.487-.876 19.194-7.755 26.073"/><path d="M34.936 19.059a.94.94 0 0 0-.937.937v.06a.937.937 0 0 0 .929.945h.008a.94.94 0 0 0 .937-.93v-.075a.94.94 0 0 0-.937-.937"/><path d="M34.465 22.682a.937.937 0 0 0-1.283.336 6.03 6.03 0 0 1-5.185 2.98c-3.31 0-6-2.693-6-6.001s2.69-6 6-6a5.99 5.99 0 0 1 4.6 2.146.938.938 0 0 0 1.436-1.205 7.86 7.86 0 0 0-6.036-2.817c-4.343 0-7.876 3.533-7.876 7.876 0 4.342 3.533 7.875 7.876 7.875a7.91 7.91 0 0 0 6.804-3.908.937.937 0 0 0-.337-1.282M23.823 35.289a.938.938 0 1 0-1.327 1.326.938.938 0 0 0 1.327-1.327"/></g><defs><clipPath id="a"><path fill="#fff" d="M0 0h48v48H0z"/></clipPath></defs></svg>