<svg xmlns="http://www.w3.org/2000/svg" width="48" height="48" fill="none"><g fill="#7772F1" clip-path="url(#a)"><path d="M45.188 10.125H35.06V7.313A6.57 6.57 0 0 0 28.5.75h-8.995a6.57 6.57 0 0 0-6.563 6.563v2.812H2.813A2.816 2.816 0 0 0 0 12.938v9.937c0 1.416.752 2.66 1.876 3.353v18.21A2.816 2.816 0 0 0 4.69 47.25h15.937a.938.938 0 0 0 0-1.875H4.689a.94.94 0 0 1-.938-.937v-17.63q.093.005.187.005h5.971a3.984 3.984 0 0 0 3.97 3.705 3.984 3.984 0 0 0 3.969-3.706h12.307a3.984 3.984 0 0 0 3.969 3.706 3.984 3.984 0 0 0 3.97-3.706h5.968q.096 0 .19-.004v17.63c0 .516-.421.937-.938.937H28.127a.938.938 0 0 0 0 1.875h15.187a2.816 2.816 0 0 0 2.812-2.812V26.227A3.94 3.94 0 0 0 48 22.875v-9.937a2.816 2.816 0 0 0-2.812-2.813M14.816 7.313a4.693 4.693 0 0 1 4.688-4.688h8.995a4.693 4.693 0 0 1 4.687 4.688v2.812h-1.875V7.313A2.816 2.816 0 0 0 28.5 4.5h-8.995a2.816 2.816 0 0 0-2.813 2.813v2.812h-1.875zm14.62 0v2.812h-10.87V7.313c0-.517.42-.938.938-.938h8.995c.517 0 .937.42.937.938m-13.453 18.56v.665c0 1.161-.944 2.105-2.104 2.105a2.107 2.107 0 0 1-2.105-2.105v-2.35h4.21zm20.246.665c0 1.161-.945 2.105-2.105 2.105a2.107 2.107 0 0 1-2.105-2.105v-2.35h4.21zm9.896-3.663a2.065 2.065 0 0 1-2.062 2.063h-5.96V23.25a.94.94 0 0 0-.937-.937h-6.084a.94.94 0 0 0-.938.937v1.688H17.858V23.25a.94.94 0 0 0-.937-.937h-6.085a.94.94 0 0 0-.937.937v1.688H3.938a2.065 2.065 0 0 1-2.063-2.063v-9.937c0-.517.42-.938.938-.938h42.374c.517 0 .938.42.938.938z"/><path d="M25.089 45.65a.95.95 0 0 0-.664-.275c-.247 0-.488.1-.663.275a.94.94 0 0 0-.274.663c0 .246.1.488.274.662a.95.95 0 0 0 .663.275c.246 0 .488-.1.664-.275a.94.94 0 0 0 .273-.663c0-.246-.099-.488-.273-.662M30.852 14.947a.94.94 0 0 0-.663-.275c-.246 0-.488.1-.662.275a.94.94 0 0 0-.275.662c0 .247.1.489.275.663a.95.95 0 0 0 .662.275c.247 0 .489-.1.663-.275a.95.95 0 0 0 .275-.663c0-.246-.1-.488-.275-.662M46.778 14.672H34.131a.938.938 0 0 0 0 1.875h12.647a.937.937 0 1 0 0-1.875"/></g><defs><clipPath id="a"><path fill="#fff" d="M0 0h48v48H0z"/></clipPath></defs></svg>