<svg xmlns="http://www.w3.org/2000/svg" width="48" height="48" fill="none"><g fill="#7772F1" clip-path="url(#a)"><path d="M43.781 0H4.22A4.224 4.224 0 0 0 0 4.219v42.844c0 .517.42.937.938.937h46.125c.517 0 .937-.42.937-.937V4.218A4.224 4.224 0 0 0 43.781 0m2.344 46.125H1.875v-35.25h35.906a.938.938 0 1 0 0-1.875H1.875V4.219a2.346 2.346 0 0 1 2.344-2.344H43.78a2.346 2.346 0 0 1 2.344 2.344z"/><path d="M7.875 2.625a2.816 2.816 0 0 0-2.812 2.813A2.816 2.816 0 0 0 7.874 8.25a2.816 2.816 0 0 0 2.813-2.812 2.816 2.816 0 0 0-2.813-2.813m0 3.75a.939.939 0 0 1 0-1.875.939.939 0 0 1 0 1.875M15.074 2.625a2.816 2.816 0 0 0-2.812 2.813 2.816 2.816 0 0 0 2.812 2.812 2.816 2.816 0 0 0 2.813-2.812 2.816 2.816 0 0 0-2.813-2.813m0 3.75a.939.939 0 0 1 0-1.875.939.939 0 0 1 0 1.875M22.273 2.625a2.816 2.816 0 0 0-2.812 2.813 2.816 2.816 0 0 0 2.812 2.812 2.816 2.816 0 0 0 2.813-2.812 2.816 2.816 0 0 0-2.813-2.813m0 3.75a.939.939 0 0 1 0-1.875.939.939 0 0 1 0 1.875M42 13.367H28.406a.937.937 0 0 0 0 1.875h12.657v10.875H6.938V15.242h12.75a.937.937 0 1 0 0-1.875H6a.937.937 0 0 0-.937.938v12.75c0 .518.42.937.937.937h36c.518 0 .938-.42.938-.937v-12.75a.94.94 0 0 0-.938-.938M15.75 31.313H6a.937.937 0 0 0-.937.937V42c0 .518.42.938.937.938h9.75c.518 0 .938-.42.938-.938v-9.75a.937.937 0 0 0-.938-.937m-.937 9.75H6.937v-7.876h7.876zM28.875 31.313h-9.75a.937.937 0 0 0-.937.937V42c0 .518.42.938.937.938h9.75c.518 0 .938-.42.938-.938v-9.75a.937.937 0 0 0-.938-.937m-.937 9.75h-7.875v-7.876h7.875zM42 31.313h-9.75a.937.937 0 0 0-.937.937V42c0 .518.42.938.937.938H42c.518 0 .938-.42.938-.938v-9.75a.937.937 0 0 0-.938-.937m-.937 9.75h-7.876v-7.876h7.876zM42.663 9.275A.95.95 0 0 0 42 9c-.247 0-.488.1-.663.275a.94.94 0 0 0-.275.662c0 .247.1.489.275.663a.94.94 0 0 0 .663.275c.247 0 .488-.1.663-.275a.94.94 0 0 0 .275-.662c0-.247-.1-.489-.275-.663"/><path d="M24.811 13.642a.94.94 0 0 0-.663-.275c-.246 0-.488.1-.662.275a.94.94 0 0 0-.275.663.94.94 0 0 0 1.6.663.94.94 0 0 0 .275-.663c0-.247-.1-.489-.275-.663"/></g><defs><clipPath id="a"><path fill="#fff" d="M0 0h48v48H0z"/></clipPath></defs></svg>